<svg width="104" height="104" viewBox="0 0 104 104" fill="none" xmlns="http://www.w3.org/2000/svg">
<path d="M104 52C104 80.7192 80.7192 104 52 104C23.2808 104 0 80.7192 0 52C0 23.2808 23.2808 0 52 0C80.7192 0 104 23.2808 104 52Z" fill="#2EC3E9"/>
<path d="M62.3376 91.3201V97.2607C56.8826 100.355 50.8102 102.493 44.3539 103.441C35.6774 102.161 27.6968 98.7397 20.9707 93.7307C17.6786 91.2797 14.6865 88.4462 12.0586 85.2962C14.4318 78.0543 20.9707 72.6977 28.845 72.0605C29.3671 72.0185 29.8939 71.9971 30.4263 71.9971H43.0106C44.4983 71.9971 45.9456 72.1629 47.3357 72.4811C55.9272 74.4465 62.3376 82.1359 62.3376 91.3201Z" fill="#DD3033"/>
<path d="M62.3376 91.3201V102.972C58.9963 103.645 55.5416 104 52.0012 104C40.3699 104 29.6329 100.181 20.9707 93.7307V91.3201C20.9707 80.6481 29.6241 71.9971 40.2977 71.9971H43.0106C53.6865 71.9971 62.3376 80.6481 62.3376 91.3201Z" fill="#F74F4F"/>
<path d="M17.8053 50.6865C17.8053 53.8786 15.4733 56.5248 12.4201 57.0159C12.0869 57.0707 11.7433 57.0985 11.3934 57.0985C7.85138 57.0985 4.98145 54.2285 4.98145 50.6865C4.98145 47.1453 7.85138 44.2754 11.3934 44.2754C11.7433 44.2754 12.0869 44.3032 12.4201 44.3579C15.4733 44.8491 17.8053 47.4952 17.8053 50.6865Z" fill="#D3A489"/>
<path d="M41.9057 78.9697L36.7181 87.2899L31.5312 78.9697" fill="#F2F0EC"/>
<path d="M41.2801 102.891C38.3594 102.28 35.5283 101.423 32.8115 100.343L36.7185 85.125L41.2801 102.891Z" fill="#F2F0EC"/>
<path d="M17.8051 50.686C17.8051 53.8781 15.4731 56.5243 12.4199 57.0154C11.8661 54.9993 11.5693 52.8768 11.5693 50.686C11.5693 48.4961 11.8653 46.3736 12.4199 44.3574C15.4731 44.8486 17.8051 47.4948 17.8051 50.686Z" fill="#BF8E75"/>
<path d="M13.6846 50.686C13.6846 51.9524 12.6586 52.9783 11.3931 52.9783C10.1275 52.9783 9.10156 51.9524 9.10156 50.686C9.10156 49.4205 10.1275 48.3945 11.3931 48.3945C12.6586 48.3945 13.6846 49.4205 13.6846 50.686Z" fill="#BF8E75"/>
<path d="M36.7175 79.9083L28.0173 84.7429L25.3711 72.4332L30.7761 69.249" fill="#DD3033"/>
<path d="M36.7168 79.9083L45.4163 84.7429L48.0624 72.4332L42.6566 69.249" fill="#DD3033"/>
<path d="M55.6299 50.6865C55.6299 53.8786 57.9619 56.5248 61.0151 57.0159C61.3483 57.0707 61.6919 57.0985 62.0418 57.0985C65.5838 57.0985 68.4537 54.2285 68.4537 50.6865C68.4537 47.1453 65.5838 44.2754 62.0418 44.2754C61.6919 44.2754 61.3483 44.3032 61.0151 44.3579C57.9619 44.8491 55.6299 47.4952 55.6299 50.6865Z" fill="#D3A489"/>
<path d="M55.6309 50.686C55.6309 53.8781 57.9628 56.5243 61.0161 57.0154C61.5699 54.9993 61.8666 52.8768 61.8666 50.686C61.8666 48.4961 61.5707 46.3736 61.0161 44.3574C57.9628 44.8486 55.6309 47.4948 55.6309 50.686Z" fill="#BF8E75"/>
<path d="M64.334 50.686C64.334 51.9524 63.308 52.9783 62.0425 52.9783C60.7769 52.9783 59.751 51.9524 59.751 50.686C59.751 49.4205 60.7769 48.3945 62.0425 48.3945C63.308 48.3945 64.334 49.4205 64.334 50.686Z" fill="#BF8E75"/>
<path d="M60.5737 47.2781C60.5737 59.1498 51.9012 68.9974 40.5468 70.8263C39.3011 71.0302 38.0228 71.1342 36.7184 71.1342C23.5422 71.1342 12.8623 60.4543 12.8623 47.2781C12.8623 41.0447 17.4167 31.6859 21.3317 27.4361C25.6909 22.704 29.7764 23.4228 36.7184 23.4228C38.0228 23.4228 39.3011 23.526 40.5468 23.7307C51.9012 25.5588 60.5737 35.4072 60.5737 47.2781Z" fill="#BF8E75"/>
<path d="M43.6129 64.5527V73.0142C43.6129 76.1118 41.5706 78.7294 38.7578 79.5991C38.1135 79.799 37.4271 79.9077 36.7178 79.9077C32.91 79.9077 29.8242 76.8212 29.8242 73.0142V64.5527H43.6129Z" fill="#BF8E75"/>
<path d="M43.6128 72.4785V73.0149C43.6128 76.1125 41.5704 78.7302 38.7576 79.5998C36.2194 78.8198 34.3103 76.6124 33.958 73.9123C34.419 73.9409 34.8816 73.9543 35.3474 73.9543C36.6518 73.9543 37.9301 73.8512 39.1758 73.6465C40.7103 73.3997 42.1933 73.0054 43.6128 72.4785Z" fill="#D3A489"/>
<path d="M60.5732 47.2779C60.5732 59.1496 51.9008 68.9972 40.5464 70.8261C29.192 68.9972 20.5195 59.1496 20.5195 47.2779C20.5195 39.9686 23.8076 33.4257 28.9881 29.049C32.2167 26.3179 36.184 24.4327 40.5464 23.7305C51.1319 25.434 59.3894 34.1113 60.4558 44.8999C60.5336 45.6823 60.5732 46.4765 60.5732 47.2779Z" fill="#D3A489"/>
<path d="M36.7186 60.0896C34.7207 60.0896 32.7235 59.589 30.9025 58.5876C30.3892 58.3059 30.2019 57.6608 30.4836 57.1467C30.7661 56.6333 31.4111 56.4461 31.9253 56.7277C34.9262 58.3781 38.5102 58.3781 41.5119 56.7277C42.0252 56.4461 42.6703 56.6333 42.9528 57.1467C43.2352 57.6608 43.048 58.3059 42.5346 58.5876C40.7136 59.589 38.7165 60.0896 36.7186 60.0896Z" fill="#BF8E75"/>
<path d="M31.6378 45.8901C31.6378 47.3842 30.4261 48.5958 28.9313 48.5958C27.4372 48.5958 26.2256 47.3842 26.2256 45.8901C26.2256 44.3952 27.4372 43.1836 28.9313 43.1836C30.4261 43.1836 31.6378 44.3952 31.6378 45.8901Z" fill="#3D4159"/>
<path d="M47.211 45.8901C47.211 47.3842 45.9994 48.5958 44.5045 48.5958C43.0104 48.5958 41.7988 47.3842 41.7988 45.8901C41.7988 44.3952 43.0104 43.1836 44.5045 43.1836C45.9994 43.1836 47.211 44.3952 47.211 45.8901Z" fill="#3D4159"/>
<path d="M31.0851 45.413C31.0851 46.0533 30.5662 46.5722 29.9258 46.5722C29.2855 46.5722 28.7666 46.0533 28.7666 45.413C28.7666 44.7726 29.2855 44.2529 29.9258 44.2529C30.5662 44.2529 31.0851 44.7726 31.0851 45.413Z" fill="white"/>
<path d="M46.7919 45.413C46.7919 46.0533 46.273 46.5722 45.6327 46.5722C44.9924 46.5722 44.4727 46.0533 44.4727 45.413C44.4727 44.7726 44.9924 44.2529 45.6327 44.2529C46.273 44.2529 46.7919 44.7726 46.7919 45.413Z" fill="white"/>
<path d="M39.4241 52.7043H34.0119C33.3676 52.7043 32.8447 52.1814 32.8447 51.5371C32.8447 50.892 33.3676 50.3691 34.0119 50.3691H39.4241C40.0692 50.3691 40.592 50.892 40.592 51.5371C40.592 52.1814 40.0692 52.7043 39.4241 52.7043Z" fill="#BF8E75"/>
<path d="M44.5723 90.6855H54.9721V93.8689H44.5723V90.6855Z" fill="#DD3033"/>
<path d="M35.3223 16.6075C42.5483 17.1241 48.3508 22.9615 48.719 30.3105L48.7872 31.6895H52.9434L55.1833 46.5788L60.6066 44.8998L59.8782 30.3105C59.4934 22.591 53.1092 16.5417 45.3825 16.5694L35.3223 16.6075Z" fill="#2A2F4F"/>
<path d="M59.4185 10.8496C65.1734 16.6046 65.1734 25.9348 59.4185 31.689C53.6643 37.4439 44.334 37.4439 38.5791 31.689L59.4185 10.8496Z" fill="#3D4159"/>
<path d="M38.5795 31.6897H20.4935L18.2535 46.5797L12.8311 44.9008L13.5587 30.3107C13.9427 22.5928 20.3276 16.5418 28.0543 16.5704L54.1741 16.6688L57.6273 22.8847" fill="#3D4159"/>
<path d="M38.1134 16.6075C30.8874 17.1241 25.0848 22.9615 24.7167 30.3105L24.6484 31.6895H20.4923L18.2524 46.5788L12.8291 44.8998L13.5583 30.3105C13.9423 22.591 20.3265 16.5417 28.0532 16.5694L38.1134 16.6075Z" fill="#2A2F4F"/>
<path d="M50.8408 5.69531H97.9468V41.1033H50.8408V5.69531Z" fill="#F2F0EC"/>
<path d="M60.3249 38.8912L55.2666 50.9041L77.3969 38.2588L60.3249 38.8912Z" fill="#F2F0EC"/>
<path d="M72.3877 27.0747C72.3877 28.1205 73.2502 28.9084 74.3928 28.9084C75.3576 28.9084 76.3986 28.2078 76.3986 27.0747C76.3986 24.8578 76.4859 22.3846 76.57 19.9931C76.6549 17.5945 76.7422 15.1141 76.7422 12.8813C76.7422 11.5531 75.7543 10.5898 74.3936 10.5898C73.0106 10.5898 72.0449 11.5317 72.0449 12.8813C72.0449 15.1141 72.1322 17.5945 72.2163 19.9931C72.3004 22.3846 72.3877 24.8578 72.3877 27.0747Z" fill="#3D4159"/>
<path d="M74.4227 31.084C73.0008 31.084 71.8447 32.2401 71.8447 33.6619C71.8447 35.0671 73.0008 36.2113 74.4227 36.2113C75.789 36.2113 76.9435 35.0433 76.9435 33.6619C76.9435 32.2401 75.8128 31.084 74.4227 31.084Z" fill="#3D4159"/>
</svg>
