<svg width="67" height="24" viewBox="0 0 67 24" fill="none" xmlns="http://www.w3.org/2000/svg">
<path d="M26.8966 23.5862C26.6759 23.5862 26.4772 23.509 26.3007 23.3545C26.1462 23.1779 26.069 22.9793 26.069 22.7586V1.27448C26.069 1.03172 26.1462 0.833098 26.3007 0.678616C26.4552 0.502064 26.6538 0.413788 26.8966 0.413788H42.2897C42.5324 0.413788 42.731 0.502064 42.8855 0.678616C43.0621 0.833098 43.1504 1.03172 43.1504 1.27448V4.78344C43.1504 5.0262 43.0621 5.22482 42.8855 5.37931C42.731 5.53379 42.5324 5.61103 42.2897 5.61103H32.16V10.2124H41.6276C41.8704 10.2124 42.069 10.3007 42.2235 10.4772C42.4 10.6317 42.4883 10.8303 42.4883 11.0731V14.5821C42.4883 14.8248 42.4 15.0234 42.2235 15.1779C42.069 15.3324 41.8704 15.4097 41.6276 15.4097H32.16V22.7586C32.16 22.9793 32.0828 23.1779 31.9283 23.3545C31.7738 23.509 31.5752 23.5862 31.3324 23.5862H26.8966Z" fill="#49C179"/>
<path d="M47.4569 23.5862C47.2362 23.5862 47.0376 23.509 46.861 23.3545C46.7066 23.1779 46.6293 22.9793 46.6293 22.7586V1.27448C46.6293 1.03172 46.7066 0.833098 46.861 0.678616C47.0155 0.502064 47.2141 0.413788 47.4569 0.413788H56.8252C59.6941 0.413788 61.9452 1.06482 63.5783 2.36689C65.2114 3.66896 66.0279 5.57793 66.0279 8.09379C66.0279 10.6097 65.2114 12.4965 63.5783 13.7545C61.9452 14.9903 59.6941 15.6083 56.8252 15.6083H53.0514V22.7586C53.0514 22.9793 52.9741 23.1779 52.8197 23.3545C52.6652 23.509 52.4666 23.5862 52.2238 23.5862H47.4569ZM56.6597 10.8745C57.5645 10.8745 58.2707 10.6428 58.7783 10.1793C59.3079 9.69379 59.5728 8.98758 59.5728 8.06069C59.5728 7.2 59.33 6.50482 58.8445 5.97517C58.381 5.44551 57.6528 5.18068 56.6597 5.18068H52.9521V10.8745H56.6597Z" fill="#49C179"/>
<path d="M10.9672 0C4.90998 0 0 5.41355 0 12.0964C0 18.023 3.8631 22.9368 8.96373 23.9829C8.99361 23.9879 9.02415 23.9879 9.05404 23.9829C9.17676 23.9829 9.29451 23.9345 9.3816 23.8484C9.46869 23.7623 9.51806 23.6454 9.51894 23.5231L10.1411 12.6227C10.1411 12.4045 10.2281 12.1952 10.383 12.0409C10.538 11.8866 10.7481 11.7999 10.9672 11.7999C11.1863 11.7999 11.3964 11.8866 11.5514 12.0409C11.7063 12.1952 11.7933 12.4045 11.7933 12.6227L12.4087 23.5098V23.5897C12.4219 23.7016 12.4758 23.8049 12.5602 23.8798C12.6447 23.9547 12.7539 23.9961 12.867 23.9962C12.8968 24.0013 12.9274 24.0013 12.9573 23.9962C18.0612 22.9368 21.931 18.023 21.931 12.0964C21.931 5.41355 17.0244 0 10.9672 0ZM7.8533 14.6083C3.83969 17.2301 2.95669 11.8998 2.77274 10.0775L2.75267 9.94427C2.76023 9.851 2.79911 9.76298 2.86304 9.69442L2.88311 9.6711L2.90318 9.65444C2.9729 9.59008 3.06256 9.5513 3.15737 9.5445L3.30454 9.56116C5.13073 9.74772 10.4822 10.6439 7.8533 14.6083ZM10.9672 9.81102C6.28464 8.84824 9.42529 4.44411 10.5892 3.02826C10.618 2.98747 10.6493 2.94853 10.6829 2.91166C10.7527 2.85094 10.8412 2.81569 10.9337 2.81171H10.9939C11.0877 2.81494 11.1775 2.85023 11.2481 2.91166C11.2818 2.94853 11.3131 2.98747 11.3418 3.02826C12.5057 4.45743 15.6531 8.86156 10.9672 9.82434V9.81102ZM14.0777 14.7182C11.4488 10.7205 16.8003 9.83767 18.6265 9.65444L18.777 9.63778C18.8703 9.64413 18.9587 9.6817 19.0279 9.74439C19.0356 9.74286 19.0435 9.74286 19.0513 9.74439C19.0513 9.74439 19.0513 9.74439 19.0513 9.76771C19.1166 9.83669 19.1556 9.92626 19.1616 10.0209C19.1616 10.0642 19.1616 10.1175 19.1449 10.1675C18.9743 12.0164 18.078 17.35 14.0777 14.7315V14.7182Z" fill="#49C179"/>
</svg>
