<svg width="92" height="24" viewBox="0 0 92 24" fill="none" xmlns="http://www.w3.org/2000/svg">
<path d="M70.9288 6.5684C71.1604 6.5684 71.3581 6.53633 71.522 6.4722C71.6859 6.4045 71.8195 6.31364 71.9229 6.19963C72.0298 6.08205 72.1064 5.94309 72.1527 5.78275C72.2026 5.61886 72.2275 5.44071 72.2275 5.2483C72.2275 5.11647 72.2079 4.99889 72.1687 4.89557C72.1331 4.78868 72.0725 4.69782 71.987 4.623C71.9051 4.54817 71.7982 4.49117 71.6663 4.45197C71.5345 4.40922 71.3724 4.38784 71.18 4.38784L69.9561 4.38784L69.6889 6.5684L70.9288 6.5684ZM70.3516 1.17579L70.0844 3.34032H71.025C71.2423 3.34032 71.4365 3.31716 71.6075 3.27084C71.7821 3.22096 71.93 3.14435 72.0511 3.04102C72.1723 2.93413 72.2631 2.79874 72.3237 2.63484C72.3878 2.47094 72.4199 2.2732 72.4199 2.0416C72.4199 1.73162 72.3344 1.51071 72.1634 1.37888C71.9959 1.24349 71.734 1.17579 71.3777 1.17579H70.3516ZM71.522 0C71.9603 0 72.3362 0.0427561 72.6497 0.128268C72.9633 0.21378 73.2198 0.334922 73.4193 0.491695C73.6189 0.644904 73.7649 0.831961 73.8576 1.05287C73.9502 1.27021 73.9965 1.5125 73.9965 1.77972C73.9965 1.99706 73.968 2.2055 73.911 2.40503C73.854 2.60456 73.7632 2.78983 73.6385 2.96086C73.5173 3.12832 73.3623 3.28153 73.1735 3.42048C72.9846 3.55588 72.7566 3.66811 72.4894 3.75719C72.9205 3.8712 73.2394 4.05113 73.4461 4.29698C73.6527 4.54283 73.756 4.85281 73.756 5.22693C73.756 5.58323 73.6883 5.91637 73.5529 6.22635C73.4175 6.53277 73.2234 6.79999 72.9704 7.02802C72.7174 7.25249 72.4074 7.43064 72.0404 7.56248C71.677 7.69074 71.2655 7.75488 70.8059 7.75488L68 7.75488L68.9567 0L71.522 0Z" fill="#4D4D4D"/>
<path d="M76.9803 1.2132L76.7291 3.26549L79.0646 3.26549L78.9096 4.43594H76.5848L76.3229 6.54167H79.3425L79.1929 7.75488L74.618 7.75488L75.5747 0L80.1389 0L79.9839 1.2132L76.9803 1.2132Z" fill="#4D4D4D"/>
<path d="M86.2063 1.25061L84.154 1.25061L83.3523 7.75488H81.8131L82.6041 1.25061L80.5465 1.25061L80.6961 0L86.3666 0L86.2063 1.25061Z" fill="#4D4D4D"/>
<path d="M89.8515 4.82074L89.3919 2.36762C89.3669 2.23935 89.3384 2.08792 89.3064 1.91333C89.2743 1.73875 89.244 1.54991 89.2155 1.34682C89.1371 1.54991 89.0605 1.73875 88.9857 1.91333C88.9109 2.08792 88.845 2.24113 88.788 2.37296L87.7351 4.82074H89.8515ZM92 7.75488H90.8028C90.6674 7.75488 90.5623 7.72281 90.4875 7.65868C90.4127 7.59454 90.361 7.51081 90.3325 7.40748L90.0493 5.89499L87.2755 5.89499L86.6234 7.40748C86.5771 7.50012 86.5058 7.58207 86.4096 7.65333C86.3134 7.72103 86.203 7.75488 86.0783 7.75488H84.8597L88.5902 0L90.1722 0L92 7.75488Z" fill="#4D4D4D"/>
<path d="M39.7346 16.6333C39.2113 15.6629 38.7229 14.6926 38.4438 14.1571C40.3624 13.2202 41.723 11.3464 42.1417 9.00408C42.6301 6.29368 41.7579 3.54983 39.9438 2.01061C37.7809 -0.164339 32.6877 -0.0305326 28.6061 0.0363705C27.3153 0.0698968 26.0943 0.103348 25.1873 0.0363705C25.0478 0.0363705 24.9082 0.0698223 24.8035 0.170252C24.6989 0.270606 24.6292 0.404487 24.6292 0.538293V23.5264C24.6292 23.7941 24.8733 24.0283 25.1524 23.9948H29.7572C30.0364 23.9948 30.2805 23.7606 30.2805 23.4929V15.596H33.1063L37.153 23.7271C37.2228 23.8944 37.4321 24.0283 37.6414 23.9948H42.5952C42.7696 23.9948 42.9091 23.9279 43.0138 23.7941C43.2929 23.4594 43.3277 23.4259 39.7346 16.6333ZM36.0018 9.84059C34.9203 10.9114 32.5132 10.8444 30.6295 10.811H30.3154V4.85481H30.5946C32.5481 4.78791 34.9552 4.72101 36.0367 5.82521C36.4902 6.29368 36.6995 6.92948 36.6298 7.8329C36.6298 7.86635 36.6298 7.86635 36.6298 7.89987C36.6646 8.73639 36.4553 9.37212 36.0018 9.84059Z" fill="#49C179"/>
<path d="M61.9526 6.90394C61.5867 4.22381 60.0899 2.04619 57.9945 1.04115C56.0653 -0.131342 51.9409 -0.0308686 48.6147 0.0361141C47.251 0.0696802 46.0869 0.103172 45.2553 0.0361141C45.1223 0.0361141 44.9892 0.0696805 44.8895 0.170155C44.7897 0.270629 44.7231 0.404669 44.7231 0.538634V23.5206C44.7231 23.7886 44.956 24.0231 45.2221 23.9895H49.6126C49.8786 23.9895 50.1115 23.755 50.1115 23.487V15.9492H50.1448C53.3379 16.0163 57.6619 16.0833 59.7573 13.8387C61.4869 12.2976 62.3517 9.65105 61.9526 6.90394ZM56.5975 8.21047C56.6307 9.04798 56.4644 9.71803 56.032 10.1535C55.0342 11.2256 52.7392 11.1585 50.9098 11.0916C50.6104 11.0916 50.3443 11.0916 50.1115 11.0916V4.86037H50.4108C52.3733 4.79331 54.7681 4.72632 55.9323 5.86533C56.4311 6.40142 56.664 7.13845 56.6307 8.14349C56.5975 8.17698 56.5975 8.21047 56.5975 8.21047Z" fill="#49C179"/>
<path d="M10.8518 0.00354004C4.86345 0.00354004 0 5.43525 0 12.0999C0 18.0314 3.80471 22.9633 8.86671 23.9963C8.8998 23.9963 8.93289 23.9963 8.96598 23.9963C9.19753 23.9963 9.42909 23.7963 9.42909 23.5631L10.0577 12.6664C10.0577 12.1999 10.4217 11.8333 10.8848 11.8333C11.348 11.8333 11.712 12.1999 11.712 12.6664L12.3075 23.5298V23.5964C12.3406 23.8296 12.5391 23.9963 12.7707 23.9963C12.8038 23.9963 12.8369 23.9963 12.87 23.9963C17.9319 22.9633 21.7366 18.0314 21.7366 12.0999C21.7035 5.43525 16.8401 0.00354004 10.8518 0.00354004ZM7.77488 14.6324C3.80471 17.265 2.94451 11.9333 2.74605 10.1005L2.71296 9.96721C2.71296 9.86719 2.74605 9.80056 2.81223 9.70062L2.84532 9.66731H2.87833C2.94451 9.60061 3.04378 9.5673 3.14306 9.5673H3.27542C5.09501 9.76725 10.3886 10.667 7.77488 14.6324ZM10.8518 9.83388C6.21993 8.86749 9.3299 4.46887 10.4878 3.03595C10.5209 3.00263 10.554 2.96932 10.5871 2.93601C10.6533 2.86938 10.7525 2.83599 10.8518 2.83599H10.9179C11.0172 2.83599 11.1165 2.86938 11.1826 2.93601C11.2157 2.96932 11.2488 3.00263 11.2819 3.03595C12.3737 4.46887 15.4836 8.86749 10.8518 9.83388ZM13.9286 14.7657C11.3149 10.7669 16.6085 9.86719 18.4282 9.66731H18.5936C18.6928 9.66731 18.759 9.70062 18.8583 9.76725C18.8914 9.76725 18.8913 9.80056 18.8913 9.80056C18.9575 9.86719 18.9906 9.96721 18.9906 10.0671C18.9906 10.1005 18.9906 10.1672 18.9575 10.2005C18.759 12.0332 17.8988 17.3649 13.9286 14.7657Z" fill="#49C179"/>
</svg>
