<svg width="214" height="214" viewBox="0 0 214 214" fill="none" xmlns="http://www.w3.org/2000/svg">
<g clip-path="url(#clip0)">
<path d="M107.161 85.8409V85.8242C107.108 85.8242 107.054 85.8301 107.001 85.8326C106.948 85.8296 106.895 85.8242 106.842 85.8242V85.8409C93.2229 87.2712 86.9023 190.778 86.9023 210.814H106.842H107.161H127.1C127.1 190.778 120.779 87.2712 107.161 85.8409Z" fill="#E19974"/>
<path d="M84.9941 42.9479C84.9941 60.7253 93.6791 76.4673 107.027 86.1537C120.374 76.4673 129.059 60.7249 129.059 42.9479C129.059 25.4546 120.649 9.93209 107.663 0.21097C107.287 -0.0703232 106.766 -0.0703232 106.39 0.21097C93.4037 9.93167 84.9941 25.4546 84.9941 42.9479Z" fill="#4FC123"/>
<path d="M60.3384 70.5408C72.8821 83.1112 90.7273 88.7747 107 86.1657C109.603 69.8582 104.04 51.8864 91.4967 39.316C79.1533 26.9462 62.2536 21.9289 46.2115 24.2578C45.7476 24.3251 45.3798 24.6938 45.3125 25.1577C42.9881 41.2345 47.9946 58.1706 60.3384 70.5408Z" fill="#80D261"/>
<path d="M122.446 38.4673C109.902 51.0378 104.395 69.8597 106.998 86.1672C123.271 88.7762 141.06 82.2625 153.604 69.6917C165.948 57.3215 170.954 40.3858 168.63 24.3091C168.563 23.8447 168.195 23.4765 167.731 23.4092C151.688 21.0803 134.789 26.0976 122.446 38.4673Z" fill="#80D261"/>
<path d="M150.367 64.1981C132.628 64.0991 116.871 72.7142 107.131 86.0361C116.722 99.4659 132.382 108.257 150.122 108.356C167.579 108.453 183.115 100.112 192.888 87.1509C193.17 86.7768 193.173 86.2564 192.895 85.8794C183.268 72.8099 167.824 64.2955 150.367 64.1981Z" fill="#ADE194"/>
<path d="M63.6819 64.1976C81.4213 64.1374 97.1595 72.7877 106.87 86.1309C97.2494 99.5393 81.5701 108.296 63.8303 108.356C46.3734 108.414 30.8547 100.039 21.1106 87.0567C20.8293 86.6822 20.8276 86.1618 21.1064 85.7852C30.7631 72.7371 46.2255 64.2565 63.6819 64.1976Z" fill="#ADE194"/>
<path d="M146.88 214H67.1223C65.3647 214 63.9395 212.574 63.9395 210.814C63.9395 209.055 65.3643 207.629 67.1223 207.629H146.879C148.637 207.629 150.062 209.055 150.062 210.814C150.062 212.574 148.637 214 146.88 214Z" fill="#E19974"/>
<path d="M124.502 164.245C123.6 153.595 122.459 142.394 121.073 131.896C117.254 133.124 112.763 134.078 107.691 134.29C102.138 134.519 97.1532 133.809 92.8765 132.696L92.8226 132.714C91.44 143.317 90.306 154.597 89.4141 165.279L89.4571 165.27C94.4038 166.923 100.581 168.169 107.682 167.876C114.363 167.596 120.049 166.032 124.502 164.245Z" fill="#D77F4A"/>
<circle cx="150" cy="203" r="11" fill="#7E3D16"/>
<circle cx="40" cy="203" r="11" fill="#944E24"/>
<circle cx="56" cy="203" r="11" fill="#A86137"/>
<circle cx="119" cy="203" r="11" fill="#944E24"/>
<circle cx="85" cy="197" r="11" fill="#944E24"/>
</g>
<defs>
<clipPath id="clip0">
<rect width="214" height="214" fill="white"/>
</clipPath>
</defs>
</svg>
