<svg width="174" height="214" viewBox="0 0 174 214" fill="none" xmlns="http://www.w3.org/2000/svg">
<path d="M87.1609 85.8409V85.8242C87.1078 85.8242 87.0543 85.8301 87.0012 85.8326C86.9481 85.8296 86.895 85.8242 86.8415 85.8242V85.8409C73.2229 87.2712 66.9023 190.778 66.9023 210.814H86.8415H87.1609H107.1C107.1 190.778 100.779 87.2712 87.1609 85.8409Z" fill="#E19974"/>
<path d="M64.9941 42.9479C64.9941 60.7253 73.6791 76.4673 87.0265 86.1537C100.374 76.4673 109.059 60.7249 109.059 42.9479C109.059 25.4546 100.649 9.93209 87.6631 0.21097C87.2873 -0.0703232 86.7661 -0.0703232 86.3904 0.21097C73.4037 9.93167 64.9941 25.4546 64.9941 42.9479Z" fill="#4FC123"/>
<path d="M40.3384 70.5408C52.8821 83.1112 70.7273 88.7747 87 86.1657C89.6031 69.8582 84.0404 51.8864 71.4967 39.316C59.1533 26.9462 42.2536 21.9289 26.2115 24.2578C25.7476 24.3251 25.3798 24.6938 25.3125 25.1577C22.9881 41.2345 27.9946 58.1706 40.3384 70.5408Z" fill="#80D261"/>
<path d="M102.446 38.4673C89.902 51.0378 84.3952 69.8597 86.9984 86.1672C103.271 88.7762 121.06 82.2625 133.604 69.6917C145.948 57.3215 150.954 40.3858 148.63 24.3091C148.563 23.8447 148.195 23.4765 147.731 23.4092C131.688 21.0803 114.789 26.0976 102.446 38.4673Z" fill="#80D261"/>
<path d="M130.367 64.1981C112.628 64.0991 96.8708 72.7142 87.1309 86.0361C96.722 99.4659 112.382 108.257 130.122 108.356C147.579 108.453 163.115 100.112 172.888 87.1509C173.17 86.7768 173.173 86.2564 172.895 85.8794C163.268 72.8099 147.824 64.2955 130.367 64.1981Z" fill="#ADE194"/>
<path d="M43.6819 64.1976C61.4213 64.1374 77.1595 72.7877 86.8702 86.1309C77.2494 99.5393 61.5701 108.296 43.8303 108.356C26.3734 108.414 10.8547 100.039 1.11056 87.0567C0.82927 86.6822 0.827597 86.1618 1.10638 85.7852C10.7631 72.7371 26.2255 64.2565 43.6819 64.1976Z" fill="#ADE194"/>
<path d="M126.88 214H47.1223C45.3647 214 43.9395 212.574 43.9395 210.814C43.9395 209.055 45.3643 207.629 47.1223 207.629H126.879C128.637 207.629 130.062 209.055 130.062 210.814C130.062 212.574 128.637 214 126.88 214Z" fill="#E19974"/>
<path d="M104.502 164.245C103.6 153.595 102.459 142.394 101.073 131.896C97.2537 133.124 92.763 134.078 87.691 134.29C82.1379 134.519 77.1532 133.809 72.8765 132.696L72.8226 132.714C71.44 143.317 70.306 154.597 69.4141 165.279L69.4571 165.27C74.4038 166.923 80.5805 168.169 87.6822 167.876C94.3634 167.596 100.049 166.032 104.502 164.245Z" fill="#D77F4A"/>
</svg>
