<svg width="104" height="214" viewBox="0 0 104 214" fill="none" xmlns="http://www.w3.org/2000/svg">
<path d="M43.0566 147.424L60.906 147.46L60.7793 210.819L42.9299 210.783L43.0566 147.424Z" fill="#E19974"/>
<path d="M43.1215 147.38L43.1152 173.692C48.3014 173.7 52.4978 177.924 52.4853 183.123L52.418 210.754L60.8739 210.767L60.9709 147.407L43.1215 147.38Z" fill="#D77F4A"/>
<path d="M94.6417 214C94.64 214 94.6383 214 94.6367 214L9.35222 213.868C7.59967 213.865 6.18067 212.438 6.1836 210.681C6.18652 208.926 7.60678 207.505 9.35724 207.505H9.36225L94.6467 207.637C96.3992 207.639 97.8182 209.066 97.8153 210.823C97.8124 212.579 96.3921 214 94.6417 214Z" fill="#E19974"/>
<path d="M99.5349 160.516H4.46541C1.48654 160.516 -0.375509 157.275 1.11413 154.679L13.5667 132.983L24.8815 113.275L48.6489 71.8747C50.1385 69.2787 53.8618 69.2787 55.3514 71.8747L79.1188 113.275L90.429 132.983L102.886 154.679C104.376 157.276 102.514 160.516 99.5349 160.516Z" fill="#ADE194"/>
<path d="M99.5322 160.516H88.37L79.4589 141.882C76.2982 136.376 70.4462 132.983 64.1077 132.983H13.5645L24.8793 113.275L48.6466 71.8747C50.1363 69.2787 53.8596 69.2787 55.3492 71.8747L79.1166 113.275L90.4268 132.983L102.884 154.679C104.373 157.276 102.511 160.516 99.5322 160.516Z" fill="#80D261"/>
<path d="M48.6466 49.0971C50.1367 46.5015 53.8612 46.5015 55.3512 49.0971L74.0696 81.7041L92.7879 114.311C94.2779 116.907 92.4155 120.151 89.4358 120.151H14.5621C11.5824 120.151 9.71994 116.907 11.21 114.311L29.9283 81.7041L48.6466 49.0971Z" fill="#ADE194"/>
<path d="M92.7875 114.31L74.0692 81.7031L55.3513 49.0961C53.8612 46.5005 50.1363 46.5005 48.6466 49.0961L29.9287 81.7031L23.1543 93.504H51.9987H55.3233C61.7353 93.504 67.6634 96.923 70.8859 102.48L81.1947 120.255L89.435 120.15C92.4151 120.15 94.2771 116.906 92.7875 114.31Z" fill="#80D261"/>
<path d="M48.6492 25.0863C50.1393 22.4908 53.8638 22.4908 55.3538 25.0863L70.0287 50.6497L84.7036 76.2131C86.1937 78.8087 84.3312 82.053 81.3515 82.053H52.0013H22.652C19.6723 82.053 17.8098 78.8087 19.2998 76.2131L33.9747 50.6497L48.6492 25.0863Z" fill="#ADE194"/>
<path d="M84.7032 76.2127L73.6914 57.03L70.0287 50.6497L55.3543 25.0863C53.8642 22.4908 50.1393 22.4908 48.6496 25.0863L33.9752 50.6497L30.3125 57.03C30.4249 57.0396 52.5585 57.053 52.5585 57.053C56.479 57.053 60.1007 59.1529 62.0564 62.5593L69.8941 76.2131C71.3842 78.8087 71.8895 79.959 73.3119 82.053H81.3515C84.3308 82.0521 86.1932 78.8079 84.7032 76.2127Z" fill="#80D261"/>
<path d="M48.6466 1.94669C50.1367 -0.648896 53.8612 -0.648896 55.3512 1.94669L66.0266 20.543L76.7019 39.1392C78.192 41.7348 76.3295 44.9791 73.3498 44.9791H51.9987H30.648C27.6683 44.9791 25.8059 41.7348 27.2959 39.1392L37.9713 20.543L48.6466 1.94669Z" fill="#ADE194"/>
</svg>
