<svg width="214" height="214" viewBox="0 0 214 214" fill="none" xmlns="http://www.w3.org/2000/svg">
<path d="M98.0566 147.424L115.906 147.46L115.779 210.819L97.9299 210.783L98.0566 147.424Z" fill="#E19974"/>
<path d="M98.1215 147.38L98.1152 173.692C103.301 173.7 107.498 177.924 107.485 183.123L107.418 210.754L115.874 210.767L115.971 147.407L98.1215 147.38Z" fill="#D77F4A"/>
<path d="M149.642 214C149.64 214 149.638 214 149.637 214L64.3522 213.868C62.5997 213.865 61.1807 212.438 61.1836 210.681C61.1865 208.926 62.6068 207.505 64.3572 207.505H64.3622L149.647 207.637C151.399 207.639 152.818 209.066 152.815 210.823C152.812 212.579 151.392 214 149.642 214Z" fill="#E19974"/>
<path d="M154.535 160.516H59.4654C56.4865 160.516 54.6245 157.275 56.1141 154.679L68.5667 132.983L79.8815 113.275L103.649 71.8747C105.139 69.2787 108.862 69.2787 110.351 71.8747L134.119 113.275L145.429 132.983L157.886 154.679C159.376 157.276 157.514 160.516 154.535 160.516V160.516Z" fill="#ADE194"/>
<path d="M154.532 160.516H143.37L134.459 141.882C131.298 136.376 125.446 132.983 119.108 132.983H68.5645L79.8793 113.275L103.647 71.8747C105.136 69.2787 108.86 69.2787 110.349 71.8747L134.117 113.275L145.427 132.983L157.884 154.679C159.373 157.276 157.511 160.516 154.532 160.516V160.516Z" fill="#80D261"/>
<path d="M103.647 49.0971C105.137 46.5015 108.861 46.5015 110.351 49.0971L129.07 81.7041L147.788 114.311C149.278 116.907 147.415 120.151 144.436 120.151H69.5621C66.5824 120.151 64.7199 116.907 66.21 114.311L84.9283 81.7041L103.647 49.0971Z" fill="#ADE194"/>
<path d="M147.788 114.31L129.069 81.7031L110.351 49.0961C108.861 46.5005 105.136 46.5005 103.647 49.0961L84.9287 81.7031L78.1543 93.504H106.999H110.323C116.735 93.504 122.663 96.923 125.886 102.48L136.195 120.255L144.435 120.15C147.415 120.15 149.277 116.906 147.788 114.31V114.31Z" fill="#80D261"/>
<path d="M103.649 25.0863C105.139 22.4908 108.864 22.4908 110.354 25.0863L125.029 50.6497L139.704 76.2131C141.194 78.8087 139.331 82.053 136.352 82.053H107.001H77.652C74.6723 82.053 72.8098 78.8087 74.2998 76.2131L88.9747 50.6497L103.649 25.0863Z" fill="#ADE194"/>
<path d="M139.703 76.2127L128.691 57.03L125.029 50.6497L110.354 25.0863C108.864 22.4908 105.139 22.4908 103.65 25.0863L88.9752 50.6497L85.3125 57.03C85.4249 57.0396 107.558 57.053 107.558 57.053C111.479 57.053 115.101 59.1529 117.056 62.5593L124.894 76.2131C126.384 78.8087 126.89 79.959 128.312 82.053H136.351C139.331 82.0521 141.193 78.8079 139.703 76.2127V76.2127Z" fill="#80D261"/>
<path d="M103.647 1.94669C105.137 -0.648896 108.861 -0.648896 110.351 1.94669L121.027 20.543L131.702 39.1392C133.192 41.7348 131.33 44.9791 128.35 44.9791H106.999H85.648C82.6683 44.9791 80.8059 41.7348 82.2959 39.1392L92.9713 20.543L103.647 1.94669Z" fill="#ADE194"/>
<rect x="110" y="38" width="6" height="17" rx="3" fill="#E19974"/>
<rect x="89" y="67" width="6" height="17" rx="3" fill="#E19974"/>
<rect x="144" y="121" width="6" height="17" rx="3" fill="#E19974"/>
<rect x="71" y="147" width="6" height="17" rx="3" fill="#E19974"/>
<rect x="98" y="109" width="6" height="17" rx="3" fill="#E19974"/>
<rect x="126" y="85" width="6" height="17" rx="3" fill="#E19974"/>
</svg>
