<svg width="212" height="214" viewBox="0 0 212 214" fill="none" xmlns="http://www.w3.org/2000/svg">
<path d="M82.0253 210.818L97.8492 155.643C103.742 139.276 92.5828 119.16 81.1484 111.702C59.6849 94.7011 35.6133 75.6337 36.3873 74.2916C36.8571 73.477 47.1872 77.9735 87.52 99.4546C88.4098 99.9286 89.502 99.7773 90.2276 99.0772C92.7897 96.6053 95.4104 93.7874 97.9796 90.5862C107.604 78.593 112.437 66.2842 114.986 57.2022C115.667 66.392 115.373 79.9275 110.064 94.8958C108.422 99.5244 106.528 103.65 104.586 107.271C104.024 108.32 104.337 109.623 105.32 110.294C108.186 112.253 111.053 114.211 113.92 116.17C114.88 116.826 116.179 116.674 116.955 115.806C121.609 110.595 127.978 104.603 136.389 99.2055C155.605 86.875 174.689 84.5703 184.724 84.1227C166.644 92.4846 154.474 102.535 147.178 109.548C132.719 123.446 130.575 131.974 129.916 135.835C128.588 143.61 130.348 149.625 131.642 154.366C135.7 169.222 140.453 195.736 143.564 210.819L82.0253 210.819L82.0253 210.818Z" fill="#E8E8E8"/>
<path d="M152.494 98.3584C147.172 101.774 142.667 105.427 138.897 108.97C134.421 113.177 127.613 113.675 122.541 110.21L122.448 110.146C120.403 112.089 118.572 113.995 116.954 115.806C116.178 116.675 114.875 116.825 113.913 116.168C111.048 114.211 108.183 112.253 105.318 110.296C104.335 109.624 104.023 108.322 104.585 107.272C106.526 103.652 108.421 99.5262 110.062 94.8977C110.154 94.6381 110.241 94.3802 110.33 94.1219C110.313 94.1411 110.295 94.1604 110.278 94.1796C107.384 97.3415 102.701 98.1131 98.916 96.1052C97.5919 95.4026 96.3029 94.72 95.0482 94.0571C93.4361 95.8711 91.8198 97.5426 90.2261 99.0798C89.5009 99.7795 88.4079 99.9304 87.5185 99.4569C82.515 96.7919 77.9741 94.389 73.8555 92.2243C81.0955 98.0567 89.3508 104.596 97.2538 110.856C108.605 118.134 119.894 138.664 113.955 154.796L98.1302 209.972L143.388 209.972C140.276 194.762 135.623 168.952 131.64 154.367C130.345 149.627 128.586 143.611 129.913 135.837C130.573 131.976 132.717 123.448 147.176 109.55C153.832 103.153 164.546 94.2277 180.101 86.3623C171.674 88.5349 162.1 92.1938 152.494 98.3584Z" fill="#E8E8E8"/>
<path d="M164.37 213.999L56.32 213.999C54.5792 213.999 53.0615 212.657 53.0093 210.916C52.9554 209.114 54.3986 207.637 56.1867 207.637L164.236 207.637C165.977 207.637 167.495 208.979 167.547 210.72C167.601 212.522 166.158 213.999 164.37 213.999Z" fill="#E8E8E8"/>
<path d="M82.9085 76.2261C82.9085 83.2125 78.8437 89.2484 72.952 92.1119C70.621 93.2404 68.0012 93.8765 65.2338 93.8765C60.8807 93.8765 56.8924 92.3029 53.8107 89.6939C50.7337 92.3029 46.745 93.8765 42.3918 93.8765C37.7465 93.8765 33.5246 92.0864 30.3673 89.1639C27.2137 92.0864 22.9922 93.8765 18.3465 93.8765C8.58527 93.8765 0.671866 85.974 0.671868 76.2261C0.671869 68.3616 5.82166 61.7021 12.9384 59.42C12.2605 57.545 11.8872 55.5258 11.8872 53.4176C11.8872 43.6697 19.8048 35.7676 29.5661 35.7676C34.3092 35.7676 38.6155 37.6338 41.79 40.6712C43.4301 39.1017 45.3715 37.8461 47.5161 37.0023C49.5295 36.2048 51.7209 35.768 54.0139 35.768C63.7797 35.768 71.6931 43.6705 71.6931 53.418C71.6931 55.5262 71.3199 57.5454 70.6419 59.4204C77.7587 61.7021 82.9085 68.362 82.9085 76.2261Z" fill="#E8E8E8"/>
<path d="M168.37 55.678C168.37 69.0907 157.477 79.9666 144.045 79.9666C138.052 79.9666 132.567 77.799 128.329 74.2104C124.09 77.799 118.605 79.9666 112.612 79.9666C112.286 79.9666 111.959 79.9583 111.633 79.9453C105.627 79.7079 100.185 77.2941 96.0693 73.4806C91.7291 77.5019 85.9135 79.9662 79.5261 79.9662C66.0901 79.9662 55.2012 69.0902 55.2012 55.6776C55.2012 44.8568 62.2878 35.6904 72.0833 32.5468C71.1467 29.9679 70.638 27.1893 70.638 24.2882C70.6372 10.876 81.5261 4.6028e-06 94.9621 6.95203e-06C101.49 8.09332e-06 107.415 2.56634 111.785 6.74853C116.155 2.56634 122.08 1.16935e-05 128.608 1.28348e-05C142.044 1.5184e-05 152.933 10.876 152.933 24.2886C152.933 26.643 152.598 28.9205 151.966 31.0714C151.822 31.5717 151.661 32.0641 151.487 32.5477C161.283 35.6908 168.37 44.8573 168.37 55.678Z" fill="#E8E8E8"/>
<path d="M82.9093 76.2261C82.9093 83.2125 78.8446 89.2484 72.9529 92.1119C55.6511 89.0026 42.4863 73.8508 42.4863 55.6788C42.4863 48.9302 44.292 42.5291 47.5174 37.0018C49.5308 36.2044 51.7222 35.7676 54.0152 35.7676C63.781 35.7676 71.6944 43.6701 71.6944 53.4176C71.6944 55.5258 71.3212 57.545 70.6432 59.42C77.7595 61.7021 82.9093 68.362 82.9093 76.2261Z" fill="#E8E8E8"/>
<path d="M168.37 55.678C168.37 69.0907 157.477 79.9666 144.045 79.9666C138.052 79.9666 132.567 77.799 128.329 74.2104C124.09 77.799 118.605 79.9666 112.612 79.9666C112.286 79.9666 111.959 79.9583 111.633 79.9453C105.627 79.7079 100.185 77.2941 96.0693 73.4806C91.7291 77.5019 85.9135 79.9662 79.5261 79.9662C66.0901 79.9662 55.2012 69.0902 55.2012 55.6776C55.2012 44.8568 62.2878 35.6904 72.0833 32.5468C71.1467 29.9679 70.638 27.1893 70.638 24.2882C70.6372 10.876 81.5261 4.6028e-06 94.9621 6.95203e-06C101.49 8.09332e-06 107.415 2.56634 111.785 6.74853C116.155 2.56634 122.08 1.16935e-05 128.608 1.28348e-05C142.044 1.5184e-05 152.933 10.876 152.933 24.2886C152.933 26.643 152.598 28.9205 151.966 31.0714C151.822 31.5717 151.661 32.0641 151.487 32.5477C161.283 35.6908 168.37 44.8573 168.37 55.678Z" fill="#E8E8E8"/>
<path d="M198.241 68.9369C198.965 66.9377 199.36 64.7814 199.36 62.5328C199.36 52.1325 190.917 43.7012 180.501 43.7012C175.44 43.7012 170.844 45.6924 167.457 48.9329C164.07 45.6924 159.474 43.7012 154.413 43.7012C143.998 43.7012 135.554 52.1324 135.554 62.5328C135.554 64.7814 135.949 66.9377 136.673 68.9369C129.081 71.3715 123.586 78.4787 123.586 86.869C123.586 97.2693 132.029 105.701 142.445 105.701C147.399 105.701 151.906 103.792 155.272 100.672C158.637 103.792 163.144 105.701 168.098 105.701C172.745 105.701 176.997 104.022 180.284 101.24C183.571 104.022 187.824 105.701 192.47 105.701C202.885 105.701 211.329 97.2693 211.329 86.869C211.329 78.4787 205.833 71.3716 198.241 68.9369Z" fill="#E8E8E8"/>
<path d="M168.372 55.6774C168.372 69.09 157.478 79.966 144.047 79.966C138.053 79.966 132.569 77.7984 128.33 74.2097C124.091 77.7984 118.607 79.966 112.614 79.966C112.287 79.966 111.961 79.9576 111.635 79.9446C113.216 72.8396 117.196 66.5575 122.841 62.1037C123.062 45.7176 135.837 32.3092 151.969 31.0703C151.825 31.5706 151.664 32.063 151.49 32.5466C161.284 35.6901 168.372 44.8566 168.372 55.6774Z" fill="#E8E8E8"/>
<path d="M198.241 68.9369C198.965 66.9377 199.36 64.7814 199.36 62.5328C199.36 52.1325 190.917 43.7012 180.501 43.7012C175.44 43.7012 170.844 45.6924 167.457 48.9329C164.07 45.6924 159.474 43.7012 154.413 43.7012C143.998 43.7012 135.554 52.1324 135.554 62.5328C135.554 64.7814 135.949 66.9377 136.673 68.9369C129.081 71.3715 123.586 78.4787 123.586 86.869C123.586 97.2693 132.029 105.701 142.445 105.701C147.399 105.701 151.906 103.792 155.272 100.672C158.637 103.792 163.144 105.701 168.098 105.701C172.745 105.701 176.997 104.022 180.284 101.24C183.571 104.022 187.824 105.701 192.47 105.701C202.885 105.701 211.329 97.2693 211.329 86.869C211.329 78.4787 205.833 71.3716 198.241 68.9369Z" fill="#E8E8E8"/>
</svg>
