<svg width="104" height="214" viewBox="0 0 104 214" fill="none" xmlns="http://www.w3.org/2000/svg">
<path fill-rule="evenodd" clip-rule="evenodd" d="M55.3503 1.94669C53.8602 -0.648897 50.1357 -0.648897 48.6456 1.94669L37.9703 20.543L27.295 39.1392C25.8049 41.7348 27.6674 44.9791 30.6471 44.9791H37.2309L33.9757 50.6497L19.3008 76.2131C17.8108 78.8087 19.6732 82.053 22.6529 82.053H29.7293L11.211 114.312C9.72092 116.907 11.5834 120.151 14.5631 120.151H20.9332L13.5667 132.982L1.11413 154.679C-0.375509 157.275 1.48654 160.516 4.46541 160.516H43.0295L42.9354 207.556L9.36127 207.504H9.35626C7.60581 207.504 6.18555 208.925 6.18262 210.681C6.1797 212.438 7.5987 213.865 9.35124 213.867L94.6357 213.999H94.6407C96.3911 213.999 97.8114 212.578 97.8143 210.823C97.8172 209.066 96.3982 207.639 94.6457 207.636L60.7848 207.584L60.8789 160.516H99.5349C102.514 160.516 104.376 157.275 102.886 154.679L90.429 132.982L83.0655 120.151H89.4367C92.4164 120.151 94.2789 116.907 92.7888 114.312L74.2705 82.053H81.3525C84.3322 82.053 86.1946 78.8087 84.7046 76.2131L70.0297 50.6497L66.7744 44.9791H73.3488C76.3285 44.9791 78.191 41.7348 76.701 39.1392L66.0256 20.543L55.3503 1.94669Z" fill="#E8E8E8"/>
</svg>
