<svg width="174" height="214" viewBox="0 0 174 214" fill="none" xmlns="http://www.w3.org/2000/svg">
<path fill-rule="evenodd" clip-rule="evenodd" d="M25.3125 25.1582C23.3264 38.8949 26.6925 53.259 35.4147 64.8662C21.3932 67.1084 9.2071 74.8399 1.10638 85.7855C0.827597 86.1621 0.82927 86.6825 1.11056 87.057C10.8547 100.039 26.3734 108.415 43.8303 108.356C58.406 108.307 71.5906 102.387 81.1666 92.8391C71.9717 115.382 67.3995 185.794 66.9416 207.629H47.1223C45.3643 207.629 43.9395 209.055 43.9395 210.814C43.9395 212.574 45.3647 214 47.1223 214H126.88C128.637 214 130.062 212.574 130.062 210.814C130.062 209.055 128.637 207.629 126.879 207.629H107.063C106.604 185.759 102.017 115.153 92.7927 92.7292C102.35 102.314 115.533 108.274 130.122 108.356C147.579 108.453 163.116 100.112 172.888 87.1509C173.17 86.7768 173.173 86.2564 172.895 85.8794C164.687 74.737 152.252 66.9054 137.946 64.7778C147.1 53.0411 150.661 38.3476 148.631 24.3091C148.564 23.8447 148.196 23.4765 147.732 23.4092C134.067 21.4254 119.78 24.7717 108.217 33.452C105.786 19.9019 98.2433 8.13102 87.6631 0.21097C87.2873 -0.0703232 86.7661 -0.0703232 86.3904 0.21097C75.5955 8.29106 67.9632 20.3801 65.6944 34.2774C54.1368 25.6148 39.8636 22.2764 26.2115 24.2583C25.7476 24.3256 25.3798 24.6942 25.3125 25.1582Z" fill="#E8E8E8"/>
</svg>
