<svg width="214" height="214" viewBox="0 0 214 214" fill="none" xmlns="http://www.w3.org/2000/svg">
<g clip-path="url(#clip0)">
<path d="M83.0253 210.818L98.8492 155.643C104.742 139.276 93.5828 119.16 82.1484 111.702C60.6849 94.7011 36.6133 75.6337 37.3873 74.2916C37.8571 73.477 48.1872 77.9735 88.52 99.4546C89.4098 99.9286 90.502 99.7773 91.2276 99.0772C93.7897 96.6053 96.4104 93.7874 98.9796 90.5862C108.604 78.593 113.437 66.2842 115.986 57.2022C116.667 66.392 116.373 79.9275 111.064 94.8958C109.422 99.5244 107.528 103.65 105.586 107.271C105.024 108.32 105.337 109.623 106.32 110.294C109.186 112.253 112.053 114.211 114.92 116.17C115.88 116.826 117.179 116.674 117.955 115.806C122.609 110.595 128.978 104.603 137.389 99.2055C156.605 86.875 175.689 84.5703 185.724 84.1227C167.644 92.4846 155.474 102.535 148.178 109.548C133.719 123.446 131.575 131.974 130.916 135.835C129.588 143.61 131.348 149.625 132.642 154.366C136.7 169.222 141.453 195.736 144.564 210.819L83.0253 210.819L83.0253 210.818Z" fill="#E19974"/>
<path d="M153.494 98.3584C148.172 101.774 143.667 105.427 139.897 108.97C135.421 113.177 128.613 113.675 123.541 110.21L123.448 110.146C121.403 112.089 119.572 113.995 117.954 115.806C117.178 116.675 115.875 116.825 114.913 116.168C112.048 114.211 109.183 112.253 106.318 110.296C105.335 109.624 105.023 108.322 105.585 107.272C107.526 103.652 109.421 99.5262 111.062 94.8977C111.154 94.6381 111.241 94.3802 111.33 94.1219C111.313 94.1411 111.295 94.1604 111.278 94.1796C108.384 97.3415 103.701 98.1131 99.916 96.1052C98.5919 95.4026 97.3029 94.72 96.0482 94.0571C94.4361 95.8711 92.8198 97.5426 91.2261 99.0798C90.5009 99.7795 89.4079 99.9304 88.5185 99.4569C83.515 96.7919 78.9741 94.389 74.8555 92.2243C82.0955 98.0567 90.3508 104.596 98.2538 110.856C109.605 118.134 120.894 138.664 114.955 154.796L99.1302 209.972L144.388 209.972C141.276 194.762 136.623 168.952 132.64 154.367C131.345 149.627 129.586 143.611 130.913 135.837C131.573 131.976 133.717 123.448 148.176 109.55C154.832 103.153 165.546 94.2277 181.101 86.3623C172.674 88.5349 163.1 92.1938 153.494 98.3584Z" fill="#D77F4A"/>
<path d="M165.37 213.999L57.32 213.999C55.5792 213.999 54.0615 212.657 54.0093 210.916C53.9554 209.114 55.3986 207.637 57.1867 207.637L165.236 207.637C166.977 207.637 168.495 208.979 168.547 210.72C168.601 212.522 167.158 213.999 165.37 213.999Z" fill="#E19974"/>
<path d="M83.9085 76.2261C83.9085 83.2125 79.8437 89.2484 73.952 92.1119C71.621 93.2404 69.0012 93.8765 66.2338 93.8765C61.8807 93.8765 57.8924 92.3029 54.8107 89.6939C51.7337 92.3029 47.745 93.8765 43.3918 93.8765C38.7465 93.8765 34.5246 92.0864 31.3673 89.1639C28.2137 92.0864 23.9922 93.8765 19.3465 93.8765C9.58527 93.8765 1.67187 85.974 1.67187 76.2261C1.67187 68.3616 6.82166 61.7021 13.9384 59.42C13.2605 57.545 12.8872 55.5258 12.8872 53.4176C12.8872 43.6697 20.8048 35.7676 30.5661 35.7676C35.3092 35.7676 39.6155 37.6338 42.79 40.6712C44.4301 39.1017 46.3715 37.8461 48.5161 37.0023C50.5295 36.2048 52.7209 35.768 55.0139 35.768C64.7797 35.768 72.6931 43.6705 72.6931 53.418C72.6931 55.5262 72.3199 57.5454 71.6419 59.4204C78.7587 61.7021 83.9085 68.362 83.9085 76.2261Z" fill="#ADE194"/>
<path d="M169.37 55.678C169.37 69.0907 158.477 79.9666 145.045 79.9666C139.052 79.9666 133.567 77.799 129.329 74.2104C125.09 77.799 119.605 79.9666 113.612 79.9666C113.286 79.9666 112.959 79.9583 112.633 79.9453C106.627 79.7079 101.185 77.2941 97.0693 73.4806C92.7291 77.5019 86.9135 79.9662 80.5261 79.9662C67.0901 79.9662 56.2012 69.0902 56.2012 55.6776C56.2012 44.8568 63.2878 35.6904 73.0833 32.5468C72.1467 29.9679 71.638 27.1893 71.638 24.2882C71.6372 10.876 82.5261 4.6028e-06 95.9621 6.95203e-06C102.49 8.09332e-06 108.415 2.56634 112.785 6.74853C117.155 2.56634 123.08 1.16935e-05 129.608 1.28348e-05C143.044 1.5184e-05 153.933 10.876 153.933 24.2886C153.933 26.643 153.598 28.9205 152.966 31.0714C152.822 31.5717 152.661 32.0641 152.487 32.5477C162.283 35.6908 169.37 44.8573 169.37 55.678Z" fill="#80D261"/>
<path d="M83.9093 76.2261C83.9093 83.2125 79.8446 89.2484 73.9529 92.1119C56.6511 89.0026 43.4863 73.8508 43.4863 55.6788C43.4863 48.9302 45.292 42.5291 48.5174 37.0018C50.5308 36.2044 52.7222 35.7676 55.0152 35.7676C64.781 35.7676 72.6944 43.6701 72.6944 53.4176C72.6944 55.5258 72.3212 57.545 71.6432 59.42C78.7595 61.7021 83.9093 68.362 83.9093 76.2261Z" fill="#80D261"/>
<path d="M169.37 55.678C169.37 69.0907 158.477 79.9666 145.045 79.9666C139.052 79.9666 133.567 77.799 129.329 74.2104C125.09 77.799 119.605 79.9666 113.612 79.9666C113.286 79.9666 112.959 79.9583 112.633 79.9453C106.627 79.7079 101.185 77.2941 97.0693 73.4806C92.7291 77.5019 86.9135 79.9662 80.5261 79.9662C67.0901 79.9662 56.2012 69.0902 56.2012 55.6776C56.2012 44.8568 63.2878 35.6904 73.0833 32.5468C72.1467 29.9679 71.638 27.1893 71.638 24.2882C71.6372 10.876 82.5261 4.6028e-06 95.9621 6.95203e-06C102.49 8.09332e-06 108.415 2.56634 112.785 6.74853C117.155 2.56634 123.08 1.16935e-05 129.608 1.28348e-05C143.044 1.5184e-05 153.933 10.876 153.933 24.2886C153.933 26.643 153.598 28.9205 152.966 31.0714C152.822 31.5717 152.661 32.0641 152.487 32.5477C162.283 35.6908 169.37 44.8573 169.37 55.678Z" fill="#97DA7B"/>
<path d="M199.241 68.9369C199.965 66.9377 200.36 64.7814 200.36 62.5328C200.36 52.1325 191.917 43.7012 181.501 43.7012C176.44 43.7012 171.844 45.6924 168.457 48.9329C165.07 45.6924 160.474 43.7012 155.413 43.7012C144.998 43.7012 136.554 52.1324 136.554 62.5328C136.554 64.7814 136.949 66.9377 137.673 68.9369C130.081 71.3715 124.586 78.4787 124.586 86.869C124.586 97.2693 133.029 105.701 143.445 105.701C148.399 105.701 152.906 103.792 156.272 100.672C159.637 103.792 164.144 105.701 169.098 105.701C173.745 105.701 177.997 104.022 181.284 101.24C184.571 104.022 188.824 105.701 193.47 105.701C203.885 105.701 212.329 97.2693 212.329 86.869C212.329 78.4787 206.833 71.3716 199.241 68.9369Z" fill="#ADE194"/>
<path d="M169.372 55.6774C169.372 69.09 158.478 79.966 145.047 79.966C139.053 79.966 133.569 77.7984 129.33 74.2097C125.091 77.7984 119.607 79.966 113.614 79.966C113.287 79.966 112.961 79.9576 112.635 79.9446C114.216 72.8396 118.196 66.5575 123.841 62.1037C124.062 45.7176 136.837 32.3092 152.969 31.0703C152.825 31.5706 152.664 32.063 152.49 32.5466C162.284 35.6901 169.372 44.8566 169.372 55.6774Z" fill="#80D261"/>
<path d="M199.241 68.9369C199.965 66.9377 200.36 64.7814 200.36 62.5328C200.36 52.1325 191.917 43.7012 181.501 43.7012C176.44 43.7012 171.844 45.6924 168.457 48.9329C165.07 45.6924 160.474 43.7012 155.413 43.7012C144.998 43.7012 136.554 52.1324 136.554 62.5328C136.554 64.7814 136.949 66.9377 137.673 68.9369C130.081 71.3715 124.586 78.4787 124.586 86.869C124.586 97.2693 133.029 105.701 143.445 105.701C148.399 105.701 152.906 103.792 156.272 100.672C159.637 103.792 164.144 105.701 169.098 105.701C173.745 105.701 177.997 104.022 181.284 101.24C184.571 104.022 188.824 105.701 193.47 105.701C203.885 105.701 212.329 97.2693 212.329 86.869C212.329 78.4787 206.833 71.3716 199.241 68.9369Z" fill="#ADE194"/>
<circle cx="127" cy="18" r="8" fill="#FF586C"/>
<circle cx="111" cy="52" r="8" fill="#FF586C"/>
<circle cx="51" cy="92" r="8" fill="#FF586C"/>
<circle cx="149" cy="26" r="8" fill="#FF586C"/>
<circle cx="35" cy="64" r="8" fill="#FF586C"/>
<circle cx="19" cy="88" r="8" fill="#FF586C"/>
<circle cx="169" cy="104" r="8" fill="#FF586C"/>
<circle cx="200" cy="71" r="8" fill="#FF586C"/>
<circle cx="188" cy="48" r="8" fill="#FF586C"/>
<circle cx="198" cy="102" r="8" fill="#FF586C"/>
<circle cx="178" cy="78" r="8" fill="#FF586C"/>
<circle cx="152" cy="67" r="8" fill="#FF586C"/>
<circle cx="128" cy="94" r="8" fill="#FF586C"/>
<circle cx="95" cy="75" r="8" fill="#FF586C"/>
<circle cx="108" cy="8" r="8" fill="#FF586C"/>
<circle cx="88" cy="18" r="8" fill="#FF586C"/>
<circle cx="80" cy="52" r="8" fill="#FF586C"/>
<circle cx="56" cy="51" r="8" fill="#FF586C"/>
<circle cx="19" cy="44" r="8" fill="#FF586C"/>
</g>
<defs>
<clipPath id="clip0">
<rect width="214" height="214" fill="white"/>
</clipPath>
</defs>
</svg>
