<svg width="80" height="76" viewBox="0 0 80 76" fill="none" xmlns="http://www.w3.org/2000/svg">
<path d="M7.18456 74.5843C7.18925 71.6784 7.61112 66.8646 10.1293 61.6701C12.576 56.6215 15.841 53.6156 17.6457 51.9873C20.6285 49.2925 23.2258 47.8498 29.0628 44.9057C31.1528 43.8518 32.9447 42.9631 34.4971 42.2076C36.0225 41.3743 36.6394 40.2539 36.4253 38.7715C36.1019 36.5273 34.8127 33.8976 33.7105 30.379C32.9049 27.8032 32.1977 24.7512 32.0455 21.0247C33.2571 24.4481 35.653 27.5572 37.7985 30.4139C39.7061 32.9578 41.4139 35.3017 41.9014 37.4859C42.0338 38.0787 42.6905 38.3895 43.2427 38.1375C45.0886 37.2947 45.6683 36.9953 47.2732 35.9465C49.4614 34.5165 51.9939 32.5248 54.5771 29.6679C56.7416 27.2729 58.9425 24.2703 61.0024 20.4834C60.7313 24.3273 59.856 27.7031 58.5841 30.6678C53.7857 41.8568 43.3389 47.2228 38.3105 49.9637C38.2994 49.9701 38.2868 49.9764 38.2741 49.9843C37.2275 50.5462 30.3757 53.9314 25.4107 57.6595C23.5078 59.0879 21.2402 61.6621 20.6646 63.2239C18.6222 68.7532 21.4463 71.3545 21.0008 74.605L7.18456 74.5843Z" fill="#E19974"/>
<path d="M57.9454 32.0479C56.1907 33.6861 54.5033 34.9524 52.9825 35.9461C51.9779 36.6025 51.3749 36.9655 50.6116 37.3519C49.3005 38.0155 47.7174 37.4202 47.1404 36.0679C47.1365 36.0588 47.1325 36.0497 47.1286 36.0405C45.6343 37.0119 45.0316 37.3207 43.2436 38.1369C42.684 38.3924 42.034 38.0669 41.8979 37.4666C41.7902 36.9916 41.6224 36.5085 41.4102 36.0179C41.7488 37.0096 42.0116 37.9185 42.1344 38.7711C42.3485 40.2535 41.8633 41.3724 40.5947 42.4833C39.1675 43.9118 37.8133 44.3275 35.7235 45.3813C29.8863 48.3254 27.289 49.768 24.3063 52.4629C22.5016 54.0913 18.2852 56.6211 15.8385 61.6696C13.3204 66.8641 12.8985 71.6777 12.8938 74.5838L21.0025 74.596C21.4421 71.3496 18.6247 68.748 20.6654 63.2235C21.241 61.6618 23.5086 59.0875 25.4115 57.6591C30.3765 53.931 37.2283 50.5457 38.2749 49.984C38.2875 49.976 38.3004 49.9697 38.3113 49.9633C43.1277 47.338 52.9119 42.3005 57.9454 32.0479Z" fill="#D77F4A"/>
<path d="M79.9996 21.4117C79.9996 26.5253 75.8545 30.6708 70.739 30.6708C68.4587 30.6708 66.3703 29.8455 64.756 28.4773C63.1417 29.8455 61.055 30.6708 58.7731 30.6708C57.4568 30.6708 56.2057 30.3963 55.0735 29.9027C54.1095 29.482 53.2326 28.9028 52.4745 28.1981C50.8221 29.7328 48.6101 30.6708 46.1776 30.6708C41.0637 30.6708 36.917 26.5253 36.917 21.4117C36.917 17.2869 39.6159 13.792 43.3439 12.5955C42.9871 11.6114 42.7937 10.5513 42.7937 9.44672C42.7937 7.12797 43.6453 5.00766 45.055 3.38406C46.7517 1.42547 49.2587 0.187502 52.0543 0.187503C54.5392 0.187503 56.7956 1.16672 58.4592 2.76016C60.1211 1.16672 62.3775 0.187504 64.8639 0.187505C69.9778 0.187506 74.1229 4.33298 74.1229 9.44657C74.1229 10.5513 73.9295 11.6114 73.5726 12.5953C77.3007 13.792 79.9996 17.2869 79.9996 21.4117Z" fill="#80D261"/>
<path d="M56.9051 23.5683C56.9051 25.895 56.2343 28.0677 55.0736 29.9024C54.1095 29.4818 53.2326 28.9025 52.4745 28.1979C50.8221 29.7325 48.6101 30.6705 46.1776 30.6705C41.0637 30.6705 36.917 26.525 36.917 21.4114C36.917 17.2866 39.6159 13.7918 43.3439 12.5952C42.9872 11.6111 42.7937 10.551 42.7937 9.44645C42.7937 7.1277 43.6453 5.00738 45.055 3.38379C49.3159 5.15817 52.3287 9.34332 52.3826 14.2268C55.1878 16.4311 56.9051 19.8355 56.9051 23.5683Z" fill="#68CA44"/>
<path d="M32.5959 75.8127C32.5953 75.8127 32.5947 75.8127 32.5941 75.8127L1.1875 75.7644C0.530783 75.7633 -0.00109239 75.2297 1.47608e-06 74.5722C0.00109534 73.9155 0.533283 73.3838 1.18922 73.3838L1.1911 73.3838L32.5978 73.4322C33.2545 73.4333 33.7864 73.9669 33.7853 74.6244C33.7842 75.281 33.252 75.8127 32.5959 75.8127Z" fill="#E19974"/>
<path d="M47.2034 16.7841C47.477 16.0277 47.6263 15.212 47.6263 14.3612C47.6263 10.4262 44.436 7.23633 40.5007 7.23633C38.5884 7.23633 36.8521 7.98977 35.5721 9.21571C34.2923 7.98977 32.556 7.23633 30.6435 7.23633C26.7082 7.23633 23.5179 10.4262 23.5179 14.3612C23.5179 15.212 23.6673 16.0277 23.9408 16.7841C21.0723 17.7052 18.9958 20.3943 18.9958 23.5687C18.9958 27.5037 22.1862 30.6935 26.1215 30.6935C27.9933 30.6935 29.6962 29.9715 30.9679 28.7912C32.2394 29.9715 33.9424 30.6935 35.8143 30.6935C37.5698 30.6935 39.1766 30.0584 40.4185 29.006C41.6604 30.0585 43.2673 30.6935 45.0227 30.6935C48.958 30.6935 52.1484 27.5037 52.1484 23.5687C52.1485 20.3943 50.0721 17.7052 47.2034 16.7841Z" fill="#ADE194"/>
<path d="M47.1973 16.7491C47.4685 15.9919 47.6155 15.1756 47.6129 14.3248C47.601 10.3898 44.401 7.20969 40.4657 7.22172C38.5533 7.2275 36.8193 7.98625 35.5432 9.21609C34.2596 7.99406 32.521 7.24594 30.6087 7.25172C26.6733 7.26375 23.4927 10.4633 23.5046 14.3981C23.5072 15.2489 23.6591 16.0642 23.9349 16.8198C21.0691 17.7497 19.0008 20.445 19.0105 23.6194C19.0224 27.5544 22.2224 30.7345 26.1577 30.7225C28.0296 30.7169 29.7302 29.9895 30.9982 28.8055C32.2733 29.9819 33.9785 30.6987 35.8502 30.693C37.6057 30.6877 39.2107 30.0477 40.4493 28.9914C41.6944 30.0402 43.3032 30.6703 45.0587 30.665C48.994 30.653 52.1746 27.4534 52.1627 23.5186C52.1532 20.3442 50.0687 17.6616 47.1973 16.7491Z" fill="#ADE194"/>
</svg>
