<svg width="40" height="80" viewBox="0 0 40 80" fill="none" xmlns="http://www.w3.org/2000/svg">
<path d="M16.6562 55.1123L23.3289 55.1257L23.2815 78.8113L16.6089 78.7979L16.6562 55.1123Z" fill="#E19974"/>
<path d="M16.6806 55.0957L16.6782 64.9321C18.617 64.9351 20.1857 66.5141 20.181 68.4577L20.1559 78.7868L23.317 78.7916L23.3532 55.106L16.6806 55.0957Z" fill="#D77F4A"/>
<path d="M35.9401 80.0002C35.9395 80.0002 35.9389 80.0002 35.9383 80.0002L4.05624 79.9509C3.40108 79.9499 2.87061 79.4165 2.87171 78.7598C2.8728 78.1035 3.40374 77.5723 4.05811 77.5723H4.05999L35.942 77.6216C36.5972 77.6226 37.1276 78.156 37.1265 78.8127C37.1255 79.469 36.5945 80.0002 35.9401 80.0002Z" fill="#E19974"/>
<path d="M37.7697 60.0055H2.22969C1.1161 60.0055 0.420004 58.7939 0.976879 57.8235L5.63204 49.7125L9.86188 42.3452L18.7469 26.8685C19.3038 25.898 20.6956 25.898 21.2525 26.8685L30.1375 42.3452L34.3656 49.7125L39.0225 57.8235C39.5794 58.7941 38.8833 60.0055 37.7697 60.0055Z" fill="#ADE194"/>
<path d="M37.7692 60.0055H33.5964L30.2651 53.0394C29.0836 50.9811 26.8959 49.7125 24.5264 49.7125H5.63171L9.86156 42.3452L18.7466 26.8685C19.3034 25.898 20.6953 25.898 21.2522 26.8685L30.1372 42.3452L34.3653 49.7125L39.0222 57.8235C39.5789 58.7941 38.8828 60.0055 37.7692 60.0055Z" fill="#80D261"/>
<path d="M18.7462 18.3547C19.3033 17.3844 20.6956 17.3844 21.2526 18.3547L28.2501 30.5442L35.2476 42.7337C35.8047 43.7041 35.1084 44.9169 33.9945 44.9169H6.00436C4.89045 44.9169 4.1942 43.7041 4.75123 42.7337L11.7487 30.5442L18.7462 18.3547Z" fill="#ADE194"/>
<path d="M35.2477 42.7328L28.2501 30.5432L21.2528 18.3537C20.6958 17.3834 19.3033 17.3834 18.7464 18.3537L11.7491 30.5432L9.21655 34.9548H19.9995H21.2423C23.6394 34.9548 25.8555 36.2329 27.0601 38.3103L30.9139 44.9551L33.9944 44.9157C35.1084 44.9159 35.8045 43.7031 35.2477 42.7328Z" fill="#80D261"/>
<path d="M18.747 9.37813C19.304 8.40781 20.6964 8.40781 21.2534 9.37813L26.7393 18.9345L32.2253 28.4909C32.7823 29.4613 32.0861 30.6741 30.9722 30.6741H20.0001H9.02841C7.9145 30.6741 7.21825 29.4613 7.77528 28.4909L13.2612 18.9345L18.747 9.37813Z" fill="#ADE194"/>
<path d="M32.2249 28.4908L28.1084 21.3197L26.7392 18.9345L21.2534 9.37813C20.6963 8.40781 19.3038 8.40781 18.747 9.37813L13.2612 18.9345L11.892 21.3197C11.934 21.3233 20.2082 21.3283 20.2082 21.3283C21.6738 21.3283 23.0278 22.1133 23.7588 23.3867L26.6888 28.4909C27.2459 29.4613 27.4348 29.8913 27.9665 30.6741H30.972C32.0857 30.6738 32.782 29.4609 32.2249 28.4908Z" fill="#80D261"/>
<path d="M18.746 0.727734C19.303 -0.242578 20.6953 -0.242578 21.2524 0.727734L25.2432 7.67961L29.2339 14.6315C29.791 15.6018 29.0947 16.8146 27.9808 16.8146H19.9991H12.0175C10.9036 16.8146 10.2074 15.6018 10.7644 14.6315L14.7552 7.67961L18.746 0.727734Z" fill="#ADE194"/>
</svg>
