<svg width="66" height="80" viewBox="0 0 66 80" fill="none" xmlns="http://www.w3.org/2000/svg">
<path d="M33.0603 32.0902V32.084C33.0405 32.084 33.0205 32.0862 33.0007 32.0871C32.9808 32.086 32.961 32.084 32.941 32.084V32.0902C27.8499 32.6249 25.4871 71.3191 25.4871 78.8093H32.941H33.0603H40.5143C40.5143 71.3191 38.1513 32.6249 33.0603 32.0902Z" fill="#E19974"/>
<path d="M24.7737 16.0553C24.7737 22.7011 28.0204 28.5859 33.0101 32.207C37.9998 28.5859 41.2465 22.7009 41.2465 16.0553C41.2465 9.51574 38.1027 3.71293 33.2481 0.0788672C33.1076 -0.0262891 32.9127 -0.0262891 32.7723 0.0788672C27.9174 3.71277 24.7737 9.51574 24.7737 16.0553Z" fill="#4FC123"/>
<path d="M15.5565 26.3704C20.2457 31.0696 26.9168 33.1868 33.0001 32.2115C33.9732 26.1152 31.8937 19.3968 27.2044 14.6975C22.5901 10.0733 16.2724 8.1977 10.2754 9.06833C10.1019 9.09348 9.96444 9.23129 9.93928 9.40473C9.07037 15.4147 10.9419 21.746 15.5565 26.3704Z" fill="#80D261"/>
<path d="M38.7743 14.3802C34.0851 19.0794 32.0265 26.1156 32.9996 32.2119C39.0829 33.1872 45.7329 30.7522 50.4223 26.0528C55.0368 21.4284 56.9084 15.0973 56.0395 9.08735C56.0143 8.91375 55.8768 8.7761 55.7034 8.75094C49.7062 7.88032 43.3887 9.75594 38.7743 14.3802Z" fill="#80D261"/>
<path d="M49.2124 23.9993C42.5809 23.9623 36.6904 27.1829 33.0493 32.1631C36.6348 37.1836 42.4892 40.4698 49.1207 40.5068C55.6467 40.5432 61.4548 37.425 65.1081 32.5798C65.2135 32.44 65.2146 32.2454 65.1107 32.1045C61.5117 27.2187 55.7384 24.0357 49.2124 23.9993Z" fill="#ADE194"/>
<path d="M16.8063 23.9991C23.4379 23.9766 29.3213 27.2104 32.9515 32.1985C29.3549 37.211 23.4935 40.4844 16.8618 40.5068C10.3359 40.5288 4.53446 37.3977 0.891799 32.5446C0.786643 32.4046 0.786018 32.2101 0.890236 32.0693C4.50024 27.1915 10.2805 24.0212 16.8063 23.9991Z" fill="#ADE194"/>
<path d="M47.9086 79.9997H18.0927C17.4356 79.9997 16.9028 79.4668 16.9028 78.8089C16.9028 78.1513 17.4355 77.6182 18.0927 77.6182H47.9085C48.5655 77.6182 49.0983 78.1511 49.0983 78.8089C49.0983 79.4668 48.5656 79.9997 47.9086 79.9997Z" fill="#E19974"/>
<path d="M39.5424 61.3999C39.2054 57.4185 38.7788 53.2312 38.2607 49.3066C36.8329 49.766 35.1541 50.1226 33.258 50.2016C31.1821 50.2874 29.3187 50.0221 27.7199 49.6057L27.6998 49.6127C27.1829 53.5762 26.759 57.7932 26.4255 61.7863L26.4416 61.7829C28.2908 62.4012 30.5999 62.8668 33.2548 62.7571C35.7524 62.6526 37.878 62.0679 39.5424 61.3999Z" fill="#D77F4A"/>
</svg>
