<svg width="42" height="80" viewBox="0 0 42 80" fill="none" xmlns="http://www.w3.org/2000/svg">
<path d="M16.9701 56.4824H25.0307V78.8109H16.9701V56.4824Z" fill="#E19974"/>
<path d="M24.1724 56.4824H21.2229H16.9701V63.6656L16.9715 63.667C17.2418 63.6693 17.5087 63.6565 17.7713 63.6295C19.6112 63.4402 21.2229 64.8449 21.2229 66.6935V78.8109H25.0309V56.4824H24.1724Z" fill="#D77F4A"/>
<path d="M35.2623 80H16.7382C16.3306 80 16.0002 79.5523 16.0002 78.9999C16.0002 78.4476 16.3306 78 16.7382 78H35.2623C35.6698 78 36.0002 78.4477 36.0002 79.0001C36.0002 79.5523 35.6699 80 35.2623 80Z" fill="#E19974"/>
<path d="M35.4786 21.9662C36.2761 20.0631 36.7127 17.9717 36.7025 15.7771C36.6629 7.17886 29.6621 0.118857 21.055 0.00151339C12.189 -0.119424 4.96364 7.02339 4.96364 15.852C4.96364 18.0821 5.4252 20.2043 6.25755 22.1292C6.71645 23.1906 6.53567 24.4243 5.75911 25.2817C2.51723 28.861 0.52114 33.5876 0.455047 38.779C0.311297 50.049 9.42536 59.411 20.7079 59.5678C32.1894 59.7273 41.5471 50.4781 41.5471 39.0457C41.5471 33.6434 39.4568 28.7295 36.0408 25.0648C35.2646 24.2321 35.0388 23.0157 35.4786 21.9662Z" fill="#7ACAA6"/>
<path d="M36.0408 25.0646C35.2647 24.2319 35.0389 23.0155 35.4786 21.966C36.2761 20.0629 36.7127 17.9714 36.7025 15.7769C36.6682 8.34379 31.4311 2.06129 24.4518 0.418945C28.746 5.80879 31.3133 12.6339 31.3133 20.0591C31.3133 35.863 19.6889 48.953 4.51941 51.2555C8.21425 56.2127 14.0871 59.4755 20.7078 59.5675C32.1894 59.7271 41.5471 50.4779 41.5471 39.0455C41.5471 33.6432 39.4568 28.7293 36.0408 25.0646Z" fill="#57BE92"/>
</svg>
