<svg width="64" height="80" viewBox="0 0 64 80" fill="none" xmlns="http://www.w3.org/2000/svg">
<path d="M55.393 42.2215H51.4441C50.7758 42.2215 50.2342 42.7631 50.2342 43.4312V55.5376C50.2342 56.8424 49.1763 57.9001 47.8713 57.9001H36.6549C35.9147 57.9001 35.3145 57.3001 35.3145 56.5601V22.1035H28.9459V62.8876C28.9459 63.6277 28.346 64.2276 27.6056 64.2276H16.286C14.9808 64.2276 13.9228 63.1698 13.9228 61.8649V49.7587C13.9228 49.0906 13.3811 48.5491 12.713 48.5491H8.76392C8.0958 48.5491 7.55408 49.0907 7.55408 49.7587V63.2951C7.55408 67.3118 10.8081 70.5695 14.8255 70.5746L27.6074 70.5909C28.3469 70.5918 28.9459 71.1915 28.9459 71.9309V78.8102H35.3145V65.6034C35.3145 64.864 35.9136 64.2643 36.6531 64.2634L49.3316 64.2473C53.3489 64.2421 56.603 60.9845 56.603 56.9677V43.4313C56.6028 42.763 56.0613 42.2215 55.393 42.2215Z" fill="#E19974"/>
<path d="M7.8247 57.9043C9.4408 57.9043 10.7508 59.2141 10.7508 60.8299V61.5862C10.7508 64.7963 13.3536 67.3987 16.5642 67.3987H22.6019C24.3538 67.3987 25.7739 65.9788 25.7739 64.2273H16.286C14.9808 64.2273 13.9228 63.1695 13.9228 61.8646V49.7584C13.9228 49.0902 13.3811 48.5488 12.713 48.5488H8.76392C8.0958 48.5488 7.55408 49.0904 7.55408 49.7585V57.9048H7.8247V57.9043Z" fill="#D77F4A"/>
<path d="M32.1424 30.5493V59.7315C32.1424 60.4716 32.7424 61.0715 33.4828 61.0715H43.8903C45.6421 61.0715 47.0623 59.6516 47.0623 57.9001H36.6549C35.9148 57.9001 35.3146 57.3001 35.3146 56.5601V22.1035H28.946V27.3534C30.7114 27.3532 32.1424 28.7841 32.1424 30.5493Z" fill="#D77F4A"/>
<path d="M35.3145 67.4316C33.562 67.4338 32.1425 68.8549 32.1425 70.6071V78.8094H35.3145V67.4316Z" fill="#D77F4A"/>
<path d="M55.3929 42.2217H51.444C50.7757 42.2217 50.2341 42.7632 50.2341 43.4314V50.4675C51.9996 50.4675 53.4308 51.8984 53.4308 53.6636V60.1392C53.4308 61.3318 53.1421 62.4565 52.6335 63.4501C54.9894 62.2446 56.6027 59.7951 56.6027 56.9678V43.4312C56.6027 42.7632 56.0612 42.2217 55.3929 42.2217Z" fill="#D77F4A"/>
<path d="M48.0943 79.9997H15.9052C15.2484 79.9997 14.7157 79.4673 14.7157 78.8103C14.7157 78.1533 15.2482 77.6211 15.9052 77.6211H48.0943C48.7512 77.6211 49.2838 78.1534 49.2838 78.8103C49.2838 79.4672 48.7512 79.9997 48.0943 79.9997Z" fill="#E19974"/>
<path d="M32.109 0C25.7821 0 20.6531 4.97109 20.6531 11.1033V21.8673C20.6531 23.9517 22.3965 25.6414 24.547 25.6414C26.3765 25.6414 27.9106 24.4181 28.3281 22.7697C28.7456 24.4181 30.2796 25.6414 32.1092 25.6414C33.9387 25.6414 35.4728 24.4181 35.8903 22.7697C36.3078 24.4181 37.8418 25.6414 39.6714 25.6414C41.8218 25.6414 43.5653 23.9517 43.5653 21.8673V11.1033C43.565 4.97109 38.4359 0 32.109 0V0Z" fill="#FD8087"/>
<path d="M53.4525 24.9414C47.8258 24.9414 43.2644 29.5017 43.2644 35.127V45.0016C43.2644 46.9136 44.8149 48.4638 46.7274 48.4638C48.3544 48.4638 49.7188 47.3416 50.09 45.8294C50.4613 47.3416 51.8255 48.4638 53.4527 48.4638C55.0797 48.4638 56.4441 47.3416 56.8153 45.8294C57.1866 47.3416 58.5508 48.4638 60.178 48.4638C62.0905 48.4638 63.641 46.9138 63.641 45.0016V35.127C63.6407 29.5017 59.0792 24.9414 53.4525 24.9414Z" fill="#FD8087"/>
<path d="M10.7723 32.3545C5.02141 32.3545 0.359375 37.0154 0.359375 42.765V52.8575C0.359375 54.8117 1.94406 56.3961 3.89875 56.3961C5.56172 56.3961 6.95609 55.2492 7.33563 53.7036C7.715 55.2492 9.10953 56.3961 10.7725 56.3961C12.4355 56.3961 13.8298 55.2492 14.2094 53.7036C14.5887 55.2492 15.9833 56.3961 17.6462 56.3961C19.6009 56.3961 21.1856 54.8118 21.1856 52.8575V42.765C21.1855 37.0154 16.5233 32.3545 10.7723 32.3545Z" fill="#FD8087"/>
<path d="M20.656 21.9979C20.7273 24.0215 22.4413 25.641 24.5465 25.641C26.376 25.641 27.9101 24.4177 28.3274 22.7693C28.7449 24.4177 30.279 25.641 32.1085 25.641C33.938 25.641 35.4721 24.4177 35.8896 22.7693C36.3071 24.4177 37.8412 25.641 39.6707 25.641C41.8212 25.641 43.5646 23.9513 43.5646 21.867V11.1029C43.5646 10.0915 43.4224 9.11273 43.161 8.18164C38.3501 15.8385 30.1458 21.1462 20.656 21.9979Z" fill="#FE646F"/>
<path d="M43.2644 44.1378V45.0012C43.2644 46.9133 44.8149 48.4633 46.7274 48.4633C48.3544 48.4633 49.7188 47.3412 50.0899 45.8289C50.4611 47.3411 51.8253 48.4633 53.4525 48.4633C55.0796 48.4633 56.4439 47.3412 56.8152 45.8289C57.1864 47.3411 58.5507 48.4633 60.1777 48.4633C62.0902 48.4633 63.6406 46.9133 63.6406 45.0012V35.1267C63.6406 33.9684 63.4446 32.8567 63.0883 31.8193C58.5303 38.3057 51.4464 42.8892 43.2644 44.1378Z" fill="#FE646F"/>
<path d="M0.359375 51.7512V52.8577C0.359375 54.8119 1.94406 56.3962 3.89875 56.3962C5.56172 56.3962 6.95609 55.2494 7.33563 53.7037C7.715 55.2494 9.10953 56.3962 10.7725 56.3962C12.4355 56.3962 13.8298 55.2494 14.2094 53.7037C14.5887 55.2494 15.9833 56.3962 17.6462 56.3962C19.6011 56.3962 21.1856 54.812 21.1856 52.8577V42.7652C21.1856 42.5539 21.1773 42.3448 21.165 42.1367C15.9619 47.8059 8.58766 51.4492 0.359375 51.7512Z" fill="#FE646F"/>
</svg>
