<svg width="80" height="80" viewBox="0 0 80 80" fill="none" xmlns="http://www.w3.org/2000/svg">
<path d="M31.037 78.8103L36.9524 58.1841C39.1554 52.0657 34.9837 44.5455 30.7092 41.7577C22.6854 35.4021 13.6867 28.2741 13.976 27.7724C14.1517 27.4678 18.0134 29.1488 33.091 37.1791C33.4237 37.3563 33.832 37.2997 34.1032 37.038C35.061 36.1139 36.0407 35.0605 37.0012 33.8638C40.5992 29.3804 42.4059 24.7789 43.3587 21.3838C43.6132 24.8193 43.5032 29.8793 41.5185 35.4749C40.9048 37.2052 40.1967 38.7475 39.471 40.101C39.2607 40.4933 39.3776 40.9802 39.7451 41.2313C40.8168 41.9635 41.8884 42.6957 42.9601 43.4279C43.3192 43.6732 43.8048 43.6161 44.0946 43.2918C45.8348 41.3436 48.2154 39.1038 51.3599 37.086C58.5432 32.4765 65.6776 31.6149 69.4292 31.4475C62.6701 34.5735 58.1207 38.3307 55.3932 40.9524C49.9879 46.148 49.1865 49.336 48.9399 50.7794C48.4435 53.6857 49.1013 55.9346 49.5853 57.7066C51.1021 63.2605 52.8792 73.1721 54.042 78.8105L31.037 78.8105L31.037 78.8103Z" fill="#E19974"/>
<path d="M57.3814 36.7697C55.3917 38.0464 53.7078 39.4122 52.2985 40.7367C50.625 42.3094 48.0799 42.4956 46.1839 41.2002L46.1492 41.1764C45.3845 41.9025 44.7003 42.615 44.0955 43.2922C43.8053 43.6169 43.3181 43.6731 42.9586 43.4275C41.8877 42.6958 40.8166 41.9641 39.7456 41.2323C39.3781 40.9813 39.2613 40.4945 39.4716 40.102C40.1972 38.7486 40.9053 37.2063 41.5191 35.4759C41.5535 35.3789 41.586 35.2825 41.6192 35.1859C41.6127 35.1931 41.6061 35.2003 41.5995 35.2075C40.5178 36.3895 38.7672 36.678 37.3522 35.9273C36.8572 35.6647 36.3753 35.4095 35.9063 35.1617C35.3036 35.8398 34.6994 36.4647 34.1036 37.0394C33.8325 37.3009 33.4239 37.3573 33.0914 37.1803C31.221 36.1841 29.5235 35.2858 27.9838 34.4766C30.6903 36.6569 33.7764 39.1016 36.7308 41.4417C40.9741 44.1623 45.1945 51.8373 42.9741 57.868L37.0584 78.4942L53.9772 78.4942C52.8138 72.8083 51.0745 63.1597 49.5853 57.7075C49.1013 55.9355 48.4436 53.6866 48.94 50.7803C49.1866 49.3369 49.988 46.1489 55.3933 40.9534C57.8814 38.5619 61.8866 35.2255 67.7016 32.2852C64.5516 33.0974 60.9725 34.4652 57.3814 36.7697Z" fill="#D77F4A"/>
<path d="M61.8203 79.9997L21.4278 79.9997C20.777 79.9997 20.2097 79.4978 20.1901 78.8469C20.17 78.1733 20.7095 77.6211 21.3779 77.6211L61.7703 77.6211C62.4211 77.6211 62.9884 78.123 63.0079 78.7739C63.0281 79.4475 62.4886 79.9997 61.8203 79.9997Z" fill="#E19974"/>
<path d="M31.3677 28.4958C31.3677 31.1075 29.8481 33.3639 27.6456 34.4344C26.7742 34.8563 25.7948 35.0941 24.7603 35.0941C23.133 35.0941 21.642 34.5058 20.49 33.5305C19.3397 34.5058 17.8486 35.0941 16.2212 35.0941C14.4847 35.0941 12.9064 34.4248 11.7261 33.3323C10.5472 34.4248 8.96906 35.0941 7.23234 35.0941C3.58328 35.0941 0.624997 32.1398 0.624997 28.4958C0.624998 25.5558 2.55015 23.0663 5.21062 22.2131C4.95719 21.5122 4.81766 20.7573 4.81766 19.9692C4.81766 16.3252 7.7775 13.3711 11.4266 13.3711C13.1997 13.3711 14.8095 14.0688 15.9962 15.2042C16.6094 14.6175 17.3352 14.1481 18.1369 13.8327C18.8895 13.5345 19.7087 13.3713 20.5659 13.3713C24.2167 13.3713 27.175 16.3255 27.175 19.9694C27.175 20.7575 27.0355 21.5123 26.782 22.2133C29.4425 23.0663 31.3677 25.5559 31.3677 28.4958Z" fill="#ADE194"/>
<path d="M63.3155 20.8142C63.3155 25.8283 59.2433 29.8941 54.222 29.8941C51.9816 29.8941 49.9313 29.0838 48.3467 27.7422C46.7622 29.0838 44.7119 29.8941 42.4714 29.8941C42.3494 29.8941 42.2274 29.8909 42.1055 29.8861C39.8602 29.7973 37.8258 28.895 36.2872 27.4694C34.6647 28.9727 32.4906 29.8939 30.1028 29.8939C25.08 29.8939 21.0094 25.8281 21.0094 20.8141C21.0094 16.7689 23.6586 13.3422 27.3205 12.167C26.9703 11.203 26.7802 10.1642 26.7802 9.07969C26.7799 4.06578 30.8505 1.72067e-06 35.8733 2.59889e-06C38.3135 3.02554e-06 40.5286 0.959378 42.1622 2.52282C43.7958 0.959379 46.011 4.37141e-06 48.4511 4.79806e-06C53.4739 5.67628e-06 57.5446 4.06579 57.5446 9.07985C57.5446 9.96001 57.4194 10.8114 57.1833 11.6155C57.1294 11.8025 57.0692 11.9866 57.0042 12.1674C60.6661 13.3424 63.3155 16.7691 63.3155 20.8142Z" fill="#80D261"/>
<path d="M31.368 28.4958C31.368 31.1075 29.8485 33.3639 27.646 34.4344C21.178 33.272 16.2566 27.6078 16.2566 20.8145C16.2566 18.2917 16.9316 15.8988 18.1374 13.8325C18.89 13.5344 19.7092 13.3711 20.5664 13.3711C24.2172 13.3711 27.1755 16.3253 27.1755 19.9692C27.1755 20.7573 27.036 21.5122 26.7825 22.2131C29.4428 23.0663 31.368 25.5559 31.368 28.4958Z" fill="#80D261"/>
<path d="M63.3155 20.8142C63.3155 25.8283 59.2433 29.8941 54.222 29.8941C51.9816 29.8941 49.9313 29.0838 48.3467 27.7422C46.7622 29.0838 44.7119 29.8941 42.4714 29.8941C42.3494 29.8941 42.2274 29.8909 42.1055 29.8861C39.8602 29.7973 37.8258 28.895 36.2872 27.4694C34.6647 28.9727 32.4906 29.8939 30.1028 29.8939C25.08 29.8939 21.0094 25.8281 21.0094 20.8141C21.0094 16.7689 23.6586 13.3422 27.3205 12.167C26.9703 11.203 26.7802 10.1642 26.7802 9.07969C26.7799 4.06578 30.8505 1.72067e-06 35.8733 2.59889e-06C38.3135 3.02554e-06 40.5286 0.959378 42.1622 2.52282C43.7958 0.959379 46.011 4.37141e-06 48.4511 4.79806e-06C53.4739 5.67628e-06 57.5446 4.06579 57.5446 9.07985C57.5446 9.96001 57.4194 10.8114 57.1833 11.6155C57.1294 11.8025 57.0692 11.9866 57.0042 12.1674C60.6661 13.3424 63.3155 16.7691 63.3155 20.8142Z" fill="#97DA7B"/>
<path d="M74.483 25.7708C74.7537 25.0235 74.9015 24.2174 74.9015 23.3768C74.9015 19.4888 71.7451 16.3369 67.8513 16.3369C65.9591 16.3369 64.2413 17.0813 62.9751 18.2927C61.7088 17.0813 59.9908 16.3369 58.0988 16.3369C54.2052 16.3369 51.0486 19.4888 51.0486 23.3768C51.0486 24.2174 51.1965 25.0235 51.4671 25.7708C48.6288 26.681 46.5746 29.3379 46.5746 32.4744C46.5746 36.3624 49.731 39.5143 53.6247 39.5143C55.4768 39.5143 57.1616 38.8008 58.4197 37.6346C59.6779 38.8008 61.3627 39.5143 63.2147 39.5143C64.9516 39.5143 66.5415 38.8868 67.7702 37.8468C68.999 38.8866 70.5888 39.5143 72.3257 39.5143C76.2193 39.5143 79.3758 36.3624 79.3758 32.4744C79.3757 29.3379 77.3213 26.681 74.483 25.7708Z" fill="#ADE194"/>
<path d="M63.3164 20.8141C63.3164 25.8282 59.2443 29.894 54.223 29.894C51.9825 29.894 49.9322 29.0837 48.3477 27.7421C46.7632 29.0837 44.7128 29.894 42.4724 29.894C42.3504 29.894 42.2283 29.8909 42.1064 29.886C42.6975 27.2299 44.1853 24.8815 46.2958 23.2165C46.3782 17.0909 51.1539 12.0784 57.1846 11.6152C57.1307 11.8023 57.0705 11.9863 57.0055 12.1671C60.6671 13.3423 63.3164 16.769 63.3164 20.8141Z" fill="#80D261"/>
<path d="M74.483 25.7708C74.7537 25.0235 74.9015 24.2174 74.9015 23.3768C74.9015 19.4888 71.7451 16.3369 67.8513 16.3369C65.9591 16.3369 64.2413 17.0813 62.9751 18.2927C61.7088 17.0813 59.9908 16.3369 58.0988 16.3369C54.2052 16.3369 51.0486 19.4888 51.0486 23.3768C51.0486 24.2174 51.1965 25.0235 51.4671 25.7708C48.6288 26.681 46.5746 29.3379 46.5746 32.4744C46.5746 36.3624 49.731 39.5143 53.6247 39.5143C55.4768 39.5143 57.1616 38.8008 58.4197 37.6346C59.6779 38.8008 61.3627 39.5143 63.2147 39.5143C64.9516 39.5143 66.5415 38.8868 67.7702 37.8468C68.999 38.8866 70.5888 39.5143 72.3257 39.5143C76.2193 39.5143 79.3758 36.3624 79.3758 32.4744C79.3757 29.3379 77.3213 26.681 74.483 25.7708Z" fill="#ADE194"/>
</svg>
