<svg width="62" height="80" viewBox="0 0 62 80" fill="none" xmlns="http://www.w3.org/2000/svg">
<path d="M28.2816 78.811L33.6992 78.811C34.4737 78.811 35.1016 78.1832 35.1016 77.4087L35.1016 55.8965L26.8794 55.8965L26.8794 77.4087C26.8792 78.1831 27.507 78.811 28.2816 78.811Z" fill="#E19974"/>
<path d="M42.8747 55.8486C49.4052 55.8346 54.688 50.5382 54.6739 44.0188C54.6519 43.5449 54.5947 42.9699 55.1088 42.7321C58.938 40.7717 61.556 36.7902 61.5461 32.1996C61.5364 27.6796 58.9825 23.7594 55.2408 21.7842C54.7039 21.5233 54.8142 20.9033 54.8202 20.4096C54.8061 13.8902 49.5008 8.61659 42.9702 8.63065H42.9639C42.6027 8.63159 42.2844 8.40409 42.1699 8.06175C40.5992 3.36831 36.1586 -0.011222 30.93 2.80036e-05C25.7014 0.011278 21.2753 3.40987 19.7249 8.11018C19.6117 8.453 19.2946 8.6819 18.9333 8.68253H18.9271C12.3966 8.69659 7.11377 13.993 7.12783 20.5124C7.13596 21.0058 7.24877 21.626 6.71315 21.8888C2.98002 23.88 0.442989 27.8111 0.452679 32.3313C0.462521 36.9219 3.09768 40.8921 6.93533 42.836C7.45065 43.0719 7.39565 43.6466 7.3758 44.1208C7.38986 50.6402 12.6952 55.9138 19.2258 55.8997L42.8747 55.8486Z" fill="#5DE1C4"/>
<path d="M27.608 55.7402L30.6582 55.7402L35.1013 55.7402L35.1013 59.2154C35.1008 59.2159 35.1005 60.9605 35.0999 60.961C34.0393 60.9698 33.0301 60.7568 32.1148 60.366C31.4246 60.0713 30.658 60.5762 30.658 61.3262L30.658 77.4091C30.658 78.1834 30.0299 78.811 29.2552 78.811H28.2818C27.5071 78.811 26.879 78.1834 26.879 77.4091L26.879 55.7402H27.608Z" fill="#D77F4A"/>
<path d="M6.7124 21.8884C7.24818 21.6251 7.13506 21.0057 7.12709 20.512C7.11631 15.5181 10.2152 11.245 14.6005 9.51074C14.5793 10.0346 14.5655 10.5603 14.5655 11.0893C14.5655 32.2393 31.723 49.3846 52.888 49.3846C53.0579 49.3846 53.2266 49.3804 53.396 49.3782C51.4482 53.2081 47.4719 55.8381 42.8743 55.8481L19.2251 55.8992C12.6946 55.9132 7.38912 50.6396 7.37506 44.1203C7.39506 43.6462 7.44975 43.0709 6.93459 42.8354C3.09694 40.8917 0.461777 36.9215 0.451931 32.3307C0.442245 27.8109 2.97927 23.8798 6.7124 21.8884Z" fill="#0ED2B3"/>
<path d="M15.7446 79.9997L46.2354 79.9997C46.8927 79.9997 47.4255 79.4672 47.4255 78.8103C47.4255 78.1534 46.8927 77.6211 46.2354 77.6211L15.7446 77.6211C15.0872 77.6211 14.5544 78.1536 14.5544 78.8103C14.5544 79.4672 15.0872 79.9997 15.7446 79.9997Z" fill="#E19974"/>
</svg>
