<svg width="76" height="80" viewBox="0 0 76 80" fill="none" xmlns="http://www.w3.org/2000/svg">
<path d="M59.0745 37.2314V35.0459C59.0745 34.3857 58.5396 33.8506 57.8817 33.8506H53.9748C53.3151 33.8506 52.7803 34.3857 52.7803 35.0459V37.1865V38.5661V40.3398V43.4771C52.7803 44.7654 51.7346 45.8101 50.4457 45.8101H49.8181H42.1214C41.8971 45.8101 41.689 45.7492 41.5096 45.6418C41.4553 45.6098 41.404 45.5729 41.3559 45.5345C41.3271 45.5089 41.2982 45.4832 41.271 45.4561C41.0532 45.2381 40.9189 44.9368 40.9189 44.6053V38.5662V38.6992V35.7732H34.6246V38.699V41.7818V38.5661V46.7714V53.0571V78.7981H37.9567H40.9189V67.3929V53.2992C40.9189 52.6342 41.4553 52.0959 42.1198 52.0942L51.8884 52.0781C53.1117 52.0765 54.2629 51.7704 55.2701 51.2304C55.411 51.1551 55.5503 51.075 55.6864 50.9901C55.8209 50.9068 55.9537 50.817 56.0834 50.7225C56.149 50.6776 56.2131 50.6295 56.2756 50.5798C57.6678 49.4951 58.824 47.7771 59.036 45.6303C59.0425 45.5726 59.0473 45.515 59.052 45.4571C59.0553 45.4187 59.0584 45.3803 59.06 45.3418C59.0648 45.2762 59.0679 45.2104 59.0695 45.1448C59.0728 45.06 59.0743 44.9734 59.0743 44.8884V38.5657V37.2314H59.0745Z" fill="#E19974"/>
<path d="M40.9185 38.6992V35.9336H34.6243V38.8594V41.9422C35.5449 41.9422 36.6022 42.2319 37.2133 42.8267C37.4471 43.0542 38.014 43.7881 37.9563 45.2766V45.6131C37.9563 47.358 38.8146 48.7552 41.1154 48.7744H47.4832C48.7721 48.7744 49.8177 47.7297 49.8177 46.4414V45.8102H42.121C41.8968 45.8102 41.6886 45.7492 41.5093 45.6419C41.4549 45.6114 41.4036 45.5745 41.3555 45.5345C41.325 45.5105 41.2963 45.4833 41.2707 45.4561C41.0529 45.2381 40.9185 44.9369 40.9185 44.6053V48.8209V38.6992Z" fill="#D77F4A"/>
<path d="M59.074 37.2314V35.0459C59.074 34.3857 58.5392 33.8506 57.8812 33.8506H53.9743C53.3146 33.8506 52.7798 34.3857 52.7798 35.0459V37.1865V38.5661V40.3398C53.6988 40.3398 54.5331 40.7131 55.1351 41.3171C55.7387 41.9196 56.1118 42.7528 56.1118 43.6742V47.8529C56.1118 49.0739 55.806 50.2228 55.2696 51.2306C55.4106 51.1553 55.5498 51.0751 55.6859 50.9903C55.8204 50.9053 55.9532 50.8156 56.0829 50.7226C56.147 50.6762 56.211 50.6281 56.2751 50.58C56.2928 50.5672 56.3087 50.5543 56.3248 50.5415C57.7548 49.4187 58.9406 47.5478 59.0596 45.3422C59.0645 45.2765 59.0676 45.2107 59.0692 45.1451C59.0724 45.0603 59.074 44.9737 59.074 44.8887V38.5661V37.2314Z" fill="#D77F4A"/>
<path d="M40.9189 67.3936C39.2823 67.3956 37.9567 68.7239 37.9567 70.3615V78.7979H40.9189V67.3936Z" fill="#D77F4A"/>
<path d="M54.0765 80.0001H22.266C21.6027 80.0001 21.0651 79.4622 21.0651 78.7984C21.0651 78.1346 21.6027 77.5967 22.266 77.5967H54.0766C54.7399 77.5967 55.2776 78.1346 55.2776 78.7984C55.2776 79.4622 54.7397 80.0001 54.0765 80.0001Z" fill="#E19974"/>
<path d="M4.48479 38.5667C2.21979 38.5667 0.428071 36.5537 0.679165 34.2419C2.77245 14.9778 18.6828 0 37.9995 0C57.3162 0 73.2265 14.9778 75.3196 34.2419C75.5709 36.5537 73.7792 38.5667 71.514 38.5667H4.48479Z" fill="#5DE1C4"/>
<path d="M64.8174 11.5703C52.8397 24.2087 35.8999 32.0911 17.1199 32.0911C11.6797 32.0911 6.39427 31.4291 1.33895 30.1822C1.05208 31.5111 0.829578 32.865 0.680047 34.2416C0.428797 36.5534 2.22052 38.5664 4.48567 38.5664H71.5149C73.7799 38.5664 75.5716 36.5534 75.3205 34.2416C74.3655 25.4539 70.5344 17.5592 64.8174 11.5703Z" fill="#0ED2B3"/>
</svg>
