<svg width="60" height="80" viewBox="0 0 60 80" fill="none" xmlns="http://www.w3.org/2000/svg">
<path d="M43.1958 52.1484L39.144 48.4199L32.8858 56.5165C31.4257 58.4055 28.5713 58.4055 27.1111 56.5165L20.853 48.4199L16.8011 52.1484L25.5191 64.0879C25.9741 64.7112 26.2194 65.4624 26.2194 66.2338L26.2194 78.8105L33.2022 78.8105L33.2022 66.7602C33.2022 65.9766 33.4554 65.2138 33.924 64.5852L43.1958 52.1484Z" fill="#E19974"/>
<path d="M39.1443 48.4199L32.8862 56.5165C32.8731 56.5335 32.859 56.5493 32.8456 56.566C33.0786 56.7116 33.3037 56.8751 33.5176 57.0585C33.522 57.0623 33.5264 57.066 33.5308 57.0698C34.2534 57.6863 34.392 58.747 33.8243 59.5084L30.7487 63.634C30.2801 64.2626 30.027 65.0254 30.027 65.809L30.027 77.8593L26.22 77.8593L26.22 78.8107L33.2028 78.8107L33.2028 66.7604C33.2028 65.9768 33.4559 65.214 33.9245 64.5854L43.1964 52.1485L39.1443 48.4199Z" fill="#D77F4A"/>
<path d="M27.4774 56.9223C27.348 56.7981 27.2249 56.6637 27.1111 56.5165L27.0972 56.4985L22.9104 51.0816L20.853 48.4199L19.4269 49.7323L19.5593 49.9035C19.4282 49.9268 19.2972 49.9507 19.1657 49.9726L16.8011 52.1484L21.6821 58.8331C22.5915 58.7174 23.471 58.5066 24.3105 58.2109L27.4774 56.9223Z" fill="#D77F4A"/>
<path d="M45.3073 79.9997L14.6889 79.9997C14.0312 79.9997 13.4979 79.4672 13.4979 78.8103C13.4979 78.1534 14.031 77.6211 14.6889 77.6211L45.3073 77.6211C45.965 77.6211 46.4982 78.1536 46.4982 78.8103C46.4982 79.4672 45.9651 79.9997 45.3073 79.9997Z" fill="#E19974"/>
<path d="M59.2154 30.8386C59.2251 26.3475 56.5916 22.4661 52.7751 20.6505C52.8102 20.2933 52.8299 19.9316 52.8307 19.5653C52.8441 13.3469 47.7915 8.29503 41.5452 8.2816C41.346 8.28113 41.148 8.28613 40.9513 8.29581C39.6465 3.52503 35.2718 0.0112831 30.0646 3.22015e-05C24.8576 -0.0112187 20.4677 3.48378 19.1424 8.24909C18.9457 8.23847 18.7477 8.23269 18.5485 8.23222C12.3022 8.21878 7.22771 13.2489 7.21443 19.4672C7.21365 19.8335 7.23193 20.1952 7.26537 20.5525C3.44099 22.3517 0.790837 26.2217 0.781149 30.7128C0.771461 35.2307 3.43802 39.1285 7.29146 40.93C7.27505 41.1953 7.2638 41.4619 7.2638 41.7313C7.2638 48.7913 12.9952 54.5146 20.0652 54.5146C21.564 54.5146 23.0021 54.2566 24.3385 53.7835C25.0549 53.5299 25.7171 53.1436 26.3021 52.6589L26.418 52.5628C28.4899 50.8463 31.4988 50.8699 33.5435 52.6185C34.1518 53.1386 34.8463 53.5535 35.603 53.815C36.9133 54.2677 38.3196 54.5146 39.7841 54.5146C44.9622 54.5146 49.419 51.4427 51.4351 47.026C52.1726 45.5347 52.5897 43.858 52.5935 42.0838C52.5938 41.9102 52.5893 41.7377 52.5811 41.5661C52.5791 41.4007 52.5769 41.235 52.5685 41.0711C56.4796 39.306 59.2055 35.3925 59.2154 30.8386Z" fill="#FD8087"/>
<path d="M59.2179 30.874C59.2337 26.3829 56.6056 22.4979 52.7915 20.6771C52.8272 20.3199 52.8475 19.9584 52.8487 19.5921C52.859 16.6707 51.7504 14.0056 49.9248 11.9981C48.4381 31.0663 32.4601 46.0643 12.9896 46.0377C11.2565 46.0354 9.5523 45.9113 7.88293 45.6787C9.5523 50.7905 14.3584 54.4888 20.0356 54.4965C21.5343 54.4985 22.9728 54.2424 24.3098 53.7713C25.0265 53.5187 25.6892 53.1334 26.2748 52.6495L26.3909 52.5535C28.4651 50.8398 31.4739 50.8674 33.5162 52.6188C34.1237 53.1398 34.8178 53.5556 35.5742 53.8182C36.8839 54.2727 38.2898 54.5213 39.7543 54.5234C44.9325 54.5304 49.3934 51.4646 51.4156 47.0507C52.1551 45.5606 52.5747 43.8843 52.5809 42.1101C52.5815 41.9365 52.5772 41.764 52.5692 41.5924C52.5673 41.427 52.5654 41.2613 52.5572 41.0973C56.4706 39.3376 59.2018 35.4279 59.2179 30.874Z" fill="#FE646F"/>
</svg>
