<svg width="64" height="80" viewBox="0 0 64 80" fill="none" xmlns="http://www.w3.org/2000/svg">
<path d="M55.8106 39.6468C53.5375 39.6468 52.3034 39.6468 50.0303 39.6468C49.4666 41.1458 48.3277 43.5925 46.0686 45.9586C44.6666 47.427 43.2056 48.4734 41.9144 49.2181L39.5566 14.1222L25.265 14.0928L21.935 57.4465C20.6248 56.6992 19.1319 55.6387 17.7013 54.1403C15.4422 51.7742 14.3033 49.3275 13.7395 47.8286C11.4664 47.8286 10.2323 47.8286 7.95922 47.8286C9.24016 50.4548 10.4034 54.2065 14.0642 57.9143C16.6394 60.5225 19.2489 62.0553 21.4947 63.1792L20.2956 78.7897L44.3884 78.8103L42.3436 54.9631C44.5739 53.8423 47.1566 52.3142 49.7058 49.7325C53.3666 46.0248 54.5297 42.2731 55.8106 39.6468Z" fill="#E19974"/>
<path d="M21.495 63.1793L20.2959 78.7898L44.3887 78.8103L42.3439 54.9631L41.9146 49.2181L39.5568 14.1222L25.2653 14.0928L21.9353 57.4465L21.495 63.1793Z" fill="#E19974"/>
<path d="M42.3433 54.9632L41.9142 49.2182L40.5413 28.7807L39.5564 14.1222L25.2648 14.0928L25.2639 14.1051L24.1367 28.7806C29.9856 28.7806 34.69 29.0978 35.2267 39.1717L35.9017 49.2181L36.3308 54.9631L38.3751 78.8053L44.3883 78.8104L42.3433 54.9632Z" fill="#D77F4A"/>
<path d="M52.0607 79.9997L12.5607 79.9997C11.9053 79.9997 11.374 79.4673 11.374 78.8103C11.374 78.1533 11.9053 77.6211 12.5607 77.6211L52.0607 77.6211C52.7162 77.6211 53.2475 78.1534 53.2475 78.8103C53.2475 79.4672 52.7162 79.9997 52.0607 79.9997Z" fill="#E19974"/>
<path d="M43.1398 23.0475C46.2127 23.0571 48.8163 20.7249 49.0076 17.6944C49.0155 17.5674 49.0198 17.4392 49.0201 17.3103C49.0255 14.7894 47.5316 12.6106 45.3665 11.5916C45.3863 11.3911 45.3976 11.188 45.398 10.9825C45.4057 7.49205 42.5393 4.65627 38.9957 4.64877C38.8827 4.64846 38.7704 4.65127 38.6587 4.65674C37.9187 1.97861 35.4369 0.00626831 32.4829 1.77965e-05C29.529 -0.00623272 27.0385 1.95549 26.2866 4.63033C26.1751 4.62439 26.0627 4.62111 25.9498 4.62095C22.4063 4.61345 19.5276 7.43689 19.5199 10.9274C19.5194 11.133 19.5298 11.336 19.5488 11.5366C17.3793 12.5464 15.8758 14.7188 15.8704 17.2397C15.8702 17.3031 15.871 17.3663 15.8727 17.4292C15.9587 20.5274 18.5791 22.9717 21.7158 22.9814L43.1398 23.0475Z" fill="#7ACAA6"/>
<path d="M20.1547 50.4618C22.3414 50.4686 24.1941 48.809 24.3302 46.6526C24.336 46.5622 24.3389 46.4711 24.3391 46.3794C24.343 44.5854 23.2799 43.0351 21.7393 42.31C21.7535 42.1673 21.7614 42.0228 21.7618 41.8765C21.7672 39.3928 19.7275 37.375 17.206 37.3695C17.1255 37.3694 17.0457 37.3714 16.9661 37.3751C16.4394 35.4695 14.6735 34.0661 12.5715 34.0615C10.4694 34.057 8.69739 35.4531 8.16239 37.3564C8.08301 37.3522 8.00301 37.3498 7.9227 37.3497C5.40114 37.3443 3.3527 39.3534 3.34739 41.8372C3.34707 41.9834 3.35442 42.1279 3.36801 42.2706C1.82426 42.9892 0.754416 44.535 0.75051 46.3289C0.750353 46.374 0.750979 46.4189 0.752229 46.4637C0.813322 48.6683 2.67801 50.4076 4.91004 50.4145L20.1547 50.4618Z" fill="#7ACAA6"/>
<path d="M59.0659 42.2802C61.2526 42.2869 63.1052 40.6274 63.2413 38.471C63.247 38.3805 63.2501 38.2894 63.2502 38.1977C63.2541 36.4038 62.191 34.8535 60.6504 34.1283C60.6646 33.9857 60.6726 33.8411 60.6729 33.6949C60.6784 31.2111 58.6387 29.1933 56.1171 29.1879C56.0366 29.1877 55.9568 29.1897 55.8773 29.1935C55.3506 27.2879 53.5846 25.8844 51.4826 25.8799C49.3806 25.8754 47.6085 27.2715 47.0735 29.1747C46.9941 29.1705 46.9141 29.1682 46.8338 29.168C44.3123 29.1627 42.2638 31.1718 42.2585 33.6555C42.2582 33.8018 42.2656 33.9463 42.2791 34.089C40.7354 34.8075 39.6655 36.3533 39.6616 38.1472C39.6615 38.1924 39.6621 38.2372 39.6634 38.2821C39.7245 40.4866 41.5891 42.226 43.8212 42.2329L59.0659 42.2802Z" fill="#7ACAA6"/>
<path d="M45.366 11.5916C45.3859 11.3912 45.3971 11.1881 45.3976 10.9826C45.4007 9.55696 44.924 8.24086 44.1179 7.18165C38.5394 14.2529 29.9048 18.791 20.2118 18.791C18.7851 18.791 17.3821 18.6904 16.0076 18.5002C16.588 21.0724 18.9505 22.973 21.7155 22.9815L43.1394 23.0476C46.2124 23.0571 48.816 20.7249 49.0073 17.6945C49.0152 17.5674 49.0194 17.4393 49.0198 17.3104C49.0251 14.7895 47.5312 12.6107 45.366 11.5916Z" fill="#57BE92"/>
<path d="M8.84323 49.7768C10.0459 52.4932 12.7325 54.2452 15.6976 54.2545L17.8178 54.261C17.7789 54.221 17.74 54.182 17.7012 54.1413C15.4764 51.811 14.3392 49.4046 13.7667 47.9004C12.1892 48.649 10.5371 49.2651 8.82495 49.7359C8.83104 49.7495 8.83714 49.763 8.84323 49.7768Z" fill="#D77F4A"/>
<path d="M46.2808 45.7293L48.8104 45.7372C51.4003 45.7451 53.7551 44.2245 54.8108 41.8545C55.1653 41.0587 55.484 40.3165 55.8104 39.6475L53.3553 39.6475C52.0537 40.3043 50.6981 40.8689 49.2979 41.3357C48.6583 42.6329 47.7004 44.1907 46.2808 45.7293Z" fill="#D77F4A"/>
<path d="M60.6496 34.1277C60.6638 33.985 60.6718 33.8405 60.6721 33.6943C60.6739 32.9046 60.4682 32.1624 60.1067 31.5166C54.7453 36.3802 47.6482 39.3563 39.8579 39.4027C40.3971 41.048 41.9838 42.2269 43.8203 42.2325L59.0651 42.2796C61.2518 42.2863 63.1045 40.6268 63.2406 38.4704C63.2462 38.3799 63.2492 38.2888 63.2495 38.1971C63.2534 36.4033 62.1903 34.8529 60.6496 34.1277Z" fill="#57BE92"/>
<path d="M21.7396 42.3099C21.7538 42.1672 21.7618 42.0227 21.7621 41.8764C21.7641 40.9296 21.4683 40.051 20.9625 39.3252C15.5982 44.0979 8.54159 47.0019 0.807372 47.0161C1.13487 48.9519 2.86831 50.4085 4.91018 50.4147L20.155 50.4618C22.3417 50.4685 24.1944 48.8089 24.3305 46.6525C24.3363 46.5621 24.3392 46.471 24.3394 46.3793C24.3433 44.5855 23.2803 43.035 21.7396 42.3099Z" fill="#57BE92"/>
</svg>
