<svg width="16" height="20" viewBox="0 0 16 20" fill="none" xmlns="http://www.w3.org/2000/svg">
<path d="M8 0C3.8 0 0 3.22 0 8.2C0 11.38 2.45 15.12 7.34 19.43C7.72 19.76 8.29 19.76 8.67 19.43C13.55 15.12 16 11.38 16 8.2C16 3.22 12.2 0 8 0ZM8.71 13.7C8.52 13.9 8.28 14 8 14C7.73 14 7.47 13.89 7.29 13.7C7.1 13.51 6.99 13.26 7 12.99C6.99 12.44 7.43 12 7.98 11.99C7.99 11.99 7.99 11.99 8 11.99C8.55 11.98 8.99 12.42 9 12.97C9 12.98 9 12.98 9 12.99C9 13.27 8.9 13.51 8.71 13.7ZM10.69 7.91C10.48 8.26 10.21 8.62 9.8 9C9.48 9.3 9.27 9.56 9.15 9.77C9.05 9.96 8.99 10.26 8.99 10.46V10.53C8.98 10.8 8.75 11 8.48 11H7.63C7.35 11 7.13 10.78 7.13 10.5V10.34C7.13 9.89 7.23 9.5 7.42 9.18C7.61 8.85 7.94 8.48 8.42 8.06C8.7 7.81 8.9 7.59 9.03 7.4C9.16 7.21 9.22 7 9.22 6.76C9.22 6.47 9.11 6.22 8.9 6.02C8.68 5.82 8.4 5.72 8.05 5.72C7.68 5.72 7.31 5.82 7.09 6.02C6.97 6.14 6.88 6.25 6.8 6.4C6.77 6.47 6.72 6.61 6.71 6.66C6.66 6.83 6.47 7 6.24 7H5.55C5.29 7 5.08 6.81 5.05 6.55C5.04 6.47 5.05 6.39 5.07 6.31C5.25 5.59 5.59 5.15 5.97 4.79C6.53 4.29 7.25 4 8 4C8.59 4 9.11 4.12 9.57 4.35C10.03 4.58 10.36 4.9 10.62 5.31C10.87 5.72 11 6.16 11 6.66C11 7.15 10.89 7.56 10.69 7.91Z" fill="#2EC3E9"/>
</svg>
