<svg width="162" height="164" viewBox="0 0 162 164" fill="none" xmlns="http://www.w3.org/2000/svg">
<g clip-path="url(#clip0)">
<path d="M73.9608 164C114.808 164 147.922 130.887 147.922 90.0393C147.922 49.1919 114.808 16.0785 73.9608 16.0785C33.1134 16.0785 0 49.1919 0 90.0393C0 130.887 33.1134 164 73.9608 164Z" fill="#D5F3FB"/>
<path d="M82.5728 16.5936L79.5193 26.1068C78.7803 28.4092 76.929 30.1828 74.5969 30.8221L66.9373 32.9222C66.3208 33.0912 65.684 33.177 65.0447 33.177H53.5831C52.3873 33.177 51.3764 34.0622 51.2184 35.2473L49.9038 45.1061L42.5829 45.4895C41.3518 45.5539 40.3727 46.5454 40.3236 47.7771L40.0702 54.1397C40.013 55.5724 41.2235 56.7315 42.6522 56.6125L47.5296 56.206C48.7834 56.1014 49.9287 55.4519 50.6619 54.4295L55.1727 48.1382L64.8202 47.7935C66.8836 47.7199 68.3414 49.796 67.5923 51.7201C65.9111 56.0373 65.9088 56.4071 65.9088 56.7867C65.9088 58.1056 66.976 59.1725 68.2946 59.1725C69.4737 59.1725 70.4545 58.315 70.6455 57.192C70.8084 56.6422 71.5371 54.736 72.491 52.3161C72.8894 51.3055 74.2621 51.1567 74.8607 52.0633L75.4775 52.9968C76.6178 54.723 78.741 55.5175 80.7345 54.9643L84.9947 53.782C86.1822 53.4527 87.1411 52.5761 87.5756 51.4231L88.3926 49.2551C88.9696 47.7242 90.2907 46.5957 91.893 46.2649L94.6463 45.6966C96.5199 45.3101 98.5065 46.4429 98.8326 48.328C99.1657 50.2539 97.8125 52.0035 95.9326 52.219L89.2937 52.3973C87.9436 52.4337 86.8591 53.5214 86.827 54.8718L86.812 55.5074C86.7999 56.0179 87.0815 56.4903 87.5363 56.7223L91.3539 58.6701C92.8071 59.4114 93.2807 61.2593 92.3634 62.6085C91.8587 63.3507 91.0197 63.7948 90.122 63.7948H69.9871C69.4601 63.7948 68.9377 63.6957 68.4475 63.5024L51.5515 56.8465C50.3011 56.3539 48.8793 56.6206 47.8924 57.5327L31.8909 72.3219C30.6154 73.501 30.0812 75.2801 30.4963 76.9667L33.7497 90.1834C34.2519 92.2234 36.0292 93.6949 38.127 93.8078L56.1544 94.7771C59.7013 94.9678 62.5716 97.7309 62.8975 101.268L64.2649 116.114C64.3672 117.225 64.6599 118.295 65.1421 119.301C66.6611 122.471 70.2029 129.674 72.1718 132.164C74.7067 135.37 80.952 135.497 83.057 133.581L97.7146 121.586C98.9395 120.471 99.7395 118.966 99.9787 117.326L101.696 105.547L113.335 92.7201C114.469 91.4703 113.96 89.5539 112.517 88.9348L112.309 89.0746C111.426 89.6663 110.407 90.0251 109.354 90.1184C109.168 90.1346 108.981 90.1442 108.795 90.1442C106.638 90.1442 104.636 89.0492 103.474 87.199L94.5874 73.089C93.8862 71.9729 94.2216 70.5003 95.3354 69.7969C96.4584 69.1003 97.924 69.4334 98.6275 70.5448L107.514 84.6572C107.819 85.1466 108.359 85.4121 108.937 85.3656C109.191 85.3422 109.441 85.2538 109.655 85.1116L121.666 78.5291C122.918 77.843 123.25 76.1945 122.36 75.0778C121.866 74.457 121.086 74.1348 120.298 74.2253L117.775 74.5153C117.097 74.5933 116.418 74.3775 115.91 73.9228L108.355 67.1646C107.374 66.2863 107.29 64.7788 108.168 63.7956C109.044 62.8125 110.552 62.731 111.537 63.6093L118.294 69.653L122.4 69.18C123.25 69.0752 124.093 69.4479 124.599 70.1424L125.389 71.2235L129.39 70.7433C131.335 70.5099 133.224 71.4884 134.156 73.2112L142.236 88.1516C142.823 89.2355 143.805 90.0508 144.979 90.4261L147.886 91.4471C147.895 90.9774 147.922 90.5117 147.922 90.0399C147.922 52.1069 119.36 20.8626 82.5728 16.5936ZM113.469 57.4206C113.061 57.6979 112.595 57.8305 112.136 57.8305C111.37 57.8305 110.617 57.4624 110.158 56.7798L105.188 49.4241C104.45 48.3338 104.736 46.8497 105.829 46.1132C106.917 45.3722 108.406 45.6637 109.14 46.754L114.11 54.1097C114.848 55.2 114.562 56.6841 113.469 57.4206Z" fill="#2FDC92"/>
<path d="M106.168 129.107C105.627 129.107 105.082 128.923 104.635 128.548C103.626 127.7 103.495 126.195 104.343 125.186L110.606 117.731C111.452 116.724 112.959 116.591 113.968 117.439C114.977 118.288 115.108 119.793 114.259 120.801L107.997 128.257C107.526 128.818 106.848 129.107 106.168 129.107Z" fill="#2FDC92"/>
<path d="M53.614 18.936L51.4914 25.2608C51.0719 26.5098 51.7453 27.8633 52.9943 28.2828C53.2459 28.3666 53.5022 28.4062 53.7538 28.4062C54.7512 28.4062 55.6806 27.7772 56.0163 26.7799L59.1065 17.5724C57.2465 17.9511 55.4203 18.42 53.614 18.936Z" fill="#2FDC92"/>
<path d="M12.3866 131.01L14.4508 112.256C14.6158 110.784 14.0877 109.319 13.0216 108.29L0.289062 96.3838C1.37189 109.12 5.67 120.936 12.3866 131.01Z" fill="#2FDC92"/>
<path d="M73.9607 16.0785C71.2851 16.0785 68.645 16.2284 66.0428 16.5055L65.7944 22.1037C65.17 23.9793 66.1812 26.0063 68.0568 26.6306C68.4318 26.7563 68.8141 26.8147 69.1891 26.8147C70.687 26.8147 72.0851 25.8665 72.5837 24.3682L75.3353 16.1132C74.8762 16.1048 74.4218 16.0785 73.9607 16.0785Z" fill="#2FDC92"/>
</g>
<g clip-path="url(#clip1)">
<path d="M129.756 0.0157551C117.458 0.447283 107.241 10.0424 106.06 22.2902C105.819 24.7398 105.959 27.1132 106.39 29.3851C106.39 29.3851 106.428 29.6516 106.555 30.1593C106.936 31.86 107.507 33.51 108.218 35.0584C110.693 40.9221 116.417 50.733 129.261 61.407C130.048 62.067 131.203 62.067 132.003 61.407C144.847 50.7457 150.571 40.9348 153.059 35.0457C153.782 33.4973 154.341 31.86 154.722 30.1466C154.836 29.6516 154.887 29.3724 154.887 29.3724C155.178 27.8493 155.331 26.2882 155.331 24.689C155.331 10.7532 143.794 -0.479233 129.756 0.0157551ZM130.632 36.9749C124.007 36.9749 118.638 31.6062 118.638 24.9809C118.638 18.3557 124.007 12.987 130.632 12.987C137.257 12.987 142.626 18.3557 142.626 24.9809C142.626 31.6062 137.257 36.9749 130.632 36.9749Z" fill="#FF6C58"/>
</g>
<defs>
<clipPath id="clip0">
<rect width="147.922" height="147.922" fill="white" transform="translate(0 16.0785)"/>
</clipPath>
<clipPath id="clip1">
<rect width="61.902" height="61.902" fill="white" transform="translate(99.686)"/>
</clipPath>
</defs>
</svg>
