<svg width="433" height="145" viewBox="0 0 433 145" fill="none" xmlns="http://www.w3.org/2000/svg">
<path d="M240.063 100.493C236.901 94.6302 233.951 88.7679 232.265 85.5328C243.856 79.8726 252.077 68.5512 254.606 54.4C257.557 38.0247 252.287 21.4472 241.327 12.1478C228.26 -0.992509 197.488 -0.184096 172.828 0.22011C165.03 0.422664 157.653 0.624767 152.173 0.22011C151.33 0.22011 150.487 0.422214 149.855 1.02897C149.222 1.63528 148.801 2.44415 148.801 3.25256V142.139C148.801 143.756 150.276 145.171 151.962 144.969H179.783C181.47 144.969 182.945 143.554 182.945 141.936V94.226H200.017L224.466 143.351C224.887 144.362 226.152 145.171 227.417 144.969H257.346C258.399 144.969 259.243 144.565 259.875 143.756C261.561 141.734 261.772 141.532 240.063 100.493ZM217.511 59.4539C210.977 65.9234 196.434 65.5188 185.053 65.3167H183.156V29.3315H184.842C196.645 28.9273 211.188 28.5231 217.722 35.1943C220.462 38.0247 221.726 41.866 221.305 47.3241C221.305 47.5262 221.305 47.5262 221.305 47.7288C221.515 52.7827 220.251 56.6235 217.511 59.4539Z" fill="#49C179"/>
<path d="M374.297 41.7113C372.086 25.5188 363.043 12.3624 350.383 6.2903C338.728 -0.793526 313.81 -0.186498 293.714 0.218189C285.475 0.420984 278.442 0.623328 273.418 0.218189C272.614 0.218189 271.81 0.420986 271.207 1.02802C270.604 1.63505 270.203 2.44487 270.203 3.25425V142.103C270.203 143.723 271.609 145.139 273.217 144.937H299.743C301.35 144.937 302.757 143.52 302.757 141.901V96.3598H302.958C322.25 96.765 348.374 97.1696 361.034 83.6086C371.484 74.298 376.708 58.3084 374.297 41.7113ZM341.943 49.6049C342.144 54.6649 341.139 58.7131 338.527 61.344C332.499 67.8213 318.633 67.4161 307.58 67.0114C305.772 67.0114 304.164 67.0114 302.757 67.0114V29.3647H304.566C316.422 28.9596 330.891 28.5549 337.924 35.4363C340.938 38.6752 342.345 43.1281 342.144 49.2002C341.943 49.4026 341.943 49.6049 341.943 49.6049Z" fill="#49C179"/>
<path d="M65.5625 0.0209045C29.3832 0.0209045 -0.00012207 32.8375 -0.00012207 73.1028C-0.00012207 108.939 22.9867 138.736 53.5695 144.977C53.7695 144.977 53.9694 144.977 54.1693 144.977C55.5683 144.977 56.9673 143.769 56.9673 142.36L60.7653 76.5257C60.7653 73.707 62.964 71.4922 65.7624 71.4922C68.5609 71.4922 70.7595 73.707 70.7595 76.5257L74.3577 142.158V142.561C74.5576 143.97 75.7566 144.977 77.1561 144.977C77.356 144.977 77.5559 144.977 77.7558 144.977C108.338 138.736 131.325 108.939 131.325 73.1028C131.125 32.8375 101.742 0.0209045 65.5625 0.0209045ZM46.9731 88.4036C22.9867 104.309 17.7896 72.0964 16.5906 61.0231L16.3906 60.218C16.3906 59.6138 16.5906 59.2112 16.9904 58.6074L17.1903 58.4062H17.3898C17.7896 58.0032 18.3894 57.8019 18.9892 57.8019H19.7888C30.7822 59.01 62.7641 64.446 46.9731 88.4036ZM65.5625 59.4125C37.5786 53.5739 56.368 26.9989 63.3638 18.3417C63.5638 18.1404 63.7637 17.9392 63.9636 17.7379C64.3634 17.3354 64.9627 17.1336 65.5625 17.1336H65.9623C66.5621 17.1336 67.1619 17.3354 67.5613 17.7379C67.7612 17.9392 67.9611 18.1404 68.161 18.3417C74.7575 26.9989 93.5469 53.5739 65.5625 59.4125ZM84.152 89.2091C68.3609 65.0498 100.343 59.6138 111.337 58.4062H112.336C112.936 58.4062 113.335 58.6074 113.935 59.01C114.135 59.01 114.135 59.2112 114.135 59.2112C114.535 59.6138 114.735 60.218 114.735 60.8218C114.735 61.0231 114.735 61.4261 114.535 61.6273C113.335 72.7002 108.138 104.913 84.152 89.2091Z" fill="#49C179"/>
<path d="M370.552 6.412L369.453 3.304C369.388 3.14067 369.318 2.94933 369.243 2.73C369.173 2.51067 369.105 2.27267 369.04 2.016C368.975 2.27733 368.905 2.52 368.83 2.744C368.76 2.96333 368.692 3.15467 368.627 3.318L367.535 6.412H370.552ZM374.08 10.269H372.449C372.267 10.269 372.118 10.227 372.001 10.143C371.889 10.0543 371.805 9.94233 371.749 9.807L371.063 7.868H367.017L366.331 9.807C366.284 9.92367 366.203 10.031 366.086 10.129C365.969 10.2223 365.822 10.269 365.645 10.269H364L367.969 0.112H370.118L374.08 10.269Z" fill="#49C179"/>
<path d="M381.622 7.77C381.738 7.77 381.836 7.812 381.916 7.896L382.749 8.785C382.338 9.30767 381.827 9.70433 381.216 9.975C380.609 10.2457 379.886 10.381 379.046 10.381C378.285 10.381 377.601 10.2527 376.995 9.996C376.388 9.73467 375.872 9.373 375.448 8.911C375.023 8.449 374.696 7.90067 374.468 7.266C374.239 6.63133 374.125 5.93833 374.125 5.187C374.125 4.683 374.178 4.20467 374.286 3.752C374.398 3.29467 374.559 2.87467 374.769 2.492C374.979 2.10933 375.231 1.764 375.525 1.456C375.823 1.148 376.159 0.886668 376.533 0.672001C376.906 0.452667 377.312 0.287 377.751 0.175001C378.194 0.0583336 378.665 0 379.165 0C379.538 0 379.89 0.0326669 380.222 0.0980005C380.558 0.163334 380.87 0.254334 381.16 0.371001C381.449 0.487667 381.715 0.630001 381.958 0.798001C382.205 0.961334 382.427 1.141 382.623 1.337L381.916 2.303C381.874 2.36367 381.82 2.41733 381.755 2.464C381.689 2.51067 381.601 2.534 381.489 2.534C381.377 2.534 381.262 2.49433 381.146 2.415C381.034 2.33567 380.894 2.247 380.726 2.149C380.562 2.051 380.355 1.96233 380.103 1.883C379.855 1.80367 379.54 1.764 379.158 1.764C378.733 1.764 378.343 1.841 377.989 1.995C377.634 2.149 377.328 2.373 377.072 2.667C376.82 2.95633 376.624 3.31333 376.484 3.738C376.344 4.16267 376.274 4.64567 376.274 5.187C376.274 5.733 376.348 6.22067 376.498 6.65C376.652 7.07467 376.859 7.434 377.121 7.728C377.387 8.022 377.695 8.246 378.045 8.4C378.399 8.54933 378.777 8.624 379.179 8.624C379.417 8.624 379.631 8.61233 379.823 8.589C380.019 8.56567 380.198 8.526 380.362 8.47C380.53 8.414 380.686 8.34167 380.831 8.253C380.98 8.16433 381.129 8.05233 381.279 7.917C381.33 7.875 381.384 7.84 381.44 7.812C381.496 7.784 381.556 7.77 381.622 7.77Z" fill="#49C179"/>
<path d="M390.631 7.77C390.748 7.77 390.846 7.812 390.925 7.896L391.758 8.785C391.348 9.30767 390.837 9.70433 390.225 9.975C389.619 10.2457 388.895 10.381 388.055 10.381C387.295 10.381 386.611 10.2527 386.004 9.996C385.398 9.73467 384.882 9.373 384.457 8.911C384.033 8.449 383.706 7.90067 383.477 7.266C383.249 6.63133 383.134 5.93833 383.134 5.187C383.134 4.683 383.188 4.20467 383.295 3.752C383.407 3.29467 383.568 2.87467 383.778 2.492C383.988 2.10933 384.24 1.764 384.534 1.456C384.833 1.148 385.169 0.886668 385.542 0.672001C385.916 0.452667 386.322 0.287 386.76 0.175001C387.204 0.0583336 387.675 0 388.174 0C388.548 0 388.9 0.0326669 389.231 0.0980005C389.567 0.163334 389.88 0.254334 390.169 0.371001C390.459 0.487667 390.725 0.630001 390.967 0.798001C391.215 0.961334 391.436 1.141 391.632 1.337L390.925 2.303C390.883 2.36367 390.83 2.41733 390.764 2.464C390.699 2.51067 390.61 2.534 390.498 2.534C390.386 2.534 390.272 2.49433 390.155 2.415C390.043 2.33567 389.903 2.247 389.735 2.149C389.572 2.051 389.364 1.96233 389.112 1.883C388.865 1.80367 388.55 1.764 388.167 1.764C387.743 1.764 387.353 1.841 386.998 1.995C386.644 2.149 386.338 2.373 386.081 2.667C385.829 2.95633 385.633 3.31333 385.493 3.738C385.353 4.16267 385.283 4.64567 385.283 5.187C385.283 5.733 385.358 6.22067 385.507 6.65C385.661 7.07467 385.869 7.434 386.13 7.728C386.396 8.022 386.704 8.246 387.054 8.4C387.409 8.54933 387.787 8.624 388.188 8.624C388.426 8.624 388.641 8.61233 388.832 8.589C389.028 8.56567 389.208 8.526 389.371 8.47C389.539 8.414 389.696 8.34167 389.84 8.253C389.99 8.16433 390.139 8.05233 390.288 7.917C390.34 7.875 390.393 7.84 390.449 7.812C390.505 7.784 390.566 7.77 390.631 7.77Z" fill="#49C179"/>
<path d="M402.539 5.187C402.539 5.929 402.413 6.61733 402.161 7.252C401.914 7.88667 401.561 8.435 401.104 8.897C400.651 9.359 400.105 9.723 399.466 9.989C398.827 10.2503 398.117 10.381 397.338 10.381C396.559 10.381 395.849 10.2503 395.21 9.989C394.571 9.723 394.022 9.359 393.565 8.897C393.108 8.435 392.753 7.88667 392.501 7.252C392.254 6.61733 392.13 5.929 392.13 5.187C392.13 4.445 392.254 3.759 392.501 3.129C392.753 2.49433 393.108 1.946 393.565 1.484C394.022 1.022 394.571 0.660334 395.21 0.399C395.849 0.133 396.559 0 397.338 0C398.117 0 398.827 0.133 399.466 0.399C400.105 0.660334 400.651 1.02433 401.104 1.491C401.561 1.953 401.914 2.50133 402.161 3.136C402.413 3.766 402.539 4.44967 402.539 5.187ZM400.39 5.187C400.39 4.655 400.32 4.179 400.18 3.759C400.04 3.33433 399.837 2.975 399.571 2.681C399.31 2.38233 398.99 2.156 398.612 2.002C398.239 1.84333 397.814 1.764 397.338 1.764C396.862 1.764 396.435 1.84333 396.057 2.002C395.679 2.156 395.357 2.38233 395.091 2.681C394.83 2.975 394.629 3.33433 394.489 3.759C394.349 4.179 394.279 4.655 394.279 5.187C394.279 5.72367 394.349 6.20433 394.489 6.629C394.629 7.049 394.83 7.406 395.091 7.7C395.357 7.994 395.679 8.22033 396.057 8.379C396.435 8.533 396.862 8.61 397.338 8.61C397.814 8.61 398.239 8.533 398.612 8.379C398.99 8.22033 399.31 7.994 399.571 7.7C399.837 7.406 400.04 7.049 400.18 6.629C400.32 6.20433 400.39 5.72367 400.39 5.187Z" fill="#49C179"/>
<path d="M408.231 8.589C408.571 8.589 408.877 8.533 409.148 8.421C409.418 8.30433 409.647 8.141 409.834 7.931C410.02 7.721 410.163 7.46667 410.261 7.168C410.359 6.86933 410.408 6.53333 410.408 6.16V0.112H412.508V6.16C412.508 6.776 412.407 7.343 412.207 7.861C412.011 8.37433 411.728 8.81767 411.36 9.191C410.991 9.56433 410.543 9.856 410.016 10.066C409.488 10.276 408.893 10.381 408.231 10.381C407.568 10.381 406.971 10.276 406.439 10.066C405.911 9.856 405.463 9.56433 405.095 9.191C404.726 8.81767 404.441 8.37433 404.241 7.861C404.045 7.343 403.947 6.776 403.947 6.16V0.112H406.047V6.16C406.047 6.53333 406.096 6.86933 406.194 7.168C406.292 7.46667 406.434 7.721 406.621 7.931C406.807 8.141 407.036 8.30433 407.307 8.421C407.577 8.533 407.885 8.589 408.231 8.589Z" fill="#49C179"/>
<path d="M423.205 0.112V10.269H422.12C421.957 10.269 421.819 10.2433 421.707 10.192C421.595 10.136 421.486 10.0427 421.378 9.912L416.317 3.472C416.331 3.63533 416.341 3.79633 416.345 3.955C416.355 4.11367 416.359 4.26067 416.359 4.396V10.269H414.504V0.112H415.61C415.699 0.112 415.774 0.116667 415.834 0.126C415.9 0.130667 415.958 0.147 416.009 0.175001C416.061 0.198334 416.11 0.231 416.156 0.273C416.203 0.315001 416.254 0.371001 416.31 0.441001L421.406 6.909C421.388 6.73167 421.374 6.56133 421.364 6.398C421.355 6.23 421.35 6.07133 421.35 5.922V0.112H423.205Z" fill="#49C179"/>
<path d="M432.522 1.806H429.554V10.269H427.447V1.806H424.479V0.112H432.522V1.806Z" fill="#49C179"/>
</svg>
