<svg width="596" height="404" viewBox="0 0 596 404" fill="none" xmlns="http://www.w3.org/2000/svg">
<path d="M442.228 78.863C442.228 78.863 429.359 79.9408 426.608 78.863C423.858 77.7853 415.348 74.6645 414.737 77.1579C414.125 79.6513 419.032 80.906 419.032 80.906C419.032 80.906 410.297 83.0937 407.868 83.8176C405.439 84.5415 406.806 86.8096 408.769 86.4718C408.769 86.4718 403.702 88.756 405.439 89.9143C405.994 90.2486 406.61 90.4679 407.251 90.5591C407.892 90.6503 408.545 90.6116 409.171 90.4451C409.171 90.4451 406.871 92.3272 409.493 93.4854C411.93 93.277 414.328 92.7357 416.619 91.8768C416.619 91.8768 413.675 94.3862 414.624 95.094C415.573 95.8018 415.3 96.4613 424.083 91.8768C424.083 91.8768 442.421 87.7909 446.507 87.0509" fill="#FFDCCD"/>
<path d="M465.505 42.8782C465.505 42.8782 459.505 61.2486 454.454 66.0906C450.915 69.4848 435.585 74.7128 426.721 77.5439C427.07 83.228 429.109 88.6782 432.577 93.1958C445.59 90.1877 466.711 82.6111 471.891 76.4662C479.484 67.474 482.942 54.3316 482.942 54.3316L465.505 42.8782Z" fill="#2FDC92"/>
<path opacity="0.39" d="M465.505 42.8782C465.505 42.8782 459.505 61.2486 454.454 66.0906C450.915 69.4848 435.585 74.7128 426.721 77.5439C427.07 83.228 429.109 88.6782 432.577 93.1958C445.59 90.1877 466.711 82.6111 471.891 76.4662C479.484 67.474 482.942 54.3316 482.942 54.3316L465.505 42.8782Z" fill="white"/>
<path d="M289.088 398.898L11.5847 234.899C2.75342 229.945 -4.82318 221.789 3.78293 216.464L282.299 55.9563C286.482 53.3664 292.82 51.6774 297.066 54.1386L588.339 223.188C597.17 228.32 598.763 242.653 589.948 247.784L325.668 398.624C320.12 401.845 313.829 403.565 307.414 403.613C300.999 403.661 294.683 402.036 289.088 398.898Z" fill="white"/>
<path style="mix-blend-mode:multiply" opacity="0.63" d="M256.69 367.24C188.179 321.99 148.591 317.534 84.8734 270.723C125.25 249.682 193.841 208.743 218.759 193.155L388.565 292.327L259.875 367.256L256.69 367.24Z" fill="url(#paint0_linear)"/>
<path d="M181.905 256.358L183.61 247.35C183.952 246.028 184.205 244.684 184.367 243.328C184.312 242.166 184.167 241.009 183.932 239.87C183.96 238.838 183.835 237.808 183.562 236.813C183.16 236.17 181.825 235.607 181.23 235.205L177.755 232.792C176.757 232.021 175.989 230.992 175.535 229.816L171.256 221.773L167.733 215.177C167.01 213.826 168.232 211.317 168.57 209.901C168.653 208.933 168.887 207.983 169.262 207.086L171.272 204.496C172.768 202.582 174.055 201.472 173.669 198.753C173.573 198.142 173.203 197.804 173.669 197.354C173.669 197.354 173.508 196.421 173.589 196.115C173.782 195.295 171.98 194.507 172.141 193.735C172.302 192.962 172.334 192.866 171.53 192.399C170.725 191.933 170.951 192.094 170.355 192.399C169.921 192.671 169.521 192.995 169.165 193.365C168.956 193.558 169.551 194.249 169.68 194.491C168.522 194.989 168.57 195.118 168.071 193.863C167.83 194.555 166.672 193.381 166.028 193.268C165.69 193.268 165.465 193.59 165.256 193.445L164.194 192.641C163.471 192.094 162.039 191.418 161.54 190.63C161.042 189.842 161.331 189.021 160.784 188.313C159.417 186.705 158.58 185.338 156.666 184.791C155.186 184.388 152.725 184.276 151.551 183.182L148.462 180.142C147.787 179.482 146.854 180.142 146.033 180.431C144.215 180.994 142.349 179.659 140.612 178.967L136.397 177.262C135.828 177.127 135.284 176.899 134.789 176.587L132.054 173.804C131.202 172.951 131.716 172.436 132.054 171.246C132.279 170.474 130.832 168.93 130.446 168.318C130.042 167.673 129.555 167.083 128.998 166.565L126.038 163.83C125.813 163.621 126.038 162.994 126.151 162.704C126.263 162.415 125.668 161.932 125.507 161.723L124.896 160.935C124.96 162.79 125.051 164.64 125.169 166.485C125.555 166.822 126.022 167.337 125.958 167.804C125.893 168.27 125.588 168.511 125.298 168.463C128.554 210.161 147.529 249.065 178.382 277.302C178.575 275.259 178.817 273.216 179.187 271.222L181.905 256.358Z" fill="#2FDC92"/>
<path d="M453.134 172.131C453.231 172.581 453.231 173.514 452.443 173.096C452.234 172.983 451.992 171.922 451.88 171.664C452.137 171.664 452.362 171.391 452.636 171.343C452.209 170.946 451.667 170.697 451.088 170.63C450.509 170.564 449.924 170.684 449.419 170.973C448.663 171.584 446.829 172.485 446.507 173.482C446.41 173.788 445.815 175.091 445.976 175.364L447.344 177.536C447.987 178.581 448.791 179.498 449.531 180.463C450.271 181.429 450.995 182.072 451.059 183.681C451.059 184.63 451.622 186.898 450.931 187.493C448.996 189.315 446.966 191.033 444.85 192.641C444.142 191.917 445.124 190.823 444.625 190.292L442.695 188.024C442.249 187.409 441.674 186.9 441.009 186.533C440.345 186.166 439.607 185.95 438.85 185.901L439.011 184.694C437.402 184.694 437.692 184.984 437.547 186.737C437.367 187.785 437.042 188.803 436.582 189.761C436.488 190.201 436.488 190.656 436.582 191.096C436.582 191.949 436.582 191.804 437.434 191.772C437.837 191.772 438.335 194.346 438.48 194.812C438.721 195.6 440.249 196.324 440.845 196.775C441.558 197.314 442.155 197.993 442.598 198.769C442.952 199.686 442.598 201.005 442.791 201.987C443.1 202.932 443.47 203.857 443.901 204.754C442.637 204.396 441.489 203.714 440.571 202.775C439.526 201.955 439.461 201.488 438.963 200.121C438.741 198.804 438.318 197.529 437.708 196.34L434.78 193.22C434.346 192.737 434.957 190.179 435.038 189.456C435.052 188.073 434.96 186.691 434.764 185.321C434.496 182.82 433.918 180.361 433.043 178.002L431.434 179.916C430.775 180.721 430.839 180.705 429.826 180.479C428.812 180.254 428.86 180.335 429.021 179.193C429.021 178.694 429.504 177.407 429.295 176.957C428.866 175.404 428.04 173.99 426.898 172.855C425.886 171.739 425.152 170.4 424.758 168.946C424.179 169.348 423.359 170.249 422.667 170.329L419.032 170.828C418.871 170.828 418.115 170.828 417.986 170.973C417.858 171.117 418.147 172.034 417.986 172.259L416.201 174.093L411.133 179.305C410.388 179.825 409.569 180.232 408.704 180.512C407.804 180.946 408.141 181.622 408.158 182.699C408.295 183.767 408.295 184.849 408.158 185.917C407.932 186.737 407.273 188.04 407.498 188.876C407.663 189.956 408.131 190.966 408.849 191.788C409.508 192.655 410.024 193.622 410.377 194.651C411.214 196.582 407.932 198.271 407.691 195.665C407.577 194.548 407.545 193.424 407.594 192.303C407.594 191.177 407.241 191.016 406.485 190.212C406.388 191 406.485 191.82 405.889 192.238L403.83 193.59C401.932 189.986 400.307 186.271 398.651 182.506C398.088 181.48 397.625 180.403 397.267 179.289C397.167 178.451 397.14 177.606 397.187 176.764C397.112 174.361 397.037 171.965 396.962 169.573L395.449 171.664C394.951 172.372 394.886 172.276 394.034 172.243C393.181 172.211 392.007 170.41 391.347 169.702C392.023 169.557 393.439 169.702 393.551 168.704C393.156 168.796 392.75 168.834 392.345 168.817C391.297 168.403 390.303 167.863 389.385 167.208C388.774 166.854 388.388 165.278 388.066 164.618C387.744 163.959 382.645 165.021 381.792 165.133C379.876 165.132 377.973 164.811 376.162 164.184C375.358 164.007 374.425 164.088 374.007 163.267C373.267 161.787 373.444 161.369 371.98 161.9C370.931 162.221 369.811 162.221 368.762 161.9C367.958 161.771 367.443 160.79 366.72 160.436C366.215 160.273 365.759 159.988 365.391 159.607C365.024 159.225 364.756 158.758 364.612 158.248C364.178 157.315 364.001 156.109 363.004 155.964C361.315 155.723 361.395 155.787 360.14 157.171C359.738 157.653 361.154 159.358 361.459 159.857C362.521 161.626 363.422 163.509 364.387 165.326C364.532 164.49 364.66 163.718 364.789 162.849C365.318 164.085 365.523 165.436 365.384 166.774C366.86 166.899 368.345 166.712 369.744 166.227C370.887 165.216 371.897 164.065 372.752 162.801C372.832 163.846 372.575 165.551 373.444 166.131C373.947 166.537 374.485 166.898 375.052 167.208C375.535 167.417 376.114 167.208 376.403 167.771C376.693 168.334 376.95 169.219 377.369 169.283C378.109 169.412 377.803 169.927 377.755 170.699C377.706 171.471 376.146 172.774 375.647 173.337C375.647 173.096 375.422 172.871 375.39 172.629C374.972 173.377 374.75 174.218 374.747 175.075C374.747 175.975 374.409 175.879 373.653 176.249L371.32 177.359C370.854 177.568 370.87 178.871 370.435 179.096C370.001 179.321 369.502 178.79 369.116 178.951L367.411 179.691C366.639 180.045 366.736 181.091 366.028 181.3L362.167 182.683C361.781 182.812 361.717 183.021 361.475 183.391C361.234 183.761 360.768 183.825 360.237 183.922C359.127 184.131 358.017 184.501 356.923 184.791C356.103 185 355.942 185.933 355.057 185.933C353.674 185.933 353.561 186.238 353.288 184.807L352.483 180.463C351.964 178.412 351.058 176.48 349.813 174.769C349.121 173.611 349.025 173.402 347.834 172.951C347.143 172.694 347.159 170.603 347.03 169.879C346.717 168.794 346.251 167.759 345.647 166.806C345.357 166.227 344.681 165.938 344.311 165.294L342.011 161.16C341.625 160.484 341.335 159.294 340.402 159.551C340.515 158.715 340.628 157.862 340.74 157.01L339.743 160.05C338.703 158.925 337.855 157.637 337.234 156.238C336.413 157.267 337.861 158.988 338.327 159.937L341.142 165.696C341.705 166.838 341.496 168.125 342.333 169.026C342.687 169.412 343.588 170.04 343.668 170.635C343.813 171.616 343.974 172.581 344.118 173.546C344.199 174.109 344.118 175.155 344.569 175.605C345.199 176.077 345.777 176.617 346.29 177.214C346.971 178.671 347.51 180.19 347.899 181.75C348.076 182.233 349.507 182.152 349.765 182.555L351.373 184.388C352.242 185.402 354.011 186.512 352.644 187.831C353.561 188.104 354.558 190.003 355.298 189.826L362.843 187.799C363.309 187.686 364.644 187.107 365.03 187.799C365.272 188.217 364.387 190.63 364.274 191.145C363.57 193.153 362.607 195.062 361.411 196.823C360.725 198.38 359.838 199.84 358.773 201.166C355.733 204.384 352.178 207.311 349.909 211.22C349.395 212.073 346.145 216.513 346.692 217.301C347.075 217.753 347.348 218.287 347.49 218.862C347.633 219.436 347.64 220.036 347.513 220.615C347.408 221.123 347.434 221.649 347.588 222.145C347.743 222.64 348.022 223.088 348.397 223.446C349.765 225.296 349.298 228.159 349.411 230.491C349.378 231.393 349.114 232.27 348.644 233.04C348.173 233.809 347.512 234.444 346.724 234.883C345.952 235.253 344.392 235.623 343.813 236.299L341.545 238.953C340.869 239.725 340.065 240.095 340.483 241.108C340.772 241.784 341.802 243.344 341.722 244.068C341.774 245.278 341.639 246.488 341.319 247.655C340.933 248.283 339.019 248.749 338.376 249.055C337.314 249.57 337.539 250.052 337.41 251.371C337.48 252.454 337.371 253.541 337.089 254.589C335.907 256.502 334.607 258.339 333.196 260.09C332.373 260.881 331.509 261.627 330.606 262.326C330.123 262.744 329.19 263.935 328.563 264.063L321.823 265.479L318.718 266.138C318.22 266.235 317.206 264.932 316.852 264.53C315.63 263.436 315.678 263.452 315.855 261.683C315.855 261.007 315.163 259.8 314.922 259.205L313.313 255.28C313.008 254.508 312.043 253.897 311.463 253.334C310.884 252.771 311.077 251.146 310.997 250.599L310.305 246.111C309.867 244.215 309.128 242.401 308.118 240.738L306.396 237.232C306.139 236.717 306.493 235.752 306.573 235.221C306.66 232.745 307.205 230.307 308.182 228.03C309.388 225.907 308.648 224.202 308.182 221.998L306.573 214.84C306.396 214.116 305.447 213.231 304.965 212.7L302.536 209.483C302.101 208.904 302.407 208.148 302.536 207.408C302.696 205.928 302.873 204.432 303.05 202.952C303.227 201.472 303.259 201.601 302.536 200.587C301.812 199.574 301.731 199.316 300.412 199.397C299.656 199.397 298.112 199.928 297.565 199.252L295.232 196.389C294.895 195.97 290.149 196.727 289.554 197.032L286.192 198.753C285.307 199.204 284.921 198.979 283.956 198.753C283.138 198.384 282.219 198.304 281.35 198.528L277.666 199.831C277.087 200.04 276.428 199.252 275.945 198.898L272.406 196.357C271.069 195.587 269.959 194.477 269.189 193.139L264.685 185.305L263.237 182.796C263.012 182.41 263.816 180.946 263.961 180.544C264.218 179.852 264.99 178.581 264.83 177.809C264.556 176.554 264.267 175.316 263.993 174.061C263.614 173.025 263.376 171.943 263.285 170.844C263.52 170.221 263.846 169.635 264.25 169.107L268.594 161.256C269.553 159.738 270.934 158.53 272.567 157.782C273.468 157.203 273.87 157.203 274.047 156.093L274.674 151.943C274.916 150.334 278.165 150.012 278.808 148.42C279.259 147.31 279.452 145.765 280.562 145.46C280.851 145.379 281.656 146.892 282.557 146.698C282.959 146.618 283.876 146.216 284.262 146.409C284.648 146.602 285.291 147.133 285.484 147.02C286.346 146.439 287.238 145.902 288.155 145.412C289.923 144.571 291.803 143.986 293.736 143.674C294.297 143.523 294.878 143.463 295.458 143.497C295.886 143.721 296.348 143.873 296.825 143.948C297.292 143.948 297.726 143.401 298.176 143.304C298.599 143.262 299.024 143.262 299.447 143.304C300.497 143.547 301.599 143.422 302.568 142.95C303.42 142.436 304.176 143.111 305.125 143.497C304.466 144.945 304.337 145.009 305.125 146.393C305.479 147.02 304.128 148.001 303.694 148.468C304.402 149.111 305.302 150.286 306.187 150.511L310.804 151.733C311.994 152.039 311.656 153.342 312.831 153.873C314.005 154.404 314.825 154.146 315.775 154.822C317.126 155.771 317.817 155.996 318.686 154.307C318.879 153.905 318.236 153.294 318.445 152.924C318.654 152.554 318.976 151.669 319.281 151.573C320.463 151.078 321.775 150.987 323.013 151.315C323.351 151.412 323.013 152.087 323.48 152.184L325.571 152.618C326.134 152.731 326.15 153.004 326.44 153.567C326.584 153.857 327.131 153.213 327.373 153.294L330.703 154.275C331.109 154.472 331.56 154.556 332.01 154.52C332.46 154.483 332.891 154.326 333.26 154.066C334.547 153.439 334.66 153.246 335.931 153.857C336.317 154.085 336.748 154.23 337.194 154.282C337.64 154.333 338.092 154.291 338.52 154.158C338.949 154.025 339.345 153.803 339.683 153.507C340.021 153.212 340.294 152.849 340.483 152.441C340.869 151.347 342.655 148.162 342.301 146.698L339.646 146.296C339.523 146.405 339.444 146.555 339.423 146.717C339.403 146.88 339.442 147.045 339.534 147.181C339.228 147.278 336.124 148.146 336.88 146.634C337.105 146.184 338.263 146.425 338.488 146.457C338.752 146.456 339.012 146.39 339.244 146.264C333.882 145.492 328.52 144.795 323.158 144.173V144.269C322.835 144.237 322.516 144.167 322.209 144.06C318.595 143.642 314.981 143.256 311.367 142.902C311.386 142.995 311.413 143.087 311.447 143.176C311.817 143.916 310.305 144.157 310.144 143.562C309.984 142.966 309.324 142.87 308.664 142.645C301.79 142.012 294.905 141.476 288.01 141.036C287.704 141.406 287.447 141.808 287.608 142.146C287.27 142.227 286.482 142.259 286.289 142.58C286.096 142.902 285.742 143.739 285.436 143.755C284.456 143.823 283.472 143.823 282.492 143.755C281.624 143.755 281.109 144.784 280.417 145.009C279.725 145.235 278.68 143.835 279.452 143.288C278.696 143.642 278.342 142.371 277.377 142.918C276.412 143.465 276.058 142.693 275.366 143.224C275.518 142.674 275.594 142.105 275.591 141.535C275.591 141.213 275.591 140.907 275.591 140.586C275.591 140.264 275.591 140.473 275.591 140.457C275.479 140.457 275.318 140.602 275.237 140.457L270.411 140.28C238.578 139.163 206.707 140.778 175.149 145.106L174.699 145.235C175.262 145.235 176.227 145.058 176.082 145.878C176.082 146.216 174.876 146.232 174.554 146.296C174.715 146.393 174.86 146.554 175.036 146.65C174.779 146.731 174.65 146.908 174.329 146.908C174.602 147.583 175.004 146.908 175.455 147.245L174.506 147.76C174.264 147.889 173.91 147.487 173.717 147.599C173.524 147.712 172.945 148.709 172.688 149.111C172.431 149.514 171.819 149.272 171.449 149.723C171.175 150.179 170.821 150.583 170.404 150.913C169.188 151.517 168.258 152.574 167.814 153.857C167.515 154.837 167.596 155.893 168.039 156.817C168.65 158.131 169.156 159.492 169.551 160.886C169.776 161.643 169.969 163.605 169.422 164.104C168.875 164.602 168.65 165.069 168.168 164.393C168.007 164.184 167.122 163.38 167.106 163.316C166.935 162.761 166.714 162.222 166.446 161.707C166.189 161.112 165.883 160.774 166.06 160.098L165.739 160.372C165.481 159.471 166.302 158.184 165.401 157.573C164.5 156.961 164.178 155.964 163.245 156.254C162.747 156.415 162.216 156.785 161.749 156.479C161.315 156.107 160.834 155.793 160.318 155.546C159.497 155.321 158.13 156.415 157.889 155.015C157.728 156.222 155.057 155.353 154.253 155.98C154.8 155.98 156.859 156.286 155.331 157.026C155.492 157.106 156.328 157.396 156.36 157.557C156.381 157.634 156.38 157.715 156.359 157.792C156.338 157.869 156.296 157.939 156.239 157.995C156.181 158.05 156.11 158.09 156.033 158.109C155.955 158.128 155.874 158.126 155.797 158.104C156.023 157.541 155.186 157.331 154.784 157.09C154.864 157.492 154.704 157.621 154.687 157.911C154.317 157.138 153.98 157.911 153.481 157.557C152.982 157.203 152.564 156.624 151.872 156.881C151.454 157.026 150.859 156.64 150.457 156.479C149.701 156.189 148.494 157.058 147.77 157.364C146.58 157.846 143.717 159.97 143.701 161.691C143.701 162.222 144.392 162.752 144.424 163.299C144.36 163.743 144.235 164.176 144.054 164.586C143.698 165.516 143.471 166.49 143.379 167.482C143.251 169.718 143.849 171.935 145.084 173.804C145.888 175.01 146.194 175.863 147.513 176.249C147.786 176.345 148.221 177.021 148.446 176.924L150.055 176.313C150.522 176.125 151.016 176.011 151.518 175.975C151.905 175.975 152.21 176.458 152.419 176.361C152.662 176.283 152.895 176.175 153.111 176.04C153.24 175.927 152.918 175.605 153.111 175.428C153.54 175.145 153.854 174.717 153.996 174.222C154.301 173.176 154.221 171.954 155.315 171.503C156.101 171.222 156.925 171.059 157.76 171.021C158.387 171.021 160.173 170.731 159.61 172.082C159.385 172.613 158.661 174.206 158.275 174.238C158.468 174.351 158.355 174.544 158.806 174.528C158.629 174.672 158.5 174.865 158.339 174.994L158.419 175.107L158.677 174.93C158.437 175.56 158.259 176.212 158.146 176.876C158.005 176.729 157.902 176.549 157.846 176.353C157.79 176.157 157.782 175.95 157.824 175.75C157.652 175.98 157.506 176.228 157.39 176.49C158.226 176.49 157.261 178.099 157.551 178.726C157.84 179.353 156.907 180.335 156.537 180.608C157.738 180.815 158.955 180.912 160.173 180.898C160.672 180.898 161.041 180.512 161.556 180.608C162.176 180.614 162.793 180.701 163.39 180.866C163.922 181.02 164.38 181.363 164.676 181.831C164.973 182.3 165.087 182.86 164.999 183.407C164.87 184.228 164.741 185.016 164.613 185.884C164.613 186.367 164.146 186.785 164.082 187.236C163.808 189.472 166.511 193.123 168.538 192.287C169.792 191.772 170.436 191.257 171.755 191.659C172.863 192.062 173.814 192.806 174.473 193.783C174.473 192.174 176.372 190.051 177.128 188.764C177.353 188.362 178.833 188.137 179.219 187.992L182.436 186.834C183.417 186.48 185.187 187.332 186.152 187.557L193.745 189.327C195.117 189.412 196.438 189.88 197.557 190.678L203.477 196.357C204.732 197.547 207.45 197.579 209.027 197.965C210.603 198.351 211.681 200.796 212.614 202.035L215.461 205.767C215.686 206.073 216.201 207.07 216.555 207.183L222.652 209.386L228.748 211.59C230.483 212.537 232.102 213.681 233.574 215C233.848 215 235.73 215 235.794 215.258C236.003 216.175 236.212 217.076 236.421 217.976C236.872 219.939 236.92 219.907 235.842 221.467L231.869 227.194C231.139 227.951 230.637 228.899 230.421 229.928C230.212 232.743 230.019 235.559 229.81 238.374C229.681 240.24 227.735 242.154 226.786 243.634C226.368 244.261 226.014 245.339 225.177 245.387C224.341 245.436 222.764 245.178 222.153 245.596L216.587 249.425C216.217 249.682 216.233 252.465 216.169 252.948C216.104 253.43 216.169 254.556 215.831 255.023L211.214 260.959L207.064 266.476C206.742 266.878 202.238 264.964 201.611 264.755C201.209 266.283 203.75 266.364 204.008 267.763C204.298 268.576 204.471 269.427 204.522 270.289C204.41 270.868 203.557 271.704 203.252 272.171C202.319 273.538 201.064 273.506 199.568 273.908C198.386 274.249 197.131 274.249 195.949 273.908C196.238 274.841 196.463 275.227 196.125 276.112C195.916 276.659 196.125 277.56 195.852 277.72C194.388 278.75 193.519 278.3 191.991 277.544C191.901 278.388 191.901 279.24 191.991 280.085C192.12 280.632 193.005 281.549 192.78 282.064L191.38 285.088C190.93 286.085 190.753 285.989 189.771 286.23C189.645 286.271 189.526 286.331 189.418 286.407C209.706 302.006 233.336 312.685 258.451 317.604C283.565 322.523 309.479 321.547 334.152 314.754C358.826 307.961 381.587 295.535 400.645 278.455C419.702 261.374 434.537 240.105 443.981 216.32C442.727 215.129 441.569 213.907 440.426 212.668C439.782 212.043 439.239 211.321 438.818 210.528C438.436 209.32 437.895 208.168 437.209 207.102C436.92 206.796 436.469 206.957 436.357 206.491L435.81 204.464C435.504 203.322 434.056 203.563 434.008 202.325C433.96 201.086 432.673 200.957 432.062 200.426C431.788 200.185 430.244 198.239 430.55 197.772C430.855 197.306 432.705 198.223 433.107 198.271C434.41 198.416 434.201 198.914 434.893 199.879C435.56 200.588 436.281 201.244 437.048 201.842C437.804 202.566 438.657 202.839 439.333 203.676C439.67 204.126 440.024 204.078 440.555 204.174C441.424 204.335 440.829 204.464 441.327 204.85C441.826 205.236 442.115 204.85 442.115 205.654C442.115 206.073 443.016 206.008 443.145 206.684C443.274 207.36 442.695 207.327 442.791 207.939C442.888 208.55 443.644 208.453 443.965 208.582C444.287 208.711 444.271 209.756 444.335 210.062C444.448 210.641 445.124 210.609 444.416 211.317C444.583 211.089 444.832 210.934 445.11 210.884C445.388 210.833 445.674 210.89 445.912 211.043L446.105 210.512C446.105 210.4 445.976 210.319 445.896 210.319C445.772 210.35 445.643 210.351 445.52 210.32C445.396 210.289 445.282 210.228 445.188 210.142C445.51 209.74 445.687 209.065 446.121 209.74C446.121 209.595 446.121 209.467 446.121 209.322C446.197 209.311 446.275 209.318 446.348 209.344C446.42 209.369 446.486 209.411 446.539 209.467C450.879 196.913 453.682 183.879 454.888 170.651L453.488 171.166C452.861 171.423 452.99 171.423 453.134 172.131ZM324.172 145.717C324.467 145.97 324.816 146.153 325.192 146.253C325.567 146.353 325.961 146.368 326.343 146.296C326.842 146.296 327.952 146.425 327.952 146.988C326.566 147.073 325.175 146.904 323.85 146.489C323.906 146.209 324.015 145.941 324.172 145.701V145.717ZM173.975 177.504C173.361 177.309 172.789 177.004 172.286 176.603C172.913 175.67 174.248 176.426 175.02 176.683C175.152 176.856 175.271 177.039 175.374 177.23C174.731 177.021 174.313 177.6 173.975 177.504ZM176.565 173.868C175.406 173.772 174.264 174.045 173.122 173.868C173.267 173.707 174.039 173.128 174.039 172.935C174.039 172.308 173.138 172.549 172.897 172.436C171.98 172.002 171.948 171.021 171.111 170.908C170.275 170.796 169.503 170.184 168.586 170.152C168.071 170.152 168.023 169.766 167.556 169.911C167.352 169.961 167.138 169.95 166.94 169.878C166.743 169.807 166.571 169.678 166.446 169.509C166.582 169.537 166.722 169.537 166.857 169.51C166.993 169.482 167.121 169.427 167.235 169.348C165.706 167.739 164.017 171.262 162.409 170.458C163.181 169.975 163.438 169.042 164.404 168.849C165.487 168.493 166.627 168.34 167.766 168.399C169.85 168.745 171.82 169.589 173.508 170.86L173.621 170.635C173.908 171.009 174.279 171.312 174.703 171.519C175.127 171.725 175.594 171.83 176.066 171.825C176.259 171.825 176.5 172.469 176.919 172.533C177.462 172.686 177.956 172.98 178.35 173.385C177.771 173.514 177.176 173.707 176.565 173.868ZM185.991 176.345C185.09 176.345 184.527 176.603 183.739 176.635C183.578 176.635 183.466 176.201 183.015 176.506C182.565 176.812 182.758 177.664 182.484 177.761C181.857 177.986 181.954 176.924 181.728 176.796C181.503 176.667 180.876 176.796 180.522 176.796C179.364 176.619 178.913 177.117 178.045 176.442C177.723 175.461 180.474 176.571 181.133 176.088C180.458 175.075 180.57 174.721 179.525 174.206C180.57 173.723 180.876 174.061 181.97 174.077C182.307 174.039 182.638 173.952 182.951 173.82C183.305 173.627 183.9 174.013 184.27 174.125C184.64 174.238 184.785 173.916 185.074 174.463C185.364 175.01 185.493 175.203 186.232 175.348C186.538 175.348 187.23 175.831 187.037 176.152C186.538 176.941 186.667 176.394 185.991 176.394V176.345ZM188.903 176.924C188.404 175.686 190.19 176.249 190.849 176.297L191.09 176.554C190.753 177.085 189.257 177.793 188.903 176.924ZM363.374 233.226L362.601 232.47C362.799 234.181 362.6 235.915 362.022 237.537C361.132 240.508 360.242 243.484 359.352 246.465C359.111 247.285 358.853 248.074 358.612 248.91C358.612 249.023 356.666 249.586 356.408 249.714C356.151 249.843 354.221 249.216 354.156 248.814C354.027 247.73 353.828 246.655 353.561 245.596C353.13 244.578 353.062 243.442 353.368 242.379C353.69 241.414 354.816 240.417 354.977 239.403C354.883 238.265 354.634 237.144 354.237 236.073C354.124 235.559 354.591 233.596 355.025 233.532C356.069 233.327 357.073 232.958 358.001 232.438C358.966 231.955 359.304 231.151 360.028 230.314C360.752 229.478 361.347 229.269 361.411 227.789C361.492 225.939 362.73 227.789 363.116 228.4C363.486 230.218 364.049 231.553 363.374 233.162V233.226ZM453.955 174.399C453.424 174.399 453.295 175.091 453.215 175.605C453.135 176.12 452.443 176.168 452.089 176.345C451.735 176.522 452.218 176.747 451.815 176.715C451.524 176.719 451.238 176.635 450.995 176.474C450.223 176.04 450.384 175.847 450.4 174.865C451.349 174.254 452.009 172.999 453.376 173.772V173.418C453.955 173.498 454.068 173.9 453.955 174.399Z" fill="#2FDC92"/>
<path d="M188.903 176.924C189.257 177.793 190.753 177.101 191.09 176.554L190.849 176.297C190.141 176.249 188.404 175.686 188.903 176.924Z" fill="white"/>
<path d="M186.184 175.364C185.444 175.203 185.396 175.203 185.026 174.479C184.656 173.755 184.704 174.302 184.222 174.142C183.739 173.981 183.257 173.643 182.903 173.836C182.59 173.968 182.259 174.055 181.921 174.093C180.828 174.093 180.522 173.739 179.476 174.222C180.57 174.737 180.442 175.091 181.085 176.104C180.425 176.587 177.675 175.477 177.996 176.458C178.929 177.117 179.315 176.635 180.474 176.812C180.811 176.812 181.374 176.667 181.68 176.812C181.986 176.957 181.809 178.002 182.436 177.777C182.71 177.68 182.71 176.699 182.967 176.522C183.224 176.345 183.53 176.651 183.691 176.651C184.495 176.651 185.042 176.361 185.943 176.361C186.844 176.361 186.474 176.957 186.94 176.168C187.182 175.831 186.49 175.428 186.184 175.364Z" fill="white"/>
<path d="M363.1 228.416C362.714 227.885 361.492 225.955 361.395 227.805C361.395 229.285 360.929 229.285 360.012 230.331C359.095 231.376 358.95 231.939 357.985 232.454C357.057 232.974 356.053 233.343 355.009 233.548C354.575 233.548 354.108 235.575 354.221 236.089C354.619 237.16 354.867 238.281 354.961 239.419C354.848 240.433 353.722 241.43 353.352 242.395C353.046 243.458 353.114 244.594 353.545 245.612C353.812 246.671 354.011 247.746 354.14 248.83C354.14 249.232 356.022 249.907 356.392 249.731C356.762 249.554 358.564 249.039 358.596 248.926C358.837 248.106 359.079 247.318 359.336 246.481C360.226 243.511 361.116 240.535 362.006 237.553C362.584 235.931 362.783 234.197 362.585 232.486L363.358 233.242C364.017 231.634 363.47 230.298 363.132 228.577L363.1 228.416Z" fill="white"/>
<path d="M453.36 173.772C452.008 173.015 451.333 174.254 450.384 174.865C450.384 175.831 450.223 176.024 450.979 176.474C451.222 176.635 451.508 176.719 451.799 176.715C452.217 176.715 451.799 176.458 452.073 176.345C452.346 176.233 453.134 176.168 453.199 175.605C453.263 175.042 453.392 174.367 453.939 174.399C454.051 173.884 453.939 173.498 453.424 173.418L453.36 173.772Z" fill="white"/>
<path d="M418.565 163.171C395.047 157.943 371.803 151.396 347.995 147.583C346.097 147.278 344.215 147.004 342.317 146.715C342.655 148.178 340.885 151.347 340.499 152.457C340.31 152.865 340.038 153.228 339.7 153.523C339.362 153.819 338.965 154.041 338.537 154.174C338.108 154.307 337.656 154.349 337.21 154.298C336.764 154.246 336.334 154.101 335.947 153.873C334.676 153.262 334.563 153.455 333.276 154.082C332.908 154.342 332.476 154.499 332.026 154.536C331.576 154.572 331.125 154.488 330.719 154.291L327.389 153.31C327.148 153.31 326.601 153.873 326.456 153.583C326.166 153.02 326.15 152.747 325.587 152.634L323.496 152.2C323.062 152.12 323.367 151.428 323.03 151.331C321.791 151.003 320.479 151.094 319.298 151.589C318.992 151.669 318.638 152.634 318.461 152.94C318.284 153.246 318.911 153.921 318.702 154.323C317.834 156.028 317.094 155.787 315.791 154.838C314.842 154.163 313.86 154.339 312.847 153.889C311.834 153.439 312.011 152.071 310.82 151.75L306.203 150.527C305.303 150.286 304.434 149.111 303.71 148.484C304.16 148.001 305.496 147.036 305.142 146.409C304.402 145.026 304.53 144.961 305.142 143.513C304.257 143.143 303.453 142.452 302.584 142.967C301.615 143.438 300.513 143.563 299.463 143.32C299.041 143.278 298.615 143.278 298.192 143.32C297.742 143.401 297.308 143.932 296.841 143.964C296.364 143.889 295.902 143.737 295.474 143.513C294.894 143.479 294.313 143.539 293.753 143.69C291.819 144.002 289.94 144.587 288.171 145.428C287.254 145.918 286.362 146.455 285.5 147.036C285.307 147.149 284.487 146.538 284.278 146.425C284.069 146.312 282.975 146.634 282.573 146.715C281.672 146.908 280.868 145.396 280.578 145.476C279.468 145.798 279.275 147.342 278.825 148.436C278.197 150.044 274.948 150.334 274.691 151.959L274.063 156.109C273.902 157.219 273.484 157.235 272.583 157.798C270.95 158.546 269.57 159.754 268.61 161.273L264.267 169.123C263.862 169.652 263.537 170.237 263.302 170.86C263.392 171.959 263.63 173.041 264.009 174.077C264.299 175.332 264.572 176.571 264.846 177.825C265.007 178.597 264.235 179.868 263.977 180.56C263.832 180.962 263.028 182.426 263.253 182.812L264.701 185.321L269.205 193.155C269.975 194.493 271.085 195.603 272.422 196.373L275.961 198.914C276.428 199.252 277.087 200.056 277.683 199.847L281.366 198.544C282.235 198.321 283.155 198.4 283.972 198.77C284.937 199.027 285.324 199.252 286.208 198.77L289.57 197.048C290.165 196.743 294.911 196.003 295.249 196.405L297.581 199.268C298.128 199.944 299.656 199.445 300.428 199.413C301.748 199.333 301.699 199.413 302.552 200.603C303.404 201.794 303.227 201.697 303.067 202.968C302.906 204.239 302.713 205.944 302.552 207.424C302.455 208.164 302.15 208.92 302.552 209.499L304.981 212.716C305.399 213.279 306.364 214.132 306.589 214.856L308.198 222.014C308.713 224.218 309.453 225.907 308.198 228.046C307.221 230.323 306.676 232.761 306.589 235.237C306.589 235.768 306.155 236.733 306.413 237.248L308.134 240.754C309.145 242.417 309.883 244.231 310.321 246.127L311.013 250.615C311.094 251.162 311.013 252.964 311.48 253.35C311.946 253.736 313.088 254.524 313.33 255.296L314.938 259.221C315.179 259.817 315.936 261.023 315.871 261.699C315.694 263.452 315.646 263.436 316.869 264.546C317.222 264.884 318.236 266.155 318.735 266.155L321.839 265.495L328.579 264.079C329.207 263.951 330.188 262.76 330.622 262.342C331.525 261.644 332.389 260.897 333.212 260.106C334.623 258.355 335.923 256.518 337.105 254.605C337.387 253.557 337.496 252.47 337.427 251.387C337.555 250.068 337.314 249.586 338.392 249.071C339.035 248.765 340.933 248.299 341.336 247.672C341.655 246.504 341.791 245.294 341.738 244.084C341.738 243.344 340.789 241.784 340.499 241.124C340.081 240.111 340.885 239.757 341.561 238.969L343.829 236.315C344.408 235.639 345.968 235.269 346.741 234.899C347.528 234.46 348.189 233.825 348.66 233.056C349.13 232.286 349.395 231.409 349.427 230.508C349.314 228.191 349.781 225.312 348.414 223.462C348.038 223.104 347.759 222.656 347.605 222.161C347.45 221.665 347.424 221.139 347.529 220.631C347.656 220.052 347.649 219.453 347.507 218.878C347.364 218.303 347.091 217.769 346.708 217.317C346.178 216.529 349.427 212.089 349.926 211.236C352.21 207.327 355.749 204.368 358.789 201.182C359.854 199.856 360.741 198.396 361.427 196.839C362.623 195.078 363.586 193.169 364.291 191.161C364.403 190.646 365.288 188.233 365.047 187.815C364.661 187.139 363.309 187.702 362.859 187.815L355.315 189.842C354.575 190.035 353.577 188.137 352.66 187.847C354.028 186.528 352.258 185.418 351.39 184.405L349.781 182.571C349.443 182.169 348.076 182.249 347.915 181.766C347.526 180.206 346.987 178.687 346.306 177.23C345.793 176.633 345.216 176.093 344.585 175.621C344.151 175.203 344.215 174.125 344.135 173.562C343.974 172.581 343.829 171.616 343.684 170.651C343.588 170.088 342.703 169.46 342.349 169.042C341.513 168.141 341.722 166.855 341.159 165.712L338.344 159.954C337.877 159.021 336.445 157.283 337.25 156.254C337.872 157.653 338.719 158.941 339.759 160.066L340.757 157.026C340.644 157.878 340.515 158.731 340.419 159.567C341.32 159.326 341.609 160.517 342.027 161.176L344.328 165.31C344.682 165.954 345.373 166.243 345.663 166.822C346.267 167.776 346.733 168.81 347.046 169.895C347.175 170.619 347.175 172.71 347.851 172.967C349.041 173.418 349.154 173.627 349.829 174.785C351.074 176.496 351.98 178.429 352.499 180.479L353.304 184.823C353.577 186.254 353.69 185.949 355.073 185.949C355.958 185.949 356.135 185.016 356.939 184.807C358.033 184.517 359.127 184.147 360.253 183.938C360.784 183.842 361.186 183.938 361.492 183.407C361.797 182.876 361.797 182.828 362.183 182.699L366.044 181.316C366.768 181.059 366.655 180.013 367.427 179.707L369.133 178.967C369.519 178.807 370.098 179.273 370.452 179.112C370.806 178.951 370.886 177.6 371.336 177.375L373.669 176.265C374.425 175.895 374.763 175.991 374.763 175.091C374.766 174.234 374.988 173.393 375.406 172.646C375.406 172.887 375.615 173.112 375.664 173.353C376.146 172.774 377.739 171.471 377.771 170.715C377.803 169.959 378.125 169.428 377.385 169.3C376.967 169.3 376.629 168.174 376.42 167.787C376.21 167.401 375.567 167.45 375.068 167.224C374.501 166.914 373.963 166.553 373.46 166.147C372.607 165.568 372.865 163.862 372.768 162.817C371.914 164.081 370.903 165.232 369.76 166.243C368.361 166.728 366.876 166.915 365.401 166.79C365.54 165.452 365.335 164.101 364.805 162.865C364.677 163.702 364.548 164.474 364.403 165.342C363.438 163.509 362.537 161.643 361.476 159.873C361.17 159.374 359.77 157.669 360.156 157.187C361.331 155.803 361.315 155.739 363.02 155.98C364.001 156.125 364.178 157.331 364.628 158.264C364.772 158.774 365.04 159.241 365.408 159.623C365.775 160.004 366.231 160.289 366.736 160.452C367.476 160.79 367.974 161.787 368.779 161.916C369.827 162.237 370.947 162.237 371.996 161.916C373.46 161.385 373.283 161.803 374.023 163.283C374.441 164.104 375.374 164.023 376.178 164.2C377.989 164.827 379.892 165.148 381.808 165.149C382.661 165.037 387.744 163.911 388.082 164.635C388.42 165.358 388.79 166.871 389.401 167.224C390.319 167.879 391.313 168.419 392.361 168.833C392.766 168.85 393.172 168.812 393.567 168.72C393.455 169.653 391.959 169.557 391.364 169.718C392.023 170.426 393.117 172.227 394.05 172.259C394.983 172.292 394.951 172.388 395.466 171.68L396.978 169.589C397.053 171.981 397.128 174.377 397.203 176.78C397.156 177.622 397.183 178.467 397.283 179.305C397.641 180.419 398.104 181.496 398.667 182.522C400.275 186.271 401.884 189.986 403.847 193.606L405.906 192.255C406.549 191.836 406.404 191.016 406.501 190.228C407.257 191.032 407.659 191.193 407.611 192.319C407.561 193.44 407.593 194.564 407.707 195.681C407.949 198.287 411.214 196.598 410.394 194.668C410.04 193.638 409.524 192.671 408.865 191.804C408.147 190.982 407.679 189.972 407.514 188.893C407.289 188.056 407.949 186.753 408.174 185.933C408.311 184.865 408.311 183.784 408.174 182.715C408.174 181.638 407.82 180.978 408.721 180.528C409.585 180.248 410.404 179.841 411.15 179.321L416.217 174.109L418.002 172.276C418.228 172.05 417.874 171.23 418.002 170.989C418.131 170.747 418.887 170.86 419.048 170.844L422.683 170.345C423.375 170.249 424.196 169.364 424.775 168.962C425.169 170.416 425.902 171.755 426.914 172.871C428.056 174.007 428.882 175.42 429.311 176.973C429.504 177.423 429.102 178.71 429.038 179.209C428.877 180.351 428.796 180.254 429.842 180.496C430.887 180.737 430.775 180.737 431.45 179.933L433.059 178.018C433.958 180.379 434.557 182.844 434.845 185.354C435.041 186.723 435.132 188.105 435.118 189.488C435.118 190.212 434.426 192.705 434.861 193.252L437.788 196.373C438.398 197.561 438.822 198.836 439.043 200.153C439.494 201.52 439.558 201.987 440.652 202.807C441.57 203.746 442.718 204.429 443.982 204.786C443.551 203.889 443.18 202.965 442.872 202.019C442.646 201.038 443.033 199.735 442.679 198.802C442.235 198.025 441.639 197.346 440.925 196.807C440.33 196.34 438.786 195.633 438.561 194.844C438.416 194.378 437.917 191.788 437.515 191.804C436.727 191.804 436.727 191.981 436.662 191.129C436.569 190.688 436.569 190.234 436.662 189.793C437.123 188.835 437.447 187.817 437.628 186.769C437.756 185.016 437.467 184.791 439.091 184.726L438.931 185.933C439.688 185.982 440.425 186.198 441.09 186.565C441.754 186.932 442.33 187.441 442.775 188.056L444.818 190.276C445.333 190.807 444.352 191.885 445.043 192.625C447.159 191.017 449.189 189.299 451.124 187.477C451.832 186.817 451.301 184.598 451.253 183.665C451.253 182.056 450.657 181.718 449.724 180.447C448.791 179.177 448.116 178.565 447.537 177.52L446.169 175.348C446.008 175.091 446.62 173.739 446.7 173.466C447.006 172.469 448.84 171.552 449.612 170.956C450.117 170.667 450.702 170.547 451.281 170.614C451.86 170.681 452.402 170.93 452.829 171.326C452.572 171.326 452.346 171.584 452.073 171.648C452.169 171.922 452.411 172.967 452.636 173.08C453.44 173.498 453.424 172.565 453.328 172.115C453.199 171.423 453.054 171.407 453.649 171.198L455.049 170.683C455.049 170.442 455.741 154.484 455.757 154.243C443.242 152.683 430.373 165.809 418.565 163.171Z" fill="white"/>
<path d="M275.511 140.505C275.511 140.505 275.511 140.505 275.511 140.634C275.511 140.763 275.511 141.277 275.511 141.583C275.513 142.154 275.437 142.722 275.286 143.272C275.977 142.757 276.54 143.417 277.296 142.967C278.052 142.516 278.615 143.706 279.372 143.337C278.599 143.883 279.709 145.267 280.337 145.058C280.964 144.849 281.543 143.771 282.412 143.803C283.392 143.871 284.376 143.871 285.356 143.803C285.661 143.803 286.031 142.902 286.208 142.629C286.385 142.355 287.189 142.291 287.527 142.194C287.366 141.857 287.624 141.454 287.929 141.084C283.865 140.859 279.725 140.666 275.511 140.505Z" fill="white"/>
<path d="M176.951 172.469C176.516 172.469 176.291 171.745 176.098 171.761C175.626 171.766 175.16 171.661 174.735 171.454C174.311 171.248 173.94 170.945 173.653 170.57L173.54 170.796C171.846 169.528 169.87 168.689 167.782 168.35C166.643 168.292 165.503 168.445 164.42 168.801C163.454 169.042 163.197 169.975 162.425 170.41C164.034 171.214 165.642 167.755 167.251 169.3C167.137 169.379 167.009 169.434 166.873 169.462C166.738 169.489 166.598 169.489 166.463 169.46C166.587 169.63 166.759 169.758 166.956 169.83C167.154 169.902 167.368 169.913 167.573 169.863C168.055 169.718 168.103 170.088 168.602 170.104C169.439 170.104 170.211 170.731 171.128 170.86C172.044 170.989 171.98 171.954 172.913 172.388C173.154 172.501 174.055 172.259 174.055 172.887C174.055 173.096 173.283 173.675 173.138 173.82C174.264 174.029 175.423 173.739 176.581 173.82C177.192 173.659 177.787 173.466 178.399 173.289C177.996 172.893 177.497 172.61 176.951 172.469Z" fill="white"/>
<path d="M172.286 176.603C172.789 177.004 173.361 177.309 173.975 177.504C174.312 177.6 174.731 177.037 175.358 177.246C175.255 177.055 175.136 176.872 175.004 176.699C174.232 176.394 172.897 175.67 172.286 176.603Z" fill="white"/>
<path d="M444.448 211.365C445.14 210.673 444.448 210.705 444.368 210.11C444.368 209.805 444.271 208.759 443.998 208.63C443.724 208.502 442.888 208.373 442.823 207.987C442.759 207.601 443.274 207.199 443.177 206.732C443.081 206.266 442.148 206.121 442.148 205.703C442.148 204.931 441.858 205.284 441.36 204.898C440.861 204.512 441.456 204.384 440.587 204.223C440.057 204.126 439.687 204.223 439.365 203.724C438.754 202.888 437.756 202.614 437.081 201.89C436.313 201.292 435.593 200.636 434.925 199.928C434.233 198.946 434.443 198.448 433.14 198.319C432.737 198.319 430.791 197.531 430.582 197.82C430.373 198.11 431.82 200.233 432.094 200.475C432.689 201.006 433.992 201.263 434.04 202.373C434.089 203.483 435.536 203.37 435.842 204.512L436.389 206.539C436.518 207.006 436.952 206.845 437.242 207.15C437.927 208.216 438.468 209.368 438.85 210.577C439.272 211.369 439.814 212.091 440.459 212.716C441.585 213.955 442.743 215.177 444.014 216.368C444.689 214.647 445.349 212.893 445.976 211.14C445.742 210.972 445.452 210.901 445.167 210.943C444.881 210.985 444.624 211.136 444.448 211.365Z" fill="white"/>
<path d="M327.92 146.972C327.92 146.409 326.842 146.216 326.311 146.28C325.929 146.352 325.535 146.337 325.16 146.237C324.784 146.137 324.435 145.954 324.139 145.701C323.974 145.934 323.853 146.196 323.786 146.473C325.121 146.891 326.523 147.061 327.92 146.972Z" fill="white"/>
<path d="M446.153 209.789C445.719 209.113 445.526 209.789 445.22 210.191C445.315 210.276 445.429 210.337 445.552 210.368C445.675 210.399 445.805 210.399 445.928 210.368C445.928 210.368 446.073 210.448 446.137 210.561L446.507 209.515C446.454 209.459 446.388 209.417 446.316 209.392C446.243 209.367 446.165 209.359 446.089 209.37C446.089 209.515 446.121 209.66 446.153 209.789Z" fill="white"/>
<path d="M294.106 138.301C293.56 137.272 293.206 137.787 292.401 138.301L293.302 139.025L294.106 138.301Z" fill="white"/>
<path d="M235.794 215.322C235.794 215.113 233.863 215.081 233.59 215.065C232.095 213.695 230.443 212.507 228.668 211.526L222.571 209.322L216.474 207.118C216.12 206.99 215.606 206.008 215.38 205.703L212.533 201.971C211.6 200.748 210.426 198.271 208.946 197.901C207.466 197.531 204.635 197.483 203.396 196.292L197.476 190.614C196.357 189.816 195.036 189.348 193.664 189.263L186.071 187.493C185.106 187.268 183.337 186.415 182.355 186.769L179.138 187.927C178.752 188.072 177.272 188.313 177.047 188.7C176.291 189.986 174.328 192.126 174.393 193.718C173.734 192.741 172.782 191.998 171.674 191.595C170.355 191.193 169.712 191.708 168.457 192.222C166.43 193.059 163.712 189.407 164.001 187.171C164.001 186.721 164.452 186.303 164.532 185.82C164.661 185 164.789 184.212 164.918 183.343C165.007 182.796 164.892 182.235 164.596 181.767C164.299 181.299 163.842 180.955 163.309 180.801C162.712 180.636 162.095 180.55 161.476 180.544C160.977 180.463 160.607 180.914 160.092 180.833C158.874 180.848 157.657 180.751 156.457 180.544C156.827 180.206 157.728 179.209 157.47 178.662C157.213 178.115 158.146 176.458 157.309 176.426C157.426 176.164 157.571 175.915 157.744 175.686C157.702 175.886 157.709 176.092 157.765 176.289C157.821 176.485 157.924 176.664 158.065 176.812C158.179 176.147 158.356 175.495 158.596 174.865L158.339 175.042L158.258 174.93C158.435 174.817 158.564 174.608 158.725 174.463C158.274 174.463 158.387 174.286 158.194 174.174C158.58 174.174 159.304 172.565 159.529 172.018C160.092 170.667 158.307 171.037 157.679 170.956C156.845 170.995 156.021 171.157 155.234 171.439C154.124 171.873 154.221 173.048 153.915 174.158C153.774 174.653 153.46 175.08 153.03 175.364C152.837 175.541 153.159 175.863 153.03 175.975C152.814 176.111 152.582 176.219 152.339 176.297C152.146 176.394 151.824 175.879 151.438 175.911C150.935 175.947 150.441 176.061 149.974 176.249L148.365 176.86C148.124 176.941 147.706 176.265 147.432 176.184C146.113 175.798 145.824 174.946 145.003 173.739C143.769 171.871 143.17 169.653 143.298 167.418C143.39 166.426 143.617 165.452 143.974 164.522C144.155 164.112 144.279 163.679 144.344 163.235C144.344 162.704 143.604 162.173 143.62 161.627C143.62 159.905 146.483 157.798 147.69 157.299C148.414 156.994 149.62 156.125 150.376 156.415C150.778 156.575 151.373 156.962 151.792 156.817C152.532 156.559 152.821 157.01 153.4 157.492C153.979 157.975 154.237 157.058 154.607 157.846C154.607 157.541 154.784 157.412 154.703 157.026C155.105 157.283 155.926 157.476 155.717 158.039C155.793 158.062 155.875 158.064 155.952 158.045C156.03 158.025 156.101 157.986 156.158 157.93C156.215 157.875 156.257 157.805 156.278 157.728C156.3 157.651 156.3 157.57 156.28 157.492C156.28 157.348 155.411 157.058 155.25 156.961C156.859 156.222 154.735 155.964 154.172 155.916C154.961 155.289 157.647 156.157 157.808 154.951C158.049 156.334 159.417 155.256 160.237 155.482C160.753 155.729 161.234 156.042 161.669 156.415C162.135 156.72 162.666 156.415 163.165 156.189C164.098 155.884 164.532 156.961 165.32 157.508C166.108 158.055 165.32 159.407 165.658 160.307L165.98 160.034C165.803 160.726 166.092 161.08 166.366 161.643C166.634 162.158 166.854 162.696 167.025 163.251C167.025 163.251 167.926 164.12 168.087 164.329C168.57 165.021 168.923 164.458 169.342 164.039C169.76 163.621 169.696 161.546 169.47 160.822C169.075 159.428 168.569 158.067 167.958 156.752C167.515 155.829 167.434 154.772 167.733 153.793C168.177 152.51 169.107 151.453 170.323 150.849C170.741 150.518 171.095 150.115 171.369 149.658C171.722 149.208 172.398 149.337 172.607 149.047C172.816 148.758 173.251 147.76 173.637 147.535C174.023 147.31 174.168 147.825 174.425 147.696L175.374 147.181C174.924 146.908 174.521 147.519 174.248 146.843C174.57 146.843 174.698 146.682 174.956 146.586C174.779 146.489 174.65 146.329 174.473 146.232C174.779 146.232 175.937 146.232 176.001 145.814C176.146 144.977 175.181 145.17 174.618 145.17L175.068 145.042C158.112 147.42 141.323 150.864 124.799 155.353V155.482C124.799 157.299 124.799 159.101 124.896 160.919L125.507 161.707C125.668 161.916 126.215 162.399 126.15 162.688C126.086 162.978 125.813 163.605 126.038 163.814L128.998 166.549C129.555 167.067 130.042 167.657 130.445 168.302C130.847 168.914 132.295 170.458 132.054 171.23C131.7 172.42 131.201 172.935 132.054 173.788L134.789 176.571C135.284 176.882 135.828 177.111 136.397 177.246L140.612 178.951C142.349 179.659 144.215 180.978 146.033 180.415C146.837 180.158 147.786 179.466 148.462 180.126L151.534 183.15C152.709 184.292 155.17 184.405 156.65 184.758C158.564 185.305 159.4 186.705 160.768 188.281C161.315 188.909 161.09 189.89 161.524 190.598C161.958 191.306 163.454 192.062 164.178 192.608L165.24 193.413C165.449 193.558 165.674 193.172 166.012 193.236C166.655 193.365 167.814 194.523 168.055 193.831C168.586 195.102 168.537 194.957 169.663 194.458C169.535 194.217 168.94 193.525 169.149 193.332C169.505 192.963 169.904 192.639 170.339 192.367C170.934 192.045 170.934 191.997 171.513 192.367C172.092 192.737 172.382 192.705 172.125 193.702C171.867 194.7 173.733 195.311 173.572 196.083C173.572 196.389 173.717 197.273 173.653 197.322C173.202 197.772 173.572 198.11 173.653 198.721C174.039 201.424 172.752 202.534 171.256 204.464L169.229 207.086C168.854 207.983 168.621 208.933 168.537 209.901C168.2 211.317 166.929 213.81 167.701 215.177L171.224 221.773L175.503 229.816C175.957 230.992 176.725 232.021 177.723 232.792L181.197 235.205C181.792 235.623 183.128 236.186 183.53 236.813C183.803 237.808 183.927 238.838 183.9 239.87C184.135 241.009 184.28 242.166 184.334 243.328C184.172 244.684 183.92 246.028 183.578 247.35L181.873 256.358L179.058 271.19C178.688 273.168 178.447 275.211 178.253 277.27C181.792 280.487 185.465 283.576 189.273 286.536C189.381 286.459 189.5 286.4 189.626 286.359C190.656 286.118 190.817 286.214 191.235 285.217L192.635 282.192C192.876 281.662 191.975 280.745 191.846 280.214C191.756 279.369 191.756 278.517 191.846 277.672C193.455 278.444 194.243 278.879 195.707 277.849C196.029 277.624 195.707 276.723 195.98 276.241C196.318 275.356 196.093 274.97 195.804 274.037C196.986 274.378 198.241 274.378 199.423 274.037C200.919 273.635 202.174 273.667 203.107 272.299C203.428 271.833 204.265 270.996 204.377 270.417C204.326 269.555 204.153 268.705 203.863 267.892C203.605 266.573 201.064 266.412 201.466 264.884C202.158 265.093 206.581 267.007 206.919 266.605L211.15 261.168L215.766 255.232C216.136 254.766 216.04 253.752 216.104 253.157C216.169 252.562 216.104 249.94 216.523 249.634L222.088 245.806C222.7 245.387 224.389 245.645 225.113 245.596C225.836 245.548 226.223 244.486 226.721 243.843C227.686 242.363 229.617 240.449 229.745 238.583C229.938 235.768 230.148 232.953 230.357 230.138C230.573 229.108 231.074 228.16 231.804 227.403L235.778 221.676C236.855 220.068 236.807 220.148 236.357 218.186C236.212 217.14 236.003 216.239 235.794 215.322Z" fill="white"/>
<path d="M125.942 167.755C125.942 167.289 125.539 166.774 125.153 166.436C125.153 167.096 125.234 167.771 125.282 168.431C125.572 168.463 125.797 168.254 125.942 167.755Z" fill="white"/>
<path d="M301.57 136.918C301.57 137.143 301.217 137.562 301.168 137.803C301.12 138.044 301.538 138.125 301.522 138.253C301.41 138.945 300.83 139.009 301.394 139.556C301.957 140.103 302.294 140.023 302.359 139.315C302.359 138.913 303.002 139.315 303.083 138.559C303.163 137.803 303.276 137.047 303.372 136.275C303.565 134.666 301.763 135.647 301.377 135.937L300.927 135.76C300.637 136.596 301.458 136.355 301.57 136.918Z" fill="white"/>
<g style="mix-blend-mode:multiply" opacity="0.6">
<path d="M334.032 275.485C267.484 262.616 220.947 205.638 203.927 142.403L203.783 141.857C176.883 143.9 150.235 148.462 124.188 155.482C124.207 188.163 133.911 220.105 152.076 247.273C170.241 274.441 196.05 295.616 226.244 308.122C256.437 320.628 289.66 323.904 321.715 317.537C353.77 311.17 383.218 295.444 406.34 272.348C382.799 278.936 358.056 280.009 334.032 275.485Z" fill="#81DEA6"/>
</g>
<path d="M290.181 220.518C381.501 220.518 455.531 189.448 455.531 151.122C455.531 112.796 381.501 81.7264 290.181 81.7264C198.861 81.7264 124.831 112.796 124.831 151.122C124.831 189.448 198.861 220.518 290.181 220.518Z" fill="#CFFFE2"/>
<path style="mix-blend-mode:multiply" opacity="0.68" d="M256.69 128.425C262.529 124.982 263.575 124.097 269.157 120.237L264.331 111.518L244.336 120.961C247.746 123.904 253.151 125.642 256.69 128.425Z" fill="url(#paint1_linear)"/>
<path d="M266.358 67.281H263.671C262.125 67.281 260.872 68.5341 260.872 70.08V119.368C260.872 120.914 262.125 122.167 263.671 122.167H266.358C267.904 122.167 269.157 120.914 269.157 119.368V70.08C269.157 68.5341 267.904 67.281 266.358 67.281Z" fill="#4D4D4D"/>
<path d="M285.452 78.5091C283.554 70.2248 275.076 33.7252 260.036 44.4869C252.331 49.9883 250.159 58.5784 247.086 67.0075C244.275 73.9366 242.643 81.2879 242.261 88.756C242.019 103.941 257.462 105.791 269.285 105.743C276.106 105.743 285.822 101.689 287.415 94.2897C288.38 89.8338 286.739 84.638 285.806 80.1982L285.452 78.5091Z" fill="#81DEA6"/>
<path d="M286.176 80.1178L285.822 78.5092C284.133 71.1899 277.313 41.8005 265.361 42.5244C268.916 58.0154 274.144 74.375 271.345 90.236C270.452 95.7714 268.288 101.024 265.023 105.582C266.631 105.582 268.24 105.679 269.688 105.679C276.508 105.679 286.224 101.625 287.817 94.2254C288.766 89.7534 287.125 84.4932 286.176 80.1178Z" fill="#49C179"/>
<path style="mix-blend-mode:multiply" opacity="0.68" d="M161.894 150.768C167.733 147.326 168.779 146.441 174.361 142.58L169.535 133.862L149.54 143.304C152.95 146.232 158.371 147.985 161.894 150.768Z" fill="url(#paint2_linear)"/>
<path d="M171.578 89.6086H168.892C167.346 89.6086 166.093 90.8618 166.093 92.4076V141.696C166.093 143.242 167.346 144.495 168.892 144.495H171.578C173.124 144.495 174.377 143.242 174.377 141.696V92.4076C174.377 90.8618 173.124 89.6086 171.578 89.6086Z" fill="#4D4D4D"/>
<path d="M190.672 100.789C188.758 92.5041 180.281 56.0046 165.256 66.7341C157.551 72.2355 155.379 80.8256 152.307 89.2547C149.495 96.1838 147.864 103.535 147.481 111.003C147.24 126.189 162.682 128.039 174.506 127.99C181.326 127.99 191.042 123.937 192.635 116.537C193.6 112.081 191.959 106.885 191.026 102.445L190.672 100.789Z" fill="#81DEA6"/>
<path d="M191.396 102.397L191.042 100.789C189.353 93.4693 182.532 64.0798 170.58 64.8037C174.135 80.2947 179.363 96.6544 176.564 112.515C175.672 118.051 173.508 123.304 170.243 127.862C171.851 127.862 173.46 127.958 174.908 127.958C181.728 127.958 191.444 123.904 193.037 116.505C193.97 112.049 192.345 106.821 191.396 102.397Z" fill="#49C179"/>
<path style="mix-blend-mode:multiply" opacity="0.68" d="M207.032 202.807C214.48 198.416 215.799 197.29 222.925 192.367L216.732 181.219L191.235 193.268C195.611 197.016 202.528 199.252 207.032 202.807Z" fill="url(#paint3_linear)"/>
<path d="M220.11 124.837H215.156C213.61 124.837 212.357 126.091 212.357 127.636V192.013C212.357 193.559 213.61 194.812 215.156 194.812H220.11C221.656 194.812 222.909 193.559 222.909 192.013V127.636C222.909 126.091 221.656 124.837 220.11 124.837Z" fill="#4D4D4D"/>
<path d="M243.708 139.154C241.279 128.602 230.47 82.0642 211.295 95.7214C201.482 102.735 198.699 113.674 194.774 124.387C191.557 133.25 188.822 142.597 188.678 152.103C188.372 171.407 208.061 173.836 223.134 173.755C231.821 173.755 244.223 168.592 246.25 159.149C247.473 153.455 245.381 146.747 244.175 141.181C244.014 140.516 243.859 139.84 243.708 139.154Z" fill="#81DEA6"/>
<path d="M244.626 141.197C244.475 140.511 244.32 139.824 244.159 139.138C242.004 129.792 233.301 92.3433 218.067 93.2602C222.588 113.014 229.328 133.878 225.708 154.082C224.575 161.136 221.822 167.832 217.665 173.643C219.692 173.739 221.687 173.772 223.617 173.772C232.304 173.772 244.706 168.608 246.733 159.165C247.923 153.487 245.832 146.779 244.626 141.197Z" fill="#49C179"/>
<path style="mix-blend-mode:multiply" opacity="0.68" d="M385.363 149.369C393.229 144.736 394.629 143.546 402.141 138.35L395.61 126.607L368.698 139.395C373.299 143.256 380.602 145.605 385.363 149.369Z" fill="url(#paint4_linear)"/>
<path d="M399.342 67.0558H393.792C392.247 67.0558 390.993 68.3089 390.993 69.8547V138.125C390.993 139.67 392.247 140.924 393.792 140.924H399.342C400.888 140.924 402.141 139.67 402.141 138.125V69.8547C402.141 68.3089 400.888 67.0558 399.342 67.0558Z" fill="#4D4D4D"/>
<path d="M424.083 82.1607C421.509 71.013 410.104 21.8858 389.867 36.3312C379.508 43.7308 376.58 55.2968 372.43 66.5893C368.988 75.9514 366.14 85.8123 365.996 95.8501C365.674 116.296 386.457 118.789 402.366 118.709C411.535 118.709 424.63 113.255 426.769 103.298C428.056 97.2978 425.868 90.2038 424.581 84.3163C424.41 83.6085 424.244 82.89 424.083 82.1607Z" fill="#81DEA6"/>
<path d="M425 84.3324C424.839 83.6031 424.678 82.8792 424.517 82.1607C422.249 72.2999 413.048 32.76 396.962 33.7252C401.787 54.6373 408.785 76.5949 405.005 97.9413C403.803 105.391 400.89 112.462 396.495 118.596C398.634 118.709 400.742 118.741 402.769 118.725C411.938 118.725 425.032 113.271 427.171 103.314C428.539 97.2978 426.335 90.2199 425 84.3324Z" fill="#49C179"/>
<path style="mix-blend-mode:multiply" opacity="0.68" d="M328.338 127.379C334.177 123.936 335.223 123.052 340.805 119.191L335.979 110.472L315.984 119.915C319.378 122.843 324.799 124.58 328.338 127.379Z" fill="url(#paint5_linear)"/>
<path d="M338.006 66.2193H335.319C333.774 66.2193 332.52 67.4724 332.52 69.0183V118.306C332.52 119.852 333.774 121.105 335.319 121.105H338.006C339.552 121.105 340.805 119.852 340.805 118.306V69.0183C340.805 67.4724 339.552 66.2193 338.006 66.2193Z" fill="#4D4D4D"/>
<path d="M357.1 77.4474C355.186 69.163 346.708 32.6635 331.684 43.393C323.978 48.8944 321.807 57.4845 318.734 65.9136C315.922 72.8428 314.291 80.194 313.908 87.6622C313.667 102.848 329.11 104.697 340.933 104.649C347.754 104.649 357.47 100.595 359.062 93.1958C360.028 88.7399 358.387 83.5441 357.454 79.1043L357.1 77.4474Z" fill="#81DEA6"/>
<path d="M357.824 79.0561L357.47 77.4475C355.781 70.1282 348.961 40.7388 337.008 41.4627C340.564 56.9537 345.792 73.3133 342.993 89.1743C342.1 94.7097 339.936 99.9627 336.671 104.521C338.279 104.521 339.888 104.617 341.336 104.617C348.156 104.617 357.872 100.563 359.465 93.1637C360.414 88.6917 358.773 83.4315 357.824 79.0561Z" fill="#49C179"/>
<path style="mix-blend-mode:multiply" opacity="0.68" d="M342.767 202.791C348.606 199.349 349.652 198.464 355.234 194.603L350.408 185.884L330.413 195.327C333.823 198.255 339.244 199.992 342.767 202.791Z" fill="url(#paint6_linear)"/>
<path d="M352.451 141.631H349.765C348.219 141.631 346.966 142.885 346.966 144.43V193.718C346.966 195.264 348.219 196.517 349.765 196.517H352.451C353.997 196.517 355.25 195.264 355.25 193.718V144.43C355.25 142.885 353.997 141.631 352.451 141.631Z" fill="#4D4D4D"/>
<path d="M371.545 152.859C369.631 144.575 361.154 108.076 346.129 118.805C338.424 124.307 336.252 132.897 333.18 141.326C330.368 148.255 328.737 155.606 328.354 163.074C328.113 178.26 343.555 180.109 355.379 180.061C362.199 180.061 371.915 176.008 373.508 168.608C374.473 164.152 372.832 158.956 371.899 154.516L371.545 152.859Z" fill="#81DEA6"/>
<path d="M372.253 154.468L371.899 152.86C370.21 145.54 363.39 116.151 351.438 116.875C354.993 132.366 360.221 148.725 357.422 164.586C356.529 170.122 354.365 175.375 351.1 179.933C352.709 179.933 354.317 180.029 355.765 180.029C362.586 180.029 372.302 175.975 373.894 168.576C374.843 164.104 373.219 158.844 372.253 154.468Z" fill="#49C179"/>
<path d="M431.338 103.169C431.338 103.169 418.469 104.247 415.718 103.169C412.967 102.091 404.458 98.9707 403.846 101.464C403.235 103.957 408.141 105.212 408.141 105.212C408.141 105.212 399.407 107.4 396.978 108.124C394.549 108.848 395.916 111.116 397.879 110.778C397.879 110.778 392.811 113.062 394.549 114.22C395.103 114.555 395.72 114.774 396.361 114.865C397.002 114.957 397.655 114.918 398.281 114.751C398.281 114.751 395.98 116.633 398.602 117.792C401.04 117.583 403.438 117.042 405.729 116.183C405.729 116.183 402.785 118.692 403.734 119.4C404.683 120.108 404.409 120.768 413.193 116.183C413.193 116.183 431.531 112.097 435.617 111.357" fill="#FFDCCD"/>
<path opacity="0.41" d="M495.779 230.443C506.412 234.835 533.839 248.572 550.472 257.79C544.759 261.228 538.808 264.254 532.665 266.846C526.536 269.677 521.179 273.667 515.42 277.141C506.267 282.659 495.924 286.391 487.688 293.228C476.041 283.367 456.673 268.632 446.153 260.299C445.783 260.299 442.18 256.76 442.453 254.589C453.955 249.071 493.446 232.261 495.779 230.443Z" fill="url(#paint7_linear)"/>
<path d="M509.018 246.143L511.559 244.535V215.917L498.996 215.467C498.996 215.467 498.755 227.676 495.779 230.459C492.803 233.242 485.468 231.248 484.744 231.489C484.02 231.73 479.081 230.298 476.862 232.583C474.642 234.867 484.39 241.462 489.57 242.669C493.117 243.385 496.757 243.521 500.347 243.071C500.347 243.071 501.473 235.752 503.275 236.476C505.077 237.199 505.205 244.937 505.205 244.937L509.018 246.143Z" fill="#2FDC92"/>
<path d="M521.356 135.454C521.179 116.537 519.747 99.0673 504.594 85.8766L503.645 89.3351C503.645 89.2064 503.645 89.0778 503.645 88.9491C503.5 87.3405 500.75 86.6005 500.428 88.5148C500.435 88.6594 500.435 88.8044 500.428 88.9491V89.0456C500.428 89.6729 500.283 90.3164 500.251 90.9438C500.094 90.772 499.902 90.6363 499.688 90.5459C499.473 90.4556 499.242 90.4127 499.01 90.4204C498.777 90.428 498.549 90.4859 498.341 90.5902C498.134 90.6944 497.951 90.8425 497.806 91.0242C494.846 91.9733 493.656 96.2522 493.639 98.9225C493.639 99.3491 493.809 99.7583 494.111 100.06C494.412 100.362 494.821 100.531 495.248 100.531C495.675 100.531 496.084 100.362 496.385 100.06C496.687 99.7583 496.857 99.3491 496.857 98.9225C496.754 97.7066 497.041 96.4895 497.677 95.4479L497.967 94.6275V94.724V94.917C497.848 95.7157 497.886 96.5299 498.079 97.3139C498.142 97.5162 498.243 97.7041 498.379 97.867C498.514 98.0299 498.68 98.1644 498.867 98.263C499.012 98.8743 499.173 99.4855 499.334 100.097L494.991 101.335L488.781 141.294C488.781 141.294 489.618 228.352 492.256 229.108C510.417 234.384 517.897 225.633 517.897 225.633C519.136 195.697 521.629 165.455 521.356 135.454Z" fill="#D5F3FB"/>
<path d="M474.593 268.23L477.135 266.621V238.004L464.572 237.553C464.572 237.553 464.33 249.763 461.354 252.546C458.379 255.329 451.043 253.334 450.319 253.575C449.595 253.816 444.657 252.385 442.437 254.669C440.217 256.953 449.965 263.549 455.145 264.755C458.692 265.471 462.332 265.607 465.923 265.157C465.923 265.157 467.049 257.838 468.851 258.562C470.652 259.286 470.781 267.023 470.781 267.023L474.593 268.23Z" fill="#2FDC92"/>
<path d="M479.098 98.8099C479.098 98.8099 467.516 141.567 462.803 179.836C461.677 189.021 452.17 243.811 452.17 243.811C452.17 243.811 467.838 249.538 481.768 245.049C481.768 245.049 498.337 175.139 499.045 173.772C499.753 172.404 510.933 127.122 512.219 94.6275" fill="#D5F3FB"/>
<path d="M477.747 41.9131L470.781 43.1034C469.382 44.0686 458.893 55.9724 458.057 67.9727C458.803 71.152 459.787 74.2708 461.001 77.3027C462.416 81.4368 463.945 85.5549 465.698 89.5603C467.548 93.9534 469.726 98.2014 472.213 102.268C473.291 103.99 473.822 104.858 475.076 106.499C476.088 106.764 477.139 106.851 478.181 106.756C499.511 104.086 507.828 87.2439 507.651 85.4905C507.474 83.7371 497.999 62.3103 492.224 49.6022C491 46.9005 488.916 44.6805 486.296 43.2893C483.677 41.8981 480.67 41.4141 477.747 41.9131Z" fill="#2FDC92"/>
<path d="M450.979 28.2076C450.979 28.2076 457.043 50.7283 465.73 49.2806C474.416 47.8328 479.097 34.803 477.65 30.2184C476.202 25.6339 458.234 16.0947 450.979 28.2076Z" fill="#FFDCCD"/>
<path d="M482.717 1.77803C480.637 0.382794 478.126 -0.221999 475.639 0.0730453C473.152 0.36809 470.852 1.54349 469.157 3.38665C465.939 6.97387 465.585 11.7354 466.647 16.1752C461.29 15.1457 455.113 16.6899 449.628 22.6096C449.628 22.6096 444.706 29.2693 448.357 32.7439C452.009 36.2186 456.995 33.323 461.628 31.6501C466.261 29.9771 465.055 35.6555 467.677 39.6932C470.299 43.7308 472.502 43.2804 474.497 42.6209C476.492 41.9613 483.328 35.6395 478.985 25.6821C478.727 25.0666 478.426 24.47 478.084 23.8965C479.199 23.3741 480.274 22.772 481.302 22.0949C483.807 20.7325 485.838 18.6396 487.125 16.0947C488.088 13.5581 488.177 10.7728 487.379 8.17974C486.58 5.58663 484.94 3.33387 482.717 1.77803Z" fill="#81DEA6"/>
<path d="M507.361 126.092C506.331 146.538 500.299 166.131 495.184 185.82C490.068 205.51 485.709 225.119 481.977 244.985L483.714 244.503C487.5 224.438 491.972 204.518 497.13 184.742C502.197 165.439 507.956 146.136 508.969 126.092C509.018 125.063 507.409 125.063 507.361 126.092Z" fill="white"/>
<path d="M458.057 67.9727C458.057 67.9727 452.057 86.3109 447.006 91.1368C443.467 94.531 428.137 99.759 419.273 102.59C419.622 108.274 421.661 113.724 425.128 118.242C438.142 115.234 459.263 107.657 464.443 101.512C472.036 92.5202 475.494 79.3778 475.494 79.3778L458.057 67.9727Z" fill="#2FDC92"/>
<defs>
<linearGradient id="paint0_linear" x1="191.573" y1="349.272" x2="214.737" y2="314.526" gradientUnits="userSpaceOnUse">
<stop stop-color="white" stop-opacity="0"/>
<stop offset="0.99" stop-color="#CECECE"/>
</linearGradient>
<linearGradient id="paint1_linear" x1="268.706" y1="109.218" x2="246.25" y2="130.564" gradientUnits="userSpaceOnUse">
<stop stop-color="#00A99D"/>
<stop offset="1" stop-color="white"/>
</linearGradient>
<linearGradient id="paint2_linear" x1="3200.54" y1="2198.5" x2="2976.82" y2="2510.93" gradientUnits="userSpaceOnUse">
<stop stop-color="#00A99D"/>
<stop offset="1" stop-color="white"/>
</linearGradient>
<linearGradient id="paint3_linear" x1="5040.41" y1="3445.06" x2="4676.07" y2="3953.46" gradientUnits="userSpaceOnUse">
<stop stop-color="#00A99D"/>
<stop offset="1" stop-color="white"/>
</linearGradient>
<linearGradient id="paint4_linear" x1="9211.41" y1="2792.49" x2="8805.99" y2="3358.68" gradientUnits="userSpaceOnUse">
<stop stop-color="#00A99D"/>
<stop offset="1" stop-color="white"/>
</linearGradient>
<linearGradient id="paint5_linear" x1="5934.96" y1="1929.28" x2="5711.19" y2="2241.57" gradientUnits="userSpaceOnUse">
<stop stop-color="#00A99D"/>
<stop offset="1" stop-color="white"/>
</linearGradient>
<linearGradient id="paint6_linear" x1="6172.28" y1="2797.28" x2="5948.57" y2="3109.72" gradientUnits="userSpaceOnUse">
<stop stop-color="#00A99D"/>
<stop offset="1" stop-color="white"/>
</linearGradient>
<linearGradient id="paint7_linear" x1="517.753" y1="279.78" x2="483.055" y2="242.878" gradientUnits="userSpaceOnUse">
<stop stop-color="#C9C9C9" stop-opacity="0"/>
<stop offset="1" stop-color="#CECECE"/>
</linearGradient>
</defs>
</svg>
